<svg width="40" height="24" viewBox="0 0 40 24" fill="none" xmlns="http://www.w3.org/2000/svg">
    <rect x="0.5" y="0.5" width="39" height="23" rx="3.5" fill="white"/>
    <rect x="0.5" y="0.5" width="39" height="23" rx="3.5" stroke="#DBDCE0"/>
    <g clip-path="url(#clip0_5986_42773)">
        <path d="M10.1394 8H4.36174C3.60932 8 3 8.6453 3 9.44183V15.5584C3 16.3544 3.60932 17 4.36174 17H10.1394C10.8916 17 11.5006 16.3544 11.5006 15.5584V9.44183C11.5006 8.6453 10.8916 8 10.1394 8Z" fill="#1677FF"/>
        <path d="M5.29696 14.921C3.97448 14.921 3.5835 13.8182 4.23707 13.2148C4.45516 13.0109 4.8537 12.9113 5.06617 12.889C5.85175 12.8068 6.57896 13.1241 7.43713 13.5676C6.83391 14.4007 6.0656 14.921 5.29696 14.921ZM9.99889 13.6512C9.65873 13.5306 9.2023 13.3461 8.69392 13.1514C8.99922 12.5894 9.24309 11.9495 9.40337 11.2541H7.72774V10.6151H9.78039V10.2584H7.72774V9.19325H6.89004C6.74309 9.19325 6.74309 9.34684 6.74309 9.34684V10.2584H4.66708V10.6151H6.74309V11.2541H5.02907V11.6107H8.35336C8.23171 12.0544 8.06838 12.471 7.87453 12.8495C6.79585 12.4727 5.64482 12.1673 4.92171 12.3553C4.45926 12.4759 4.16142 12.6912 3.98645 12.9168C3.18336 13.9513 3.75936 15.5226 5.45539 15.5226C6.45819 15.5226 7.4242 14.9307 8.17293 13.9552C9.28967 14.5235 11.5007 15.4993 11.5007 15.4993V14.1086C11.5007 14.1086 11.223 14.0851 9.99889 13.6512Z" fill="white"/>
        <path d="M21.4584 9.31753C21.4584 9.78311 21.7825 10.0965 22.2346 10.0965C22.6867 10.0965 23.0107 9.78311 23.0107 9.31753C23.0107 8.86089 22.6867 8.53845 22.2346 8.53845C21.7825 8.53845 21.4584 8.86089 21.4584 9.31753Z" fill="#1677FF"/>
        <path d="M19.2919 15.2721H20.6396V8.73547H19.2919V15.2721Z" fill="black"/>
        <path d="M14.9672 13.0067L15.7689 10.0965H15.8031L16.5623 13.0067H14.9672ZM16.9291 8.95936H15.1208L13.0992 15.2722H14.3446L14.6858 14.0365H16.8267L17.1508 15.2722H18.7459L16.9291 8.95936Z" fill="black"/>
        <path d="M21.5607 15.2721H22.9084V10.4726H21.5607V15.2721Z" fill="black"/>
        <path d="M36.9916 10.4816L37 10.4726H35.7291L34.9274 13.3917H34.8847L33.9635 10.4726H32.4536L34.2706 15.2901L33.5114 16.7586V16.7944H34.6971L36.9916 10.4816Z" fill="black"/>
        <path d="M25.4079 14.4484C25.2544 14.4484 25.1093 14.4305 24.9473 14.3767V11.78C25.2288 11.574 25.4591 11.4755 25.7491 11.4755C26.2524 11.4755 26.6532 11.8964 26.6532 12.7918C26.6532 13.9379 26.0647 14.4484 25.4079 14.4484ZM26.2609 10.3741C25.7662 10.3741 25.3823 10.5712 24.9473 10.9472V10.4726H23.5995V16.7944H24.9473V15.2274C25.2032 15.299 25.442 15.3348 25.732 15.3348C26.9347 15.3348 28.018 14.4036 28.018 12.7471C28.018 11.2606 27.2332 10.3741 26.2609 10.3741Z" fill="black"/>
        <path d="M30.8416 14.1081C30.4833 14.314 30.2785 14.3946 30.0398 14.3946C29.7157 14.3946 29.511 14.1708 29.511 13.8126C29.511 13.6782 29.5365 13.544 29.6388 13.4366C29.8009 13.2664 30.1166 13.141 30.8416 12.962V14.1081ZM32.1892 14.0723V12.0665C32.1892 10.974 31.5752 10.3742 30.4919 10.3742C29.8009 10.3742 29.3233 10.4994 28.4533 10.777L28.692 11.8785C29.4853 11.5023 29.8351 11.3412 30.2019 11.3412C30.6455 11.3412 30.8416 11.6725 30.8416 12.1829V12.2187C29.2976 12.5232 28.82 12.6933 28.5214 13.0067C28.2997 13.2396 28.2059 13.5708 28.2059 13.9558C28.2059 14.8781 28.8883 15.3707 29.5281 15.3707C30.0057 15.3707 30.3895 15.1826 30.9099 14.7707L31.0037 15.2722H32.3514L32.1892 14.0723Z" fill="black"/>
    </g>
    <defs>
        <clipPath id="clip0_5986_42773">
            <rect width="34" height="9" fill="white" transform="translate(3 8)"/>
        </clipPath>
    </defs>
</svg>