<svg width="40" height="24" viewBox="0 0 40 24" fill="none" xmlns="http://www.w3.org/2000/svg">
    <rect x="0.5" y="0.5" width="39" height="23" rx="3.5" fill="white"/>
    <rect x="0.5" y="0.5" width="39" height="23" rx="3.5" stroke="#DBDCE0"/>
    <path d="M11.2919 7.54747C11.6216 7.1309 11.8453 6.57157 11.7863 6C11.3037 6.02424 10.7148 6.32164 10.3739 6.73854C10.0678 7.09555 9.79683 7.6783 9.86746 8.2259C10.4092 8.27338 10.9504 7.95235 11.2919 7.54747Z" fill="black"/>
    <path d="M11.7801 8.33279C10.9934 8.28545 10.3245 8.78387 9.94884 8.78387C9.57295 8.78387 8.99766 8.35665 8.37543 8.36816C7.56556 8.38018 6.8141 8.8428 6.40312 9.57858C5.55782 11.0505 6.18005 13.2339 7.00206 14.4327C7.40125 15.0258 7.88234 15.6788 8.51625 15.6553C9.11518 15.6316 9.34994 15.2635 10.078 15.2635C10.8055 15.2635 11.0169 15.6553 11.651 15.6435C12.3084 15.6316 12.7195 15.0501 13.1187 14.4564C13.5766 13.7803 13.7641 13.1275 13.7759 13.0917C13.7641 13.0798 12.5081 12.593 12.4964 11.1333C12.4845 9.91111 13.4825 9.32975 13.5295 9.2937C12.9659 8.4516 12.0854 8.35665 11.7801 8.33279Z" fill="black"/>
    <path d="M18.63 6.67873C20.3398 6.67873 21.5305 7.86948 21.5305 9.60312C21.5305 11.3429 20.3153 12.5399 18.5871 12.5399H16.694V15.5815H15.3262V6.67873L18.63 6.67873ZM16.694 11.38H18.2634C19.4543 11.38 20.132 10.7322 20.132 9.6093C20.132 8.48651 19.4543 7.84484 18.2695 7.84484H16.694V11.38Z" fill="black"/>
    <path d="M21.8878 13.7368C21.8878 12.6015 22.7489 11.9044 24.2757 11.818L26.0343 11.7132V11.2135C26.0343 10.4916 25.5518 10.0597 24.7459 10.0597C23.9824 10.0597 23.506 10.4298 23.3901 11.0098H22.1444C22.2176 9.83754 23.2068 8.97382 24.7947 8.97382C26.3519 8.97382 27.3472 9.80672 27.3472 11.1085V15.5815H26.0831V14.5141H26.0527C25.6802 15.236 24.8679 15.6925 24.0252 15.6925C22.7672 15.6925 21.8878 14.9028 21.8878 13.7368ZM26.0343 13.1507V12.6386L24.4526 12.7373C23.6648 12.7929 23.2191 13.1445 23.2191 13.6998C23.2191 14.2673 23.6832 14.6375 24.3916 14.6375C25.3136 14.6375 26.0343 13.9959 26.0343 13.1507Z" fill="black"/>
    <path d="M28.5406 17.9692V16.8894C28.6382 16.9141 28.858 16.9141 28.968 16.9141C29.5786 16.9141 29.9084 16.655 30.1099 15.9887C30.1099 15.9763 30.226 15.5939 30.226 15.5877L27.9055 9.09103H29.3343L30.9589 14.3723H30.9832L32.6077 9.09103H34L31.5938 15.9208C31.0444 17.4941 30.4093 18 29.078 18C28.968 18 28.6382 17.9876 28.5406 17.9692Z" fill="black"/>
</svg>
