<svg width="51" height="50" viewBox="0 0 51 50" fill="none" xmlns="http://www.w3.org/2000/svg">
<rect x="0.5" width="50" height="50" fill="white"/>
<g clip-path="url(#clip0)">
<path d="M12.8138 18.9063C12.345 19.4609 11.595 19.8984 10.845 19.8359C10.7513 19.0859 11.1185 18.2891 11.5482 17.7969C12.0169 17.2266 12.8372 16.8203 13.5013 16.7891C13.5794 17.5703 13.2747 18.3359 12.8138 18.9063ZM13.4935 19.9844C12.4075 19.9219 11.4778 20.6016 10.9622 20.6016C10.4388 20.6016 9.64971 20.0156 8.79034 20.0312C7.67315 20.0469 6.63409 20.6797 6.06378 21.6875C4.8919 23.7031 5.75909 26.6875 6.8919 28.3281C7.44659 29.1406 8.11065 30.0313 8.98565 30C9.81378 29.9688 10.1419 29.4609 11.1419 29.4609C12.1497 29.4609 12.4388 30 13.3138 29.9844C14.22 29.9687 14.7903 29.1719 15.345 28.3594C15.9778 27.4375 16.2357 26.5391 16.2513 26.4922C16.2357 26.4766 14.5013 25.8125 14.4857 23.8125C14.47 22.1406 15.8528 21.3438 15.9153 21.2969C15.1341 20.1406 13.9153 20.0156 13.4935 19.9844ZM19.7669 17.7187V29.8984H21.6575V25.7344H24.2747C26.6653 25.7344 28.345 24.0937 28.345 21.7187C28.345 19.3437 26.6966 17.7187 24.3372 17.7187H19.7669V17.7187ZM21.6575 19.3125H23.8372C25.4778 19.3125 26.4153 20.1875 26.4153 21.7266C26.4153 23.2656 25.4778 24.1484 23.8294 24.1484H21.6575V19.3125V19.3125ZM31.7981 29.9922C32.9856 29.9922 34.0872 29.3906 34.5872 28.4375H34.6263V29.8984H36.3763V23.8359C36.3763 22.0781 34.97 20.9453 32.806 20.9453C30.7981 20.9453 29.3138 22.0937 29.2591 23.6719H30.9622C31.1028 22.9219 31.7981 22.4297 32.7513 22.4297C33.9075 22.4297 34.556 22.9688 34.556 23.9609V24.6328L32.1966 24.7734C30.0013 24.9062 28.8138 25.8047 28.8138 27.3672C28.8138 28.9453 30.0403 29.9922 31.7981 29.9922ZM32.306 28.5469C31.2982 28.5469 30.6575 28.0625 30.6575 27.3203C30.6575 26.5547 31.2747 26.1094 32.4544 26.0391L34.556 25.9062V26.5938C34.556 27.7344 33.5872 28.5469 32.306 28.5469ZM38.7122 33.2109C40.556 33.2109 41.4231 32.5078 42.181 30.375L45.5013 21.0625H43.5794L41.3528 28.2578H41.3138L39.0872 21.0625H37.1106L40.3138 29.9297L40.1419 30.4688C39.8528 31.3828 39.3841 31.7344 38.5481 31.7344C38.3997 31.7344 38.1106 31.7187 37.9935 31.7031V33.1641C38.1028 33.1953 38.5716 33.2109 38.7122 33.2109Z" fill="black"/>
</g>
<defs>
<clipPath id="clip0">
<rect width="40" height="16.4219" fill="white" transform="translate(5.5 16.7891)"/>
</clipPath>
</defs>
</svg>
