<svg width="40" height="24" viewBox="0 0 40 24" fill="none" xmlns="http://www.w3.org/2000/svg">
    <rect x="0.5" y="0.5" width="39" height="23" rx="3.5" fill="white"/>
    <rect x="0.5" y="0.5" width="39" height="23" rx="3.5" stroke="#DBDCE0"/>
    <g clip-path="url(#clip0_5986_42785)">
        <path d="M7.02667 19.9009V16.1935H8.18257C9.02275 16.1935 9.56324 16.5059 9.56324 17.1521C9.56324 17.5175 9.392 17.7718 9.15118 17.9201C9.49902 18.0789 9.70237 18.3861 9.70237 18.8045C9.70237 19.5513 9.15118 19.9009 8.29496 19.9009H7.02667ZM7.77052 17.7347H8.32172C8.65885 17.7347 8.80335 17.5705 8.80335 17.2686C8.80335 16.9455 8.54112 16.8396 8.18792 16.8396H7.77052L7.77052 17.7347ZM7.77052 19.2547H8.23073C8.68026 19.2547 8.94247 19.1435 8.94247 18.794C8.94247 18.4497 8.71772 18.3067 8.29496 18.3067H7.77051L7.77052 19.2547ZM11.1449 19.9644C10.4117 19.9644 10.0425 19.6096 10.0425 19.1329C10.0425 18.6086 10.476 18.3014 11.1181 18.2961C11.2777 18.299 11.4369 18.3131 11.5944 18.3385V18.2113C11.5944 17.8883 11.4071 17.7347 11.0486 17.7347C10.807 17.7317 10.5672 17.7748 10.3422 17.8618L10.2084 17.2898C10.4385 17.1944 10.8077 17.1309 11.1342 17.1309C11.9208 17.1309 12.3115 17.544 12.3115 18.259V19.7314C12.0921 19.8426 11.68 19.9644 11.1449 19.9644H11.1449ZM11.5944 19.366V18.7992C11.4696 18.7718 11.3423 18.7576 11.2144 18.7569C10.9683 18.7569 10.7756 18.8522 10.7756 19.1011C10.7756 19.3236 10.9362 19.4401 11.2198 19.4401C11.3488 19.4443 11.477 19.4189 11.5944 19.366H11.5944ZM12.8314 19.9009V17.3639C13.216 17.2111 13.6264 17.132 14.0408 17.1309C14.8221 17.1309 15.2716 17.5122 15.2716 18.2166V19.9009H14.5331V18.2696C14.5331 17.9042 14.3619 17.7347 14.0355 17.7347C13.8734 17.7324 13.7127 17.765 13.5645 17.83V19.9009L12.8314 19.9009ZM17.8524 17.2898L17.7133 17.8671C17.5221 17.7851 17.3168 17.7402 17.1086 17.7347C16.6751 17.7347 16.4396 18.0366 16.4396 18.5344C16.4396 19.08 16.6858 19.3607 17.146 19.3607C17.3514 19.3551 17.5535 19.3082 17.74 19.223L17.8578 19.8109C17.6155 19.9176 17.3523 19.97 17.0872 19.9644C16.1988 19.9644 15.6851 19.4189 15.6851 18.5556C15.6851 17.6976 16.1935 17.1309 17.0444 17.1309C17.3218 17.1295 17.5966 17.1836 17.8524 17.2898L17.8524 17.2898ZM19.4478 19.9644C18.6237 19.9644 18.1099 19.3977 18.1099 18.545C18.1099 17.6976 18.6237 17.1309 19.4478 17.1309C20.2773 17.1309 20.7803 17.6976 20.7803 18.545C20.7803 19.3977 20.2773 19.9644 19.4478 19.9644ZM19.4478 19.3607C19.8278 19.3607 20.0257 19.0482 20.0257 18.545C20.0257 18.0472 19.8278 17.7347 19.4478 17.7347C19.0732 17.7347 18.8645 18.0472 18.8645 18.545C18.8645 19.0482 19.0732 19.3607 19.4478 19.3607ZM21.2077 19.9009V17.3639C21.5922 17.2111 22.0026 17.132 22.4171 17.1309C23.1984 17.1309 23.6479 17.5122 23.6479 18.2166V19.9009H22.9094V18.2696C22.9094 17.9042 22.7382 17.7347 22.4117 17.7347C22.2496 17.7324 22.089 17.765 21.9408 17.83V19.9009L21.2077 19.9009ZM25.3134 19.9644C24.6766 19.9644 24.3501 19.6202 24.3501 18.9211V17.7771H23.9862V17.1944H24.3501V16.6066L25.0886 16.5695V17.1944H25.6826V17.7771H25.0886V18.9105C25.0886 19.2177 25.2171 19.3607 25.4579 19.3607C25.5533 19.3604 25.6484 19.3498 25.7415 19.3289L25.7789 19.9168C25.6261 19.9503 25.4699 19.9663 25.3134 19.9644ZM27.1774 19.9644C26.4442 19.9644 26.075 19.6096 26.075 19.1329C26.075 18.6086 26.5085 18.3014 27.1506 18.2961C27.3102 18.299 27.4694 18.3131 27.6269 18.3385V18.2113C27.6269 17.8883 27.4396 17.7347 27.0811 17.7347C26.8395 17.7317 26.5997 17.7748 26.3747 17.8618L26.2409 17.2898C26.471 17.1945 26.8402 17.1309 27.1667 17.1309C27.9533 17.1309 28.344 17.544 28.344 18.259V19.7314C28.1246 19.8426 27.7125 19.9644 27.1774 19.9644ZM27.6269 19.366V18.7992C27.5021 18.7718 27.3748 18.7576 27.2469 18.7569C27.0008 18.7569 26.8081 18.8522 26.8081 19.1011C26.8081 19.3236 26.9687 19.4401 27.2523 19.4401C27.3813 19.4443 27.5095 19.4189 27.6269 19.366ZM30.8706 17.2898L30.7315 17.8671C30.5403 17.7851 30.3351 17.7402 30.1268 17.7347C29.6933 17.7347 29.4579 18.0366 29.4579 18.5344C29.4579 19.08 29.704 19.3607 30.1642 19.3607C30.3696 19.3551 30.5717 19.3082 30.7582 19.223L30.876 19.8109C30.6337 19.9176 30.3705 19.97 30.1054 19.9644C29.217 19.9644 28.7033 19.4189 28.7033 18.5556C28.7033 17.6976 29.2117 17.1309 30.0626 17.1309C30.34 17.1295 30.6148 17.1836 30.8706 17.2898ZM32.4943 19.9644C31.8575 19.9644 31.531 19.6202 31.531 18.9211V17.7771H31.1671V17.1944H31.531V16.6066L32.2695 16.5695V17.1944H32.8635V17.7771H32.2695V18.9105C32.2695 19.2177 32.398 19.3607 32.6388 19.3607C32.7342 19.3604 32.8293 19.3498 32.9224 19.3289L32.9599 19.9168C32.807 19.9503 32.6508 19.9663 32.4943 19.9644Z" fill="#1E3764"/>
        <path d="M12.1778 14.3397C16.0855 14.3397 18.0394 11.7614 19.9933 9.18304H7.02667V14.3397H12.1778Z" fill="url(#paint0_linear_5986_42785)"/>
        <path d="M27.8087 4.02634C23.901 4.02634 21.9471 6.60469 19.9933 9.18304H32.9599V4.02634H27.8087Z" fill="url(#paint1_linear_5986_42785)"/>
    </g>
    <defs>
        <linearGradient id="paint0_linear_5986_42785" x1="9.6494" y1="11.9995" x2="19.111" y2="8.4486" gradientUnits="userSpaceOnUse">
            <stop stop-color="#005AB9"/>
            <stop offset="1" stop-color="#1E3764"/>
        </linearGradient>
        <linearGradient id="paint1_linear_5986_42785" x1="20.7784" y1="9.6303" x2="30.8282" y2="6.16588" gradientUnits="userSpaceOnUse">
            <stop stop-color="#FBA900"/>
            <stop offset="1" stop-color="#FFD800"/>
        </linearGradient>
        <clipPath id="clip0_5986_42785">
            <rect width="26" height="16" fill="white" transform="translate(7 4)"/>
        </clipPath>
    </defs>
</svg>
