<svg width="40" height="24" viewBox="0 0 40 24" fill="none" xmlns="http://www.w3.org/2000/svg">
    <rect x="0.5" y="0.5" width="39" height="23" rx="3.5" fill="white"/>
    <rect x="0.5" y="0.5" width="39" height="23" rx="3.5" stroke="#DBDCE0"/>
    <path fill-rule="evenodd" clip-rule="evenodd" d="M10.825 8.38333C10.825 6.65744 12.2241 5.25833 13.95 5.25833H26.0611C27.787 5.25833 29.1861 6.65744 29.1861 8.38333V15.6056C29.1861 17.3314 27.787 18.7306 26.0611 18.7306H13.95C12.2241 18.7306 10.825 17.3314 10.825 15.6056V8.38333ZM13.95 6.50833C12.9145 6.50833 12.075 7.3478 12.075 8.38333V8.925H27.9361V8.38333C27.9361 7.3478 27.0967 6.50833 26.0611 6.50833H13.95ZM12.075 15.6056V10.175H27.9361V15.6056C27.9361 16.6411 27.0967 17.4806 26.0611 17.4806H13.95C12.9145 17.4806 12.075 16.6411 12.075 15.6056ZM13.2695 15.6611C13.2695 15.3159 13.5493 15.0361 13.8945 15.0361H15.7278C16.073 15.0361 16.3528 15.3159 16.3528 15.6611C16.3528 16.0063 16.073 16.2861 15.7278 16.2861H13.8945C13.5493 16.2861 13.2695 16.0063 13.2695 15.6611ZM18.1722 15.0361C17.8271 15.0361 17.5472 15.3159 17.5472 15.6611C17.5472 16.0063 17.8271 16.2861 18.1722 16.2861H20.0056C20.3507 16.2861 20.6306 16.0063 20.6306 15.6611C20.6306 15.3159 20.3507 15.0361 20.0056 15.0361H18.1722ZM13.8945 11.9806C13.5493 11.9806 13.2695 12.2604 13.2695 12.6056C13.2695 12.9507 13.5493 13.2306 13.8945 13.2306H22.45C22.7952 13.2306 23.075 12.9507 23.075 12.6056C23.075 12.2604 22.7952 11.9806 22.45 11.9806H13.8945Z" fill="#9295A3"/>
</svg>
