<svg width="40" height="24" viewBox="0 0 40 24" fill="none" xmlns="http://www.w3.org/2000/svg">
    <rect x="0.5" y="0.5" width="39" height="23" rx="3.5" fill="white"/>
    <rect x="0.5" y="0.5" width="39" height="23" rx="3.5" stroke="#DBDCE0"/>
    <g clip-path="url(#clip0_5986_42748)">
        <path fill-rule="evenodd" clip-rule="evenodd" d="M11.1149 8.41328L19.6502 2.9263C19.6782 2.90742 19.7076 2.89094 19.738 2.87695C19.9077 2.79832 20.0995 2.80204 20.2621 2.87695C20.2925 2.89094 20.3218 2.90742 20.3498 2.9263L28.8852 8.41333C28.9011 8.42322 28.9165 8.43381 28.9314 8.44504C29.0057 8.50083 29.0644 8.57057 29.1061 8.64822C29.1455 8.72141 29.1708 8.80336 29.1783 8.89042C29.185 8.96761 29.1775 9.04639 29.1548 9.12258C29.133 9.19598 29.0981 9.26373 29.0528 9.32313C28.9986 9.39455 28.9313 9.45134 28.8566 9.49231C28.78 9.53449 28.6936 9.56107 28.6017 9.56778C28.583 9.56917 28.5643 9.56973 28.5456 9.56945H27.3473V17.5051C28.0404 17.618 28.5695 18.2194 28.5695 18.9444V19.7222C28.5695 20.5276 27.9166 21.1806 27.1111 21.1806H12.8889C12.0835 21.1806 11.4306 20.5276 11.4306 19.7222V18.9444C11.4306 18.2194 11.9597 17.618 12.6528 17.5051V9.56945H11.4545C11.3455 9.57109 11.2373 9.5442 11.1416 9.4913C11.0683 9.45077 11.0022 9.39496 10.9487 9.32501C10.9019 9.26425 10.8662 9.19466 10.8442 9.11917C10.7977 8.95966 10.8175 8.78905 10.8954 8.64572C10.937 8.56907 10.9951 8.50023 11.0686 8.44504C11.0836 8.43379 11.099 8.42318 11.1149 8.41328ZM13.5725 8.31945H15.7223H18.7778H21.2223H24.2778H26.4276L20 4.18745L13.5725 8.31945ZM23.6528 9.56945H21.8473V17.4861H23.6528V9.56945ZM20.5973 9.56945H19.4028V17.4861H20.5973V9.56945ZM18.1528 9.56945H16.3473V17.4861H18.1528V9.56945ZM15.0973 9.56945H13.9028V17.4861H15.0973V9.56945ZM26.0973 9.56945H24.9028V17.4861H26.0973V9.56945ZM21.2223 18.7361H24.2778H26.7223L27.1111 18.7361C27.2262 18.7361 27.3195 18.8294 27.3195 18.9444V19.7222C27.3195 19.8373 27.2262 19.9306 27.1111 19.9306H12.8889C12.7739 19.9306 12.6806 19.8373 12.6806 19.7222V18.9444C12.6806 18.8294 12.7739 18.7361 12.8889 18.7361L13.2778 18.7361H15.7223H18.7778H21.2223Z" fill="#9295A3"/>
    </g>
    <defs>
        <clipPath id="clip0_5986_42748">
            <rect width="20" height="20" fill="white" transform="translate(10 2)"/>
        </clipPath>
    </defs>
</svg>
