<svg width="40" height="24" viewBox="0 0 40 24" fill="none" xmlns="http://www.w3.org/2000/svg">
<rect x="0.5" y="0.5" width="39" height="23" rx="3.5" fill="white"/>
<rect x="0.5" y="0.5" width="39" height="23" rx="3.5" stroke="#DBDCE0"/>
<path d="M30.7457 12.0029H28.4352C28.1782 12.0029 27.9692 11.7963 27.9692 11.5376C27.9692 11.279 28.1783 11.0512 28.4352 11.0512H31.9528V9.30014H28.4352C27.2075 9.30014 26.2086 10.3102 26.2086 11.5461C26.2086 12.782 27.2075 13.7921 28.4352 13.7921H30.7143C30.9713 13.7921 31.1804 13.9979 31.1804 14.2565C31.1804 14.5152 30.9713 14.7057 30.7143 14.7057H25.8271C25.4122 15.5051 25.0087 16.1903 24.1897 16.5329H30.7457C31.9528 16.5154 32.9401 15.4845 32.9401 14.2595C32.9401 13.0346 31.9528 12.0205 30.7457 12.0029Z" fill="#71706F"/>
<path d="M21.8887 9.30014C19.9305 9.30014 18.3355 10.9193 18.3355 12.9089V12.9851V20.4158H20.1084V16.5329H21.885C23.8433 16.5329 25.4326 14.8922 25.4326 12.9026C25.4326 10.913 23.847 9.30014 21.8887 9.30014ZM21.8887 14.7057H20.1084V12.9026C20.1084 11.895 20.9033 11.0753 21.8887 11.0753C22.8742 11.0753 23.6758 11.895 23.6758 12.9026C23.6758 13.9102 22.8742 14.7057 21.8887 14.7057Z" fill="#71706F"/>
<path d="M12.7228 16.5329C11.0465 16.5329 9.63712 15.3274 9.25577 13.7526C9.25577 13.7526 9.14558 13.2319 9.14558 12.889C9.14558 12.5462 9.24988 12.0201 9.24988 12.0201C9.63399 10.4492 11.0416 9.27935 12.7151 9.27935C14.6835 9.27935 16.2986 10.8941 16.2986 12.8804V13.754H11.0692C11.378 14.3631 12.0025 14.7057 12.7228 14.7057H17.4238L17.4302 9.55446C17.4302 8.78645 16.8076 8.15811 16.0466 8.15811H9.38368C8.62266 8.15811 8 8.76742 8 9.53542V16.2596C8 17.0276 8.62266 17.6749 9.38368 17.6749H16.0466C16.7296 17.6749 17.2993 17.1801 17.4093 16.5329H12.7228Z" fill="#C8036F"/>
<path d="M12.7151 10.9886C11.9977 10.9886 11.3737 11.4319 11.0637 12.0029H14.3667C14.0566 11.4319 13.4327 10.9886 12.7151 10.9886Z" fill="#C8036F"/>
<path d="M15.7328 5.97149C15.7328 4.33038 14.3813 3 12.7142 3C11.0748 3 9.74136 4.28686 9.69757 5.89037C9.69685 5.89715 9.69742 5.90373 9.69742 5.9107V6.80368C9.69742 6.9105 9.78361 7.0161 9.89209 7.0161H11.0026C11.1111 7.0161 11.2063 6.9105 11.2063 6.80368V5.97149C11.2063 5.15198 11.8826 4.48523 12.7151 4.48523C13.5476 4.48523 14.2239 5.15198 14.2239 5.97149V6.80368C14.2239 6.9105 14.3119 7.0161 14.4204 7.0161H15.531C15.6395 7.0161 15.7328 6.9105 15.7328 6.80368V5.97149Z" fill="#C8036F"/>
<path d="M23.8778 18.8551L23.7172 19.7724C23.637 20.2361 23.3359 20.4484 22.9279 20.4484C22.5823 20.4484 22.3147 20.2211 22.3927 19.7732L22.5532 18.8551H22.8008L22.6402 19.7724C22.5911 20.0584 22.7182 20.2211 22.9591 20.2211C23.2066 20.2211 23.4184 20.0726 23.4696 19.7732L23.6302 18.8551H23.8778V18.8551ZM22.9055 18.5678C22.9055 18.6443 22.9635 18.6802 23.026 18.6802C23.104 18.6802 23.1888 18.624 23.1888 18.5183C23.1888 18.444 23.1396 18.4058 23.075 18.4058C22.9948 18.4058 22.9055 18.4576 22.9055 18.5678ZM23.4408 18.5656C23.4408 18.6443 23.501 18.6802 23.5656 18.6802C23.6348 18.6802 23.7262 18.624 23.7262 18.5206C23.7262 18.4464 23.6726 18.4058 23.6125 18.4058C23.5322 18.4058 23.4408 18.4576 23.4408 18.5656Z" fill="#71706F"/>
<path d="M24.476 18.855L24.3645 19.4889C24.4603 19.3584 24.6521 19.2895 24.7859 19.2895C25.0624 19.2895 25.2542 19.453 25.2542 19.7567C25.2542 20.1865 24.9576 20.445 24.5786 20.445C24.4314 20.445 24.3065 20.3898 24.2307 20.2503L24.1883 20.4158H23.972L24.2463 18.855H24.476ZM24.3021 19.9248C24.2932 20.1093 24.4113 20.2286 24.583 20.2286C24.7993 20.2286 25.0089 20.0597 25.0223 19.8033C25.0312 19.6165 24.9108 19.5062 24.7435 19.5062C24.5294 19.5062 24.3154 19.6795 24.3021 19.9248Z" fill="#71706F"/>
<path d="M25.7051 19.959C25.6961 20.1112 25.8143 20.2356 26.015 20.2356C26.1265 20.2356 26.2736 20.1916 26.3539 20.1151L26.4788 20.2607C26.3429 20.3867 26.1421 20.4494 25.9727 20.4494C25.6561 20.4494 25.4709 20.258 25.4709 19.9655C25.4709 19.5761 25.7742 19.286 26.1621 19.286C26.5167 19.286 26.7174 19.5022 26.597 19.959H25.7051ZM26.4097 19.7686C26.4276 19.5783 26.3161 19.5008 26.131 19.5008C25.9637 19.5008 25.8099 19.5783 25.743 19.7686H26.4097Z" fill="#71706F"/>
<path d="M27.2106 19.3118L27.1994 19.4586C27.3065 19.3166 27.4358 19.2877 27.5539 19.2877C27.661 19.2877 27.7568 19.3261 27.8082 19.3823L27.6699 19.5848C27.6209 19.5399 27.5718 19.5174 27.487 19.5174C27.3287 19.5174 27.1727 19.6132 27.137 19.818L27.0323 20.4158H26.8026L26.9965 19.3118H27.2106Z" fill="#71706F"/>
<path d="M28.9145 19.3118L29.0304 20.1849L29.4497 19.3118H29.706L29.1308 20.4158H28.861L28.7517 19.6875L28.5755 20.0493L28.3838 20.4158H28.1162L27.9222 19.3118H28.1809L28.2946 20.1849L28.716 19.3118H28.9145Z" fill="#71706F"/>
<path d="M30.001 19.959C29.9921 20.1112 30.1103 20.2356 30.311 20.2356C30.4225 20.2356 30.5696 20.1916 30.6498 20.1151L30.7748 20.2607C30.6388 20.3867 30.4381 20.4494 30.2686 20.4494C29.952 20.4494 29.7669 20.258 29.7669 19.9655C29.7669 19.5761 30.0701 19.286 30.4581 19.286C30.8127 19.286 31.0134 19.5022 30.893 19.959H30.001ZM30.7056 19.7686C30.7235 19.5783 30.612 19.5008 30.4269 19.5008C30.2597 19.5008 30.1058 19.5783 30.0389 19.7686H30.7056Z" fill="#71706F"/>
<path d="M31.5222 19.3118L31.3282 20.4158H31.0985L31.2925 19.3118H31.5222ZM31.3193 19.0111C31.3193 19.0898 31.3773 19.1305 31.4397 19.1305C31.5289 19.1305 31.6114 19.0719 31.6114 18.9617C31.6114 18.8873 31.5557 18.8446 31.4955 18.8446C31.4129 18.8446 31.3193 18.8987 31.3193 19.0111Z" fill="#71706F"/>
<path d="M32.5414 19.5849C32.47 19.5039 32.3787 19.4814 32.2694 19.4814C32.1177 19.4814 32.0107 19.5332 32.0107 19.6299C32.0107 19.7109 32.0976 19.7448 32.227 19.756C32.4277 19.774 32.6841 19.8415 32.6306 20.1273C32.5927 20.3343 32.3875 20.4558 32.1021 20.4558C31.9237 20.4558 31.752 20.4153 31.636 20.2511L31.7854 20.0868C31.8679 20.2015 32.0129 20.2488 32.1422 20.2511C32.2514 20.2511 32.3808 20.2106 32.4008 20.1071C32.4209 20.008 32.334 19.9698 32.1734 19.954C31.9861 19.936 31.781 19.8663 31.781 19.657C31.781 19.3802 32.0775 19.2834 32.3005 19.2834C32.4699 19.2834 32.5949 19.3217 32.6974 19.4319L32.5414 19.5849Z" fill="#71706F"/>
<path d="M33.2664 19.3118L33.1617 19.9063C33.1282 20.0954 33.213 20.226 33.4047 20.226C33.5853 20.226 33.7391 20.075 33.7703 19.8905L33.8706 19.3118H34.1003L33.9064 20.4158H33.699L33.7146 20.2558C33.5852 20.3796 33.4581 20.4379 33.3043 20.4379C33.0345 20.4379 32.874 20.2427 32.9319 19.9075L33.0367 19.3118H33.2664Z" fill="#71706F"/>
<path d="M35.1087 20.4158L35.2134 19.8249C35.2469 19.6336 35.1823 19.5069 34.9726 19.5069C34.7898 19.5069 34.6359 19.6553 34.6047 19.8376L34.5044 20.4158H34.2747L34.4688 19.3118H34.6783L34.6628 19.4732C34.7899 19.3539 34.9214 19.295 35.064 19.295C35.3317 19.295 35.5056 19.4829 35.4455 19.8228L35.3406 20.4158H35.1087Z" fill="#71706F"/>
<path d="M35.8872 20.5681C35.8716 20.7203 35.9875 20.7819 36.1816 20.7819C36.3511 20.7819 36.534 20.6864 36.5763 20.4434L36.6097 20.2538C36.5094 20.3956 36.3265 20.4516 36.1906 20.4516C35.9096 20.4516 35.7134 20.2827 35.7134 19.9766C35.7134 19.5401 36.0344 19.288 36.3979 19.288C36.5518 19.288 36.6901 19.3617 36.7391 19.4877L36.7771 19.3118H37L36.8082 20.4486C36.7369 20.8694 36.427 21 36.1438 21C35.8048 21 35.6176 20.8344 35.6643 20.568H35.8872V20.5681ZM35.9519 19.9316C35.9519 20.1205 36.0745 20.2353 36.2508 20.2353C36.7256 20.2353 36.8528 19.4995 36.3778 19.4995C36.1525 19.4995 35.9519 19.6682 35.9519 19.9316Z" fill="#71706F"/>
</svg>
