<svg width="40" height="24" viewBox="0 0 40 24" fill="none" xmlns="http://www.w3.org/2000/svg">
    <rect x="0.5" y="0.5" width="39" height="23" rx="3.5" fill="white"/>
    <rect x="0.5" y="0.5" width="39" height="23" rx="3.5" stroke="#DBDCE0"/>
    <path fill-rule="evenodd" clip-rule="evenodd" d="M6 8.15304C6 6.96402 6.97219 6 8.17083 6H31.8292C33.0283 6 34 6.96402 34 8.15304V15.8474C34 17.0358 33.0283 18 31.8292 18H8.17083C6.97219 18 6 17.0358 6 15.8474V8.15304Z" fill="#000268"/>
    <path fill-rule="evenodd" clip-rule="evenodd" d="M7.11975 8.38212V15.62C7.11975 16.3323 7.7254 16.9101 8.47248 16.9101H20.8259V7.09192H8.47248C7.7254 7.09192 7.11975 7.66969 7.11975 8.38212ZM24.0178 11.9649C24.0178 12.4257 23.7802 12.7424 23.3866 12.7424C23.0389 12.7424 22.7491 12.4257 22.7491 12.0037C22.7491 11.5705 23.0041 11.2485 23.3866 11.2485C23.7923 11.2485 24.0178 11.5817 24.0178 11.9649ZM21.7073 14.6078H22.7491V13.0363H22.7608C22.9582 13.3807 23.3522 13.5082 23.7169 13.5082C24.6143 13.5082 25.0948 12.7977 25.0948 11.9426C25.0948 11.2432 24.6375 10.4819 23.8034 10.4819C23.3289 10.4819 22.8889 10.6654 22.6798 11.0709H22.6682V10.5491H21.7073V14.6078ZM26.5179 12.5255C26.5179 12.2481 26.7956 12.143 27.1493 12.143C27.3055 12.143 27.4563 12.1535 27.5894 12.1595C27.5894 12.498 27.3404 12.8424 26.9463 12.8424C26.7031 12.8424 26.5179 12.7259 26.5179 12.5255ZM28.6196 13.4418C28.5736 13.2144 28.5619 12.9863 28.5619 12.7589V11.6816C28.5619 10.7988 27.8964 10.4819 27.126 10.4819C26.6803 10.4819 26.2924 10.5431 25.9216 10.6877L25.9394 11.3654C26.2279 11.2097 26.5645 11.1485 26.9003 11.1485C27.2761 11.1485 27.5831 11.2544 27.5894 11.6486C27.4563 11.6263 27.2706 11.6093 27.1027 11.6093C26.5473 11.6093 25.5454 11.7151 25.5454 12.5978C25.5454 13.2256 26.0778 13.5082 26.6742 13.5082C27.1027 13.5082 27.3925 13.3478 27.6298 12.9863H27.6415C27.6415 13.1368 27.6585 13.286 27.6647 13.4418H28.6196ZM29.0885 14.6078C29.303 14.6525 29.517 14.675 29.737 14.675C30.6925 14.675 30.918 13.9696 31.2134 13.2421L32.3197 10.5491H31.2772L30.6576 12.4368H30.646L29.9974 10.5491H28.8745L30.0961 13.5082C30.0207 13.7639 29.824 13.9085 29.569 13.9085C29.4237 13.9085 29.2969 13.8914 29.1577 13.8473L29.0885 14.6078Z" fill="white"/>
    <path fill-rule="evenodd" clip-rule="evenodd" d="M9.33688 11.9607C9.33688 11.5572 9.54343 11.2217 9.9383 11.2217C10.4156 11.2217 10.6158 11.5909 10.6158 11.9205C10.6158 12.3751 10.3151 12.6818 9.9383 12.6818C9.62015 12.6818 9.33688 12.4208 9.33688 11.9607ZM11.6414 10.506H10.6806V11.04H10.6695C10.445 10.6761 10.0792 10.4374 9.62582 10.4374C8.67126 10.4374 8.24084 11.097 8.24084 11.9775C8.24084 12.8526 8.76552 13.4659 9.60762 13.4659C10.0325 13.4659 10.3862 13.3065 10.6395 12.9602H10.6513V13.1195C10.6513 13.6988 10.3213 13.9772 9.70877 13.9772C9.26649 13.9772 8.99505 13.8863 8.67126 13.7331L8.61821 14.5401C8.86526 14.6254 9.28383 14.7277 9.79116 14.7277C11.0288 14.7277 11.6414 14.3355 11.6414 13.1195V10.506ZM13.4344 9.27316H12.3733V10.0231H13.4344V9.27316ZM12.3739 13.4659H13.4344V10.506H12.3739V13.4659ZM16.3882 10.4716C16.2821 10.4549 16.1523 10.4374 16.0289 10.4374C15.5692 10.4374 15.3041 10.6761 15.1212 11.0513H15.1093V10.506H14.1429V13.4659H15.2036V12.2164C15.2036 11.6366 15.481 11.2902 15.9759 11.2902C16.1 11.2902 16.2172 11.2902 16.3352 11.3238L16.3882 10.4716ZM18.2148 12.8183C17.7257 12.8183 17.5255 12.4262 17.5255 11.989C17.5255 11.5457 17.7257 11.1537 18.2148 11.1537C18.7045 11.1537 18.9048 11.5457 18.9048 11.989C18.9048 12.4262 18.7045 12.8183 18.2148 12.8183ZM18.2148 13.5339C19.2286 13.5339 20.0009 12.9663 20.0009 11.989C20.0009 11.0057 19.2286 10.4374 18.2148 10.4374C17.2011 10.4374 16.4295 11.0057 16.4295 11.989C16.4295 12.9663 17.2011 13.5339 18.2148 13.5339Z" fill="#FF0007"/>
</svg>
