<svg xmlns="http://www.w3.org/2000/svg" width="39" height="17" viewBox="0 0 39 17">
    <g fill="none" fill-rule="evenodd">
        <path fill="#000268" d="M.032 3.215A3.013 3.013 0 0 1 3.052.21H35.96a3.012 3.012 0 0 1 3.02 3.005v10.74a3.012 3.012 0 0 1-3.02 3.004H3.051a3.013 3.013 0 0 1-3.02-3.005V3.215z"/>
        <path fill="#FFF" d="M1.27 3.318v10.534c0 1.037.846 1.878 1.889 1.878H20.4V1.44H3.16c-1.043 0-1.888.841-1.888 1.878zm23.585 5.215c0 .67-.332 1.131-.88 1.131-.486 0-.89-.46-.89-1.075 0-.63.355-1.1.89-1.1.565 0 .88.486.88 1.044zm-3.225 3.846h1.454v-2.287h.017c.275.501.825.687 1.334.687 1.253 0 1.923-1.034 1.923-2.279 0-1.018-.638-2.126-1.802-2.126-.662 0-1.277.267-1.568.857h-.017v-.759h-1.34v5.907zm6.714-3.03c0-.404.388-.557.882-.557.218 0 .428.015.614.024 0 .493-.348.994-.898.994-.34 0-.598-.17-.598-.461zm2.934 1.333a5.187 5.187 0 0 1-.08-.994V8.12c0-1.285-.93-1.746-2.005-1.746-.622 0-1.163.09-1.68.3l.024.986c.403-.227.872-.316 1.341-.316.525 0 .953.154.962.728a4.244 4.244 0 0 0-.68-.057c-.775 0-2.173.154-2.173 1.439 0 .913.743 1.325 1.576 1.325.598 0 1.002-.234 1.333-.76h.017c0 .22.023.436.032.663h1.333zm.654 1.697c.3.065.598.098.905.098 1.334 0 1.648-1.027 2.06-2.086l1.545-3.919h-1.455l-.865 2.748h-.016L33.2 6.472h-1.568l1.705 4.307c-.105.372-.38.582-.735.582-.203 0-.38-.024-.574-.089l-.097 1.107z"/>
        <path fill="#FF0007" d="M4.823 8.541c0-.574.284-1.051.825-1.051.655 0 .93.525.93.994 0 .647-.413 1.083-.93 1.083-.436 0-.825-.371-.825-1.026zm3.16-2.069H6.667v.76h-.015c-.308-.518-.81-.858-1.431-.858-1.31 0-1.9.939-1.9 2.191 0 1.245.72 2.117 1.875 2.117.582 0 1.067-.227 1.415-.72h.016v.227c0 .824-.453 1.22-1.293 1.22-.606 0-.978-.129-1.422-.347l-.073 1.148c.339.122.913.267 1.608.267 1.698 0 2.538-.558 2.538-2.288V6.472zm2.46-1.754H8.986v1.067h1.455V4.718zm-1.455 5.964h1.454v-4.21H8.988v4.21zm5.505-4.259A3.145 3.145 0 0 0 14 6.374c-.63 0-.994.34-1.245.874h-.016v-.776h-1.325v4.21h1.454V8.905c0-.825.38-1.318 1.059-1.318.17 0 .331 0 .493.048l.073-1.212zm2.504 3.338c-.67 0-.945-.558-.945-1.18 0-.63.274-1.188.945-1.188.672 0 .946.558.946 1.188 0 .622-.274 1.18-.946 1.18zm0 1.018c1.39 0 2.45-.808 2.45-2.198 0-1.398-1.06-2.207-2.45-2.207-1.39 0-2.448.809-2.448 2.207 0 1.39 1.058 2.198 2.448 2.198z"/>
    </g>
</svg>
