<svg width="40" height="24" viewBox="0 0 40 24" fill="none" xmlns="http://www.w3.org/2000/svg">
    <rect x="0.5" y="0.5" width="39" height="23" rx="3.5" fill="white"/>
    <rect x="0.5" y="0.5" width="39" height="23" rx="3.5" stroke="#DBDCE0"/>
    <path d="M18.9686 12.3499V15.5931H17.8306V7.58432H20.8476C21.6122 7.58432 22.2642 7.81483 22.7977 8.27584C23.343 8.73686 23.6157 9.29972 23.6157 9.96444C23.6157 10.6452 23.343 11.2081 22.7977 11.6638C22.2701 12.1194 21.6181 12.3446 20.8476 12.3446H18.9686V12.3499ZM18.9686 8.57068V11.3636H20.8713C21.3218 11.3636 21.7011 11.2242 21.9975 10.9508C22.2998 10.6774 22.4539 10.345 22.4539 9.9698C22.4539 9.59991 22.2998 9.27292 21.9975 8.99953C21.7011 8.71541 21.3277 8.57604 20.8713 8.57604H18.9686V8.57068Z" fill="#3C4043"/>
    <path d="M26.5912 9.93228C27.4328 9.93228 28.0967 10.136 28.5828 10.5434C29.0688 10.9508 29.3118 11.5083 29.3118 12.2159V15.5931H28.2271V14.8319H28.1797C27.7114 15.4591 27.0831 15.77 26.3007 15.77C25.6309 15.77 25.0738 15.5931 24.6233 15.2339C24.1728 14.8748 23.9476 14.4298 23.9476 13.8938C23.9476 13.3256 24.1847 12.8753 24.6589 12.5429C25.133 12.2052 25.7673 12.039 26.5556 12.039C27.2313 12.039 27.7885 12.1516 28.2212 12.3767V12.1409C28.2212 11.7817 28.0671 11.4815 27.7529 11.2296C27.4388 10.9776 27.0713 10.8543 26.6504 10.8543C26.0162 10.8543 25.5124 11.0955 25.1449 11.5834L24.1432 11.0151C24.6944 10.2914 25.5124 9.93228 26.5912 9.93228ZM25.1212 13.9099C25.1212 14.1779 25.2457 14.403 25.5005 14.5799C25.7495 14.7568 26.0459 14.848 26.3837 14.848C26.8638 14.848 27.2906 14.6872 27.664 14.3655C28.0374 14.0439 28.2271 13.6686 28.2271 13.2344C27.8715 12.9825 27.3795 12.8538 26.7453 12.8538C26.2829 12.8538 25.8977 12.9557 25.5894 13.154C25.2753 13.3631 25.1212 13.615 25.1212 13.9099Z" fill="#3C4043"/>
    <path d="M35.5 10.1092L31.7065 18H30.5329L31.9436 15.2393L29.4423 10.1092H30.6811L32.483 14.0439H32.5067L34.2612 10.1092H35.5Z" fill="#3C4043"/>
    <path d="M14.4419 11.6959C14.4419 11.3603 14.4088 11.0392 14.3471 10.7304H9.57678V12.4994L12.3241 12.5C12.2127 13.0886 11.8541 13.5903 11.3046 13.9248V15.0725H12.94C13.8949 14.2733 14.4419 13.0918 14.4419 11.6959Z" fill="#4285F4"/>
    <path d="M11.3052 13.9249C10.85 14.2025 10.2637 14.365 9.57795 14.365C8.25319 14.365 7.12937 13.5577 6.7269 12.4695H5.03998V13.6531C5.87573 15.153 7.59348 16.1822 9.57795 16.1822C10.9495 16.1822 12.1018 15.7743 12.9405 15.072L11.3052 13.9249Z" fill="#34A853"/>
    <path d="M6.56805 11.5914C6.56805 11.2858 6.62436 10.9905 6.7269 10.7128V9.52914H5.03998C4.69442 10.1494 4.5 10.8495 4.5 11.5914C4.5 12.3333 4.69501 13.0334 5.03998 13.6536L6.7269 12.47C6.62436 12.1923 6.56805 11.8969 6.56805 11.5914Z" fill="#FABB05"/>
    <path d="M9.57795 8.81725C10.3266 8.81725 10.997 9.05044 11.5263 9.50609L12.9755 8.19649C12.0953 7.45512 10.9478 7 9.57795 7C7.59407 7 5.87573 8.02924 5.03998 9.52914L6.7269 10.7128C7.12937 9.62456 8.25319 8.81725 9.57795 8.81725Z" fill="#E94235"/>
</svg>
