<svg width="40" height="24" viewBox="0 0 40 24" fill="none" xmlns="http://www.w3.org/2000/svg">
    <rect x="0.5" y="0.5" width="39" height="23" rx="3.5" fill="white"/>
    <rect x="0.5" y="0.5" width="39" height="23" rx="3.5" stroke="#DBDCE0"/>
    <g clip-path="url(#clip0_5986_42787)">
        <g clip-path="url(#clip1_5986_42787)">
            <path d="M9.0072 3.48258V20.5174C9.0072 21.3328 9.68303 22 10.509 22H20.8191C28.6137 22 31.9928 17.6931 31.9928 11.9778C31.9928 6.29207 28.6137 2 20.8191 2H10.509C9.68303 2 9.0072 2.66716 9.0072 3.48258Z" fill="white"/>
            <path d="M15.9081 6.18088V18.768H21.4574C26.4961 18.768 28.6813 15.9585 28.6813 11.9852C28.6813 8.18236 26.4961 5.23203 21.4574 5.23203H16.8693C16.3362 5.23203 15.9081 5.66197 15.9081 6.18088Z" fill="#CC0066"/>
            <path d="M20.8192 20.6434H11.8532C11.0572 20.6434 10.4114 20.0059 10.4114 19.2202V4.78726C10.4114 4.00149 11.0572 3.36398 11.8532 3.36398H20.8192C29.3271 3.36398 30.5961 8.76799 30.5961 11.9852C30.5961 17.5671 27.1194 20.6434 20.8192 20.6434ZM11.8532 3.83841C11.32 3.83841 10.892 4.26094 10.892 4.78726V19.2202C10.892 19.7465 11.32 20.169 11.8532 20.169H20.8192C26.8115 20.169 30.1155 17.2632 30.1155 11.9852C30.1155 4.89845 24.2884 3.83841 20.8192 3.83841H11.8532Z" fill="black"/>
            <path d="M17.8606 10.2876C18.0558 10.2876 18.236 10.3173 18.4087 10.3766C18.5814 10.4359 18.7241 10.5323 18.8518 10.6509C18.9719 10.7769 19.0695 10.9325 19.1446 11.1105C19.2122 11.2958 19.2497 11.5108 19.2497 11.7628C19.2497 11.9852 19.2197 12.1853 19.1671 12.3706C19.1071 12.556 19.0245 12.7191 18.9118 12.8525C18.7992 12.9859 18.6565 13.0897 18.4838 13.1712C18.3111 13.2454 18.1084 13.2898 17.8756 13.2898H16.5615V10.2802H17.8606V10.2876ZM17.8155 12.7413C17.9131 12.7413 18.0032 12.7265 18.1008 12.6968C18.191 12.6672 18.2736 12.6153 18.3411 12.5411C18.4087 12.467 18.4688 12.3781 18.5138 12.2595C18.5589 12.1408 18.5814 12.0074 18.5814 11.8369C18.5814 11.6887 18.5664 11.5478 18.5364 11.4292C18.5063 11.3106 18.4538 11.1994 18.3862 11.1179C18.3186 11.0363 18.2285 10.9622 18.1159 10.9177C18.0032 10.8732 17.8681 10.851 17.7029 10.851H17.2223V12.7487H17.8155V12.7413Z" fill="white"/>
            <path d="M21.9606 10.2876V10.8436H20.3536V11.4885H21.8329V12H20.3536V12.7339H21.9981V13.2898H19.6853V10.2802H21.9606V10.2876Z" fill="white"/>
            <path d="M24.2584 10.2876L25.3998 13.2973H24.7014L24.4686 12.6301H23.3273L23.087 13.2973H22.4111L23.56 10.2876H24.2584ZM24.2959 12.1334L23.913 11.0289H23.9055L23.5075 12.1334H24.2959Z" fill="white"/>
            <path d="M26.4886 10.2876V12.7413H27.9754V13.2973H25.8203V10.2876H26.4886Z" fill="white"/>
            <path d="M13.4001 13.1786C14.1756 13.1786 14.8043 12.558 14.8043 11.7924C14.8043 11.0268 14.1756 10.4062 13.4001 10.4062C12.6245 10.4062 11.9958 11.0268 11.9958 11.7924C11.9958 12.558 12.6245 13.1786 13.4001 13.1786Z" fill="black"/>
            <path d="M14.4588 18.768C13.2799 18.768 12.3337 17.8265 12.3337 16.6701V15.0319C12.3337 14.4537 12.8068 13.9792 13.4 13.9792C13.9858 13.9792 14.4663 14.4463 14.4663 15.0319V18.768H14.4588Z" fill="black"/>
        </g>
    </g>
    <defs>
        <clipPath id="clip0_5986_42787">
            <rect width="23" height="20" fill="white" transform="translate(9 2)"/>
        </clipPath>
        <clipPath id="clip1_5986_42787">
            <rect width="23" height="20" fill="white" transform="translate(9 2)"/>
        </clipPath>
    </defs>
</svg>
