<svg width="50" height="51" viewBox="0 0 50 51" fill="none" xmlns="http://www.w3.org/2000/svg">
<rect y="0.339844" width="50" height="50" fill="white"/>
<path d="M31.9362 13.0626L26.8501 12.636L9.7627 12.3789V38.6717H28.0025L34.0805 37.0188L38.2179 33.4321L40.2417 27.7907V21.2728L37.2152 16.0361L31.9362 13.0626Z" fill="white"/>
<path d="M10.3 12.8192V37.8617H25.5148C34.7023 37.8617 39.7002 33.582 39.7002 25.3085C39.7002 16.8061 34.2827 12.8192 25.5148 12.8192H10.3V12.8192ZM25.5148 11.5195C38.9882 11.5195 41 20.1594 41 25.3085C41 34.2422 35.5009 39.162 25.5148 39.162C25.5148 39.162 9.326 39.162 9 39.162C9 38.8347 9 11.846 9 11.5195C9.326 11.5195 25.5148 11.5195 25.5148 11.5195Z" fill="#0A0B09"/>
<path d="M19.6895 21.4246C19.6895 22.2077 19.6895 23.4676 19.6895 24.2503C20.1185 24.2503 20.5568 24.2503 20.5568 24.2503C21.1577 24.2503 21.7128 24.0766 21.7128 22.8153C21.7128 21.5826 21.0951 21.4246 20.5568 21.4246C20.5568 21.4246 20.1185 21.4246 19.6895 21.4246V21.4246ZM34.1579 20.0192H35.5608C35.5608 20.0192 35.5608 23.2179 35.5608 24.2503C35.8719 24.2503 36.7264 24.2503 37.6398 24.2503C37.0696 16.5728 31.0299 14.9141 25.5419 14.9141H19.6907V20.022H20.5568C22.1358 20.022 23.1169 21.0928 23.1169 22.8153C23.1169 24.5924 22.1594 25.6532 20.5568 25.6532H19.6907V35.8739H25.5419C34.4649 35.8739 37.57 31.7303 37.6797 25.6532H34.1579V20.0192V20.0192ZM30.2488 23.1629H31.2638L30.7997 21.5701H30.7154L30.2488 23.1629ZM28.0594 25.6549L29.7584 20.0189H31.7544L33.4529 25.6549H31.9924L31.674 24.5646H29.8388L29.5195 25.6549H28.0594ZM27.3856 24.2503V25.6532H23.9147V20.0213H27.2736V21.4236C27.2736 21.4236 26.0782 21.4236 25.3179 21.4236C25.3179 21.617 25.3179 21.8387 25.3179 22.0765H27.1675V23.4785H25.3179C25.3179 23.76 25.3179 24.0255 25.3179 24.2503C26.1002 24.2503 27.3856 24.2503 27.3856 24.2503V24.2503Z" fill="#D50172"/>
<path d="M17.8525 22.8354C17.8525 24.5075 16.4977 25.863 14.8257 25.863C13.1545 25.863 11.7983 24.5075 11.7983 22.8354C11.7983 21.1647 13.1545 19.8086 14.8257 19.8086C16.4977 19.8086 17.8525 21.1647 17.8525 22.8354ZM12.3976 35.8699H17.2682V27.1994H12.3976V35.8699Z" fill="black"/>
</svg>
