<?xml version="1.0" encoding="UTF-8"?>
<svg xmlns="http://www.w3.org/2000/svg" xmlns:xlink="http://www.w3.org/1999/xlink" width="35px" height="19px" viewBox="0 0 34 19" version="1.1">
    <g id="surface1">
        <path style=" stroke:none;fill-rule:nonzero;fill:rgb(100%,70.196078%,78.039216%);fill-opacity:1;" d="M 3.265625 0 L 30.734375 0 C 32.539062 0 34 1.46875 34 3.285156 L 34 15.714844 C 34 17.53125 32.539062 19 30.734375 19 L 3.265625 19 C 1.460938 19 0 17.53125 0 15.714844 L 0 3.285156 C 0 1.46875 1.460938 0 3.265625 0 Z M 3.265625 0 "/>
        <path style=" stroke:none;fill-rule:nonzero;fill:rgb(3.921569%,4.313725%,3.529412%);fill-opacity:1;" d="M 30.820312 11.132812 C 30.378906 11.132812 30.015625 11.496094 30.015625 11.949219 C 30.015625 12.398438 30.378906 12.765625 30.820312 12.765625 C 31.265625 12.765625 31.628906 12.398438 31.628906 11.949219 C 31.628906 11.496094 31.265625 11.132812 30.820312 11.132812 Z M 28.171875 10.5 C 28.171875 9.882812 27.652344 9.378906 27.007812 9.378906 C 26.367188 9.378906 25.847656 9.882812 25.847656 10.5 C 25.847656 11.117188 26.367188 11.617188 27.007812 11.617188 C 27.652344 11.617188 28.171875 11.117188 28.171875 10.5 Z M 28.175781 8.324219 L 29.460938 8.324219 L 29.460938 12.675781 L 28.175781 12.675781 L 28.175781 12.394531 C 27.8125 12.648438 27.375 12.792969 26.902344 12.792969 C 25.65625 12.792969 24.640625 11.765625 24.640625 10.5 C 24.640625 9.230469 25.65625 8.203125 26.902344 8.203125 C 27.375 8.203125 27.8125 8.351562 28.175781 8.601562 Z M 17.90625 8.890625 L 17.90625 8.324219 L 16.59375 8.324219 L 16.59375 12.675781 L 17.910156 12.675781 L 17.910156 10.644531 C 17.910156 9.957031 18.640625 9.589844 19.148438 9.589844 C 19.15625 9.589844 19.160156 9.589844 19.164062 9.589844 L 19.164062 8.324219 C 18.644531 8.324219 18.164062 8.550781 17.90625 8.890625 Z M 14.632812 10.5 C 14.632812 9.882812 14.113281 9.378906 13.472656 9.378906 C 12.828125 9.378906 12.308594 9.882812 12.308594 10.5 C 12.308594 11.117188 12.828125 11.617188 13.472656 11.617188 C 14.113281 11.617188 14.632812 11.117188 14.632812 10.5 Z M 14.636719 8.324219 L 15.921875 8.324219 L 15.921875 12.675781 L 14.636719 12.675781 L 14.636719 12.394531 C 14.277344 12.648438 13.839844 12.792969 13.367188 12.792969 C 12.117188 12.792969 11.105469 11.765625 11.105469 10.5 C 11.105469 9.230469 12.117188 8.203125 13.367188 8.203125 C 13.839844 8.203125 14.277344 8.351562 14.636719 8.601562 Z M 22.363281 8.207031 C 21.847656 8.207031 21.363281 8.367188 21.039062 8.8125 L 21.039062 8.324219 L 19.761719 8.324219 L 19.761719 12.675781 L 21.054688 12.675781 L 21.054688 10.386719 C 21.054688 9.726562 21.492188 9.402344 22.019531 9.402344 C 22.582031 9.402344 22.90625 9.746094 22.90625 10.378906 L 22.90625 12.675781 L 24.1875 12.675781 L 24.1875 9.90625 C 24.1875 8.894531 23.394531 8.207031 22.363281 8.207031 Z M 9.234375 12.675781 L 10.578125 12.675781 L 10.578125 6.386719 L 9.234375 6.386719 Z M 3.335938 12.675781 L 4.757812 12.675781 L 4.757812 6.382812 L 3.335938 6.382812 Z M 8.308594 6.382812 C 8.308594 7.746094 7.785156 9.011719 6.855469 9.957031 L 8.820312 12.675781 L 7.0625 12.675781 L 4.925781 9.71875 L 5.480469 9.300781 C 6.394531 8.605469 6.917969 7.542969 6.917969 6.382812 Z M 8.308594 6.382812 "/>
    </g>
</svg>
