<svg width="40" height="24" viewBox="0 0 40 24" fill="none" xmlns="http://www.w3.org/2000/svg">
    <rect width="40" height="24" rx="4" fill="#FFB3C7"/>
    <g clip-path="url(#clip0_7742_719)">
        <path d="M34.5394 4H5.46059C2.99708 4 1 6.07883 1 8.64319V15.3568C1 17.9212 2.99708 20 5.46059 20H34.5394C37.0029 20 39 17.9212 39 15.3568V8.64319C39 6.07883 37.0029 4 34.5394 4Z" fill="#FFB3C7"/>
        <path d="M31.4293 11.0106C31.0756 10.7597 30.6628 10.614 30.2355 10.5891C29.8081 10.5642 29.3823 10.6611 29.0039 10.8693C28.6255 11.0776 28.3088 11.3893 28.0879 11.771C27.867 12.1526 27.7502 12.5898 27.7502 13.0353C27.7502 13.4809 27.867 13.918 28.0879 14.2997C28.3088 14.6814 28.6255 14.9931 29.0039 15.2013C29.3823 15.4096 29.8081 15.5065 30.2355 15.4816C30.6628 15.4567 31.0756 15.311 31.4293 15.0601V15.3567H32.7649V10.7136H31.4293V11.0106ZM30.2147 14.23C29.9903 14.2176 29.7744 14.1369 29.5935 13.9981C29.4127 13.8593 29.275 13.6683 29.1973 13.4488C29.1197 13.2293 29.1055 12.9909 29.1567 12.7632C29.2078 12.5354 29.3219 12.3283 29.485 12.1673C29.648 12.0064 29.8528 11.8987 30.074 11.8577C30.2953 11.8166 30.5232 11.844 30.7296 11.9363C30.936 12.0287 31.1119 12.1821 31.2355 12.3774C31.3591 12.5727 31.425 12.8015 31.425 13.0354C31.4164 13.3608 31.2842 13.6693 31.0573 13.8933C30.8304 14.1173 30.5273 14.2384 30.2147 14.23Z" fill="black"/>
        <path d="M13.1147 8.64445H11.717V15.3568H13.1147V8.64445Z" fill="black"/>
        <path d="M25.3786 10.5887C25.116 10.5726 24.8536 10.6231 24.6139 10.736C24.3743 10.8489 24.1646 11.0208 24.003 11.2368V10.7139H22.673V15.3568H24.019V12.9168C24.0086 12.7766 24.0274 12.6358 24.074 12.5038C24.1206 12.3719 24.194 12.252 24.2891 12.1522C24.3842 12.0524 24.4989 11.9751 24.6253 11.9255C24.7516 11.8759 24.8868 11.8553 25.0215 11.865C25.6085 11.865 25.9459 12.23 25.9459 12.9072V15.3568H27.2799V12.4041C27.2799 11.3236 26.4545 10.5887 25.3786 10.5887Z" fill="black"/>
        <path d="M17.34 11.0106C16.9863 10.7597 16.5735 10.614 16.1461 10.5891C15.7187 10.5642 15.2929 10.6611 14.9145 10.8693C14.5361 11.0776 14.2194 11.3893 13.9985 11.771C13.7776 12.1526 13.6609 12.5898 13.6609 13.0353C13.6609 13.4809 13.7776 13.918 13.9985 14.2997C14.2194 14.6814 14.5361 14.9931 14.9145 15.2013C15.2929 15.4096 15.7187 15.5065 16.1461 15.4816C16.5735 15.4567 16.9863 15.311 17.34 15.0601V15.3567H18.6755V10.7136H17.34V11.0106ZM16.1253 14.23C15.9009 14.2176 15.685 14.137 15.5041 13.9982C15.3233 13.8593 15.1855 13.6684 15.1078 13.4489C15.0301 13.2294 15.016 12.991 15.0671 12.7633C15.1182 12.5355 15.2323 12.3283 15.3954 12.1674C15.5584 12.0064 15.7632 11.8987 15.9844 11.8577C16.2057 11.8166 16.4336 11.844 16.64 11.9363C16.8465 12.0287 17.0224 12.182 17.146 12.3774C17.2696 12.5727 17.3354 12.8015 17.3354 13.0354C17.3269 13.3608 17.1947 13.6693 16.9678 13.8933C16.7409 14.1173 16.4379 14.2384 16.1253 14.23Z" fill="black"/>
        <path d="M20.7415 11.3185V10.7137H19.3741V15.3569H20.7444V13.1892C20.7444 12.4578 21.506 12.0646 22.0345 12.0646C22.0398 12.0646 22.045 12.0652 22.0503 12.0652V10.714C21.8027 10.7071 21.5567 10.7577 21.3303 10.8623C21.1039 10.9669 20.9027 11.1227 20.7415 11.3185Z" fill="black"/>
        <path d="M34.1827 13.7099C34.017 13.71 33.8549 13.7611 33.7171 13.857C33.5792 13.9529 33.4718 14.0892 33.4083 14.2486C33.3449 14.4081 33.3283 14.5835 33.3607 14.7528C33.393 14.922 33.4728 15.0775 33.5901 15.1995C33.7073 15.3215 33.8567 15.4046 34.0193 15.4383C34.1819 15.472 34.3504 15.4547 34.5036 15.3886C34.6567 15.3226 34.7877 15.2108 34.8798 15.0673C34.9719 14.9238 35.021 14.7551 35.021 14.5825C35.021 14.4679 34.9994 14.3544 34.9572 14.2486C34.9151 14.1427 34.8534 14.0465 34.7755 13.9655C34.6977 13.8844 34.6053 13.8202 34.5036 13.7763C34.4018 13.7325 34.2928 13.7099 34.1827 13.7099Z" fill="black"/>
        <path d="M10.7537 8.64319H9.30522C9.30746 9.24783 9.17308 9.84456 8.91292 10.3852C8.65276 10.9258 8.27412 11.3951 7.80756 11.7553L7.23376 12.2027L9.45726 15.3589H11.2853L9.23948 12.4548C9.72196 11.9556 10.1043 11.3616 10.3642 10.7072C10.6242 10.0529 10.7566 9.35127 10.7537 8.64319Z" fill="black"/>
        <path d="M7.0568 8.64319H5.60577V15.3587H7.0568V8.64319Z" fill="black"/>
    </g>
    <defs>
        <clipPath id="clip0_7742_719">
            <rect width="38" height="16" fill="white" transform="translate(1 4)"/>
        </clipPath>
    </defs>
</svg>
