<svg width="40" height="24" viewBox="0 0 40 24" fill="none" xmlns="http://www.w3.org/2000/svg">
    <g clip-path="url(#clip0_7745_35898)">
        <rect width="40" height="24" rx="4" fill="#FFB3C7"/>
        <g clip-path="url(#clip1_7745_35898)">
            <path d="M37.8037 24H2.16729C0.960019 24 -0.0145264 23.0541 -0.0145264 21.8824V2.11765C-0.0145264 0.945882 0.960019 0 2.16729 0H37.8037C39.0109 0 39.9855 0.945882 39.9855 2.11765V21.8824C39.9855 23.0541 39.0037 24 37.8037 24Z" fill="#FC1154"/>
            <path d="M18.8873 7.65177V11.9718H17.0546V8.35765C17.0546 7.46824 16.3709 6.98824 15.7309 6.98824C15.1709 6.98824 14.7418 7.24941 14.32 7.82824V11.9718H12.4873V8.78824C12.2982 8.85177 12.1091 8.90118 11.9273 8.94353C11.8255 10.7788 10.4873 12.0918 8.67639 12.0918C6.78549 12.0918 5.41821 10.6729 5.41821 8.73177V5.34353H7.25094V8.72471C7.25094 9.45177 7.62185 10.3059 8.67639 10.3059C9.64367 10.3059 10.0364 9.58589 10.0946 8.90118C9.33094 8.59059 8.85821 7.84236 8.85821 6.84C8.85821 5.80941 9.65094 5.20236 10.4146 5.20236C11.3891 5.20236 11.9346 6.14824 11.9273 7.08706C11.9273 7.08706 12.1964 6.9953 12.4873 6.83294V5.34353H14.32V5.9153C14.9455 5.42118 15.5273 5.1953 16.1964 5.1953C16.9382 5.1953 17.6146 5.44941 18.1164 5.90118C18.6182 6.35294 18.8873 6.97412 18.8873 7.65177ZM19.6218 6.91059H22.7273L19.4546 10.6871V11.9647H25.2728V10.3976H21.9782L25.2728 6.57177V5.33647H19.6218V6.91059ZM31.2218 6.12C31.84 6.72706 32.16 7.58824 32.16 8.60471V9.21883H27.2291C27.36 10.0377 27.9637 10.5247 28.8509 10.5247C29.5928 10.5247 30.2328 10.2353 30.5164 9.76941L30.5237 9.76236H30.5309L31.9709 10.3906L31.9637 10.3976C31.3891 11.4706 30.24 12.0847 28.8218 12.0847C26.7782 12.0847 25.4109 10.7012 25.4109 8.64706C25.4109 7.68 25.7746 6.79059 26.4364 6.1553C27.0691 5.54118 27.92 5.20941 28.8218 5.20941C29.7964 5.21647 30.6182 5.52706 31.2218 6.12ZM30.3709 7.82824C30.2182 7.14353 29.6437 6.73412 28.8218 6.73412C28.0728 6.73412 27.4982 7.14353 27.28 7.82824H30.3709ZM36.7637 5.29412C36.5164 5.22353 36.24 5.22353 36.24 5.22353C35.6364 5.22353 35.0546 5.44941 34.56 5.87294V5.33647H32.7273V11.9647H34.56V7.85647C34.9237 7.19294 35.4764 6.82589 36.1237 6.82589C36.1237 6.82589 36.4146 6.82589 36.5964 6.88236L36.7637 5.29412ZM11.5418 15.5082C11.5418 15.2894 11.7309 15.1059 11.9564 15.1059C12.1818 15.1059 12.3709 15.2894 12.3709 15.5082C12.3709 15.7271 12.1891 15.9106 11.9564 15.9106C11.7309 15.9106 11.5418 15.7271 11.5418 15.5082ZM11.5928 18.6565V16.1859H12.3055V18.6565H11.5928ZM12.9164 18.6565V16.1859H13.6291V16.5106C13.8255 16.3059 14.1091 16.1365 14.4728 16.1365C15.04 16.1365 15.3528 16.4894 15.3528 16.9694V18.6635H14.64V17.1741C14.64 16.8847 14.4946 16.7365 14.2255 16.7365C13.9782 16.7365 13.7455 16.9059 13.6218 17.1106V18.6706H12.9164V18.6565ZM16.6328 18.6565L15.6582 16.1859H16.4291L16.9455 17.5482L17.0109 17.9859H17.04L17.1055 17.5482L17.6218 16.1859H18.3928L17.4182 18.6565H16.6328ZM18.5528 17.4141C18.5528 16.68 19.1273 16.1294 19.9418 16.1294C20.7564 16.1294 21.3309 16.68 21.3309 17.4141C21.3309 18.1482 20.7564 18.6988 19.9418 18.6988C19.1273 18.7059 18.5528 18.1553 18.5528 17.4141ZM20.6109 17.4141C20.6109 16.9835 20.32 16.7294 19.9346 16.7294C19.5491 16.7294 19.2655 16.9835 19.2655 17.4141C19.2655 17.8447 19.5491 18.0988 19.9346 18.0988C20.32 18.0988 20.6109 17.8447 20.6109 17.4141ZM21.7455 15.5082C21.7455 15.2894 21.9346 15.1059 22.16 15.1059C22.3928 15.1059 22.5746 15.2894 22.5746 15.5082C22.5746 15.7271 22.3928 15.9106 22.16 15.9106C21.9273 15.9106 21.7455 15.7271 21.7455 15.5082ZM21.7964 18.6565V16.1859H22.5091V18.6565H21.7964ZM22.9818 17.4141C22.9818 16.6518 23.5709 16.1294 24.3128 16.1294C24.9891 16.1294 25.4473 16.4894 25.5637 17.0471L25.52 17.0965L24.9309 17.1529C24.8655 16.8988 24.6618 16.7224 24.3128 16.7224C23.9491 16.7224 23.6728 16.9624 23.6728 17.4071C23.6728 17.8518 23.9491 18.0918 24.3128 18.0918C24.6618 18.0918 24.8364 17.9294 24.9309 17.6612L25.52 17.7177L25.5637 17.76C25.4109 18.3529 24.9673 18.6847 24.3128 18.6847C23.5782 18.7059 22.9818 18.1765 22.9818 17.4141ZM25.9346 17.4141C25.9346 16.6447 26.5528 16.1294 27.2437 16.1294C28 16.1294 28.5237 16.6024 28.5237 17.4V17.5835H26.6109C26.6473 17.9224 26.8946 18.1412 27.2655 18.1412C27.5928 18.1412 27.76 17.9859 27.8473 17.76L28.4437 17.8165L28.48 17.8729C28.2837 18.4235 27.8618 18.6918 27.2509 18.6918C26.4873 18.7059 25.9346 18.1906 25.9346 17.4141ZM27.8473 17.1388C27.8109 16.8424 27.5637 16.6518 27.2364 16.6518C26.9382 16.6518 26.6837 16.8424 26.6255 17.1388H27.8473Z" fill="white"/>
        </g>
    </g>
    <defs>
        <clipPath id="clip0_7745_35898">
            <rect width="40" height="24" rx="4" fill="white"/>
        </clipPath>
        <clipPath id="clip1_7745_35898">
            <rect width="40" height="24" fill="white"/>
        </clipPath>
    </defs>
</svg>
