<svg width="40" height="24" viewBox="0 0 40 24" fill="none" xmlns="http://www.w3.org/2000/svg">
    <g clip-path="url(#clip0_7745_35896)">
        <rect width="40" height="24" rx="4" fill="#FFB3C7"/>
        <g clip-path="url(#clip1_7745_35896)">
            <path d="M37.8037 24H2.16729C0.960019 24 -0.0145264 23.0541 -0.0145264 21.8824V2.11765C-0.0145264 0.945882 0.960019 0 2.16729 0H37.8037C39.0109 0 39.9855 0.945882 39.9855 2.11765V21.8824C39.9855 23.0541 39.0037 24 37.8037 24Z" fill="#FC1154"/>
            <path d="M18.8873 7.65177V11.9718H17.0546V8.35765C17.0546 7.46824 16.3709 6.98824 15.7309 6.98824C15.1709 6.98824 14.7418 7.24941 14.32 7.82824V11.9718H12.4873V8.78824C12.2982 8.85177 12.1091 8.90118 11.9273 8.94353C11.8255 10.7788 10.4873 12.0918 8.67639 12.0918C6.78549 12.0918 5.41821 10.6729 5.41821 8.73177V5.34353H7.25094V8.72471C7.25094 9.45177 7.62185 10.3059 8.67639 10.3059C9.64367 10.3059 10.0364 9.58589 10.0946 8.90118C9.33094 8.59059 8.85821 7.84236 8.85821 6.84C8.85821 5.80941 9.65094 5.20236 10.4146 5.20236C11.3891 5.20236 11.9346 6.14824 11.9273 7.08706C11.9273 7.08706 12.1964 6.9953 12.4873 6.83294V5.34353H14.32V5.9153C14.9455 5.42118 15.5273 5.1953 16.1964 5.1953C16.9382 5.1953 17.6146 5.44941 18.1164 5.90118C18.6182 6.35294 18.8873 6.97412 18.8873 7.65177ZM19.6218 6.91059H22.7273L19.4546 10.6871V11.9647H25.2728V10.3976H21.9782L25.2728 6.57177V5.33647H19.6218V6.91059ZM31.2218 6.12C31.84 6.72706 32.16 7.58824 32.16 8.60471V9.21883H27.2291C27.36 10.0377 27.9637 10.5247 28.8509 10.5247C29.5928 10.5247 30.2328 10.2353 30.5164 9.76941L30.5237 9.76236H30.5309L31.9709 10.3906L31.9637 10.3976C31.3891 11.4706 30.24 12.0847 28.8218 12.0847C26.7782 12.0847 25.4109 10.7012 25.4109 8.64706C25.4109 7.68 25.7746 6.79059 26.4364 6.1553C27.0691 5.54118 27.92 5.20941 28.8218 5.20941C29.7964 5.21647 30.6182 5.52706 31.2218 6.12ZM30.3709 7.82824C30.2182 7.14353 29.6437 6.73412 28.8218 6.73412C28.0728 6.73412 27.4982 7.14353 27.28 7.82824H30.3709ZM36.7637 5.29412C36.5164 5.22353 36.24 5.22353 36.24 5.22353C35.6364 5.22353 35.0546 5.44941 34.56 5.87294V5.33647H32.7273V11.9647H34.56V7.85647C34.9237 7.19294 35.4764 6.82589 36.1237 6.82589C36.1237 6.82589 36.4146 6.82589 36.5964 6.88236L36.7637 5.29412ZM6.16003 17.4141C6.16003 16.5459 6.80003 16.1294 7.42549 16.1294C7.74549 16.1294 7.98549 16.2353 8.17458 16.3835V15.0424H8.8873V18.6494H8.17458V18.3953C8.0073 18.5718 7.76003 18.6988 7.38185 18.6988C6.81458 18.7059 6.16003 18.2894 6.16003 17.4141ZM8.1673 17.5341V17.2941C8.1673 16.9271 7.88367 16.7012 7.54185 16.7012C7.16367 16.7012 6.88003 16.9482 6.88003 17.4141C6.88003 17.88 7.16367 18.1271 7.54912 18.1271C7.89094 18.1271 8.1673 17.9082 8.1673 17.5341ZM9.43276 15.5082C9.43276 15.2894 9.62185 15.1059 9.8473 15.1059C10.0728 15.1059 10.2618 15.2894 10.2618 15.5082C10.2618 15.7271 10.08 15.9106 9.8473 15.9106C9.62185 15.9106 9.43276 15.7271 9.43276 15.5082ZM9.49094 18.6565V16.1859H10.2037V18.6565H9.49094ZM10.8073 18.6565V16.1859H11.52V16.4824C11.6873 16.2847 11.9273 16.1365 12.2255 16.1365C12.3273 16.1365 12.4146 16.1506 12.4728 16.1788L12.3782 16.7224L12.3418 16.7576C12.2982 16.7506 12.24 16.7294 12.1673 16.7294C11.8909 16.7294 11.6582 16.8776 11.5128 17.1741V18.6565H10.8073ZM12.6764 17.4141C12.6764 16.6447 13.2946 16.1294 13.9855 16.1294C14.7418 16.1294 15.2655 16.6024 15.2655 17.4V17.5835H13.3528C13.3891 17.9224 13.6364 18.1412 14.0073 18.1412C14.3346 18.1412 14.5018 17.9859 14.5891 17.76L15.1855 17.8165L15.2218 17.8729C15.0255 18.4235 14.6037 18.6918 13.9928 18.6918C13.2291 18.7059 12.6764 18.1906 12.6764 17.4141ZM14.5891 17.1388C14.5528 16.8424 14.3055 16.6518 13.9782 16.6518C13.68 16.6518 13.4255 16.8424 13.3673 17.1388H14.5891ZM15.6073 17.4141C15.6073 16.6518 16.1964 16.1294 16.9382 16.1294C17.6146 16.1294 18.0728 16.4894 18.1891 17.0471L18.1455 17.0965L17.5564 17.1529C17.4909 16.8988 17.2873 16.7224 16.9382 16.7224C16.5746 16.7224 16.2982 16.9624 16.2982 17.4071C16.2982 17.8518 16.5818 18.0918 16.9382 18.0918C17.2873 18.0918 17.4618 17.9294 17.5564 17.6612L18.1455 17.7176L18.1891 17.76C18.0364 18.3529 17.5928 18.6847 16.9382 18.6847C16.1964 18.7059 15.6073 18.1765 15.6073 17.4141ZM18.8437 17.9506V16.7506H18.3928V16.1788H18.8437V15.4729H18.9382L19.5564 15.6776V16.1788H20.0946V16.7506H19.5564V17.8871C19.5564 18.0494 19.6582 18.1341 19.8328 18.1341C19.9128 18.1341 19.9637 18.12 20.0364 18.0988L20.0728 18.12V18.6494C19.92 18.6847 19.8037 18.6988 19.6218 18.6988C19.1637 18.7059 18.8437 18.4729 18.8437 17.9506ZM21.5273 17.4141C21.5273 16.5459 22.1673 16.1294 22.7928 16.1294C23.1128 16.1294 23.3528 16.2353 23.5418 16.3835V15.0424H24.2546V18.6494H23.5418V18.3953C23.3746 18.5718 23.1273 18.6988 22.7491 18.6988C22.1819 18.7059 21.5273 18.2894 21.5273 17.4141ZM23.5418 17.5341V17.2941C23.5418 16.9271 23.2655 16.7012 22.9164 16.7012C22.5382 16.7012 22.2546 16.9482 22.2546 17.4141C22.2546 17.88 22.5382 18.1271 22.9237 18.1271C23.2582 18.1271 23.5418 17.9082 23.5418 17.5341ZM24.7491 17.4141C24.7491 16.6447 25.3673 16.1294 26.0582 16.1294C26.8146 16.1294 27.3382 16.6024 27.3382 17.4V17.5835H25.4255C25.4618 17.9224 25.7091 18.1412 26.08 18.1412C26.4073 18.1412 26.5746 17.9859 26.6618 17.76L27.2582 17.8165L27.2946 17.8729C27.0982 18.4235 26.6764 18.6918 26.0655 18.6918C25.3018 18.7059 24.7491 18.1906 24.7491 17.4141ZM26.6691 17.1388C26.6328 16.8424 26.3855 16.6518 26.0582 16.6518C25.76 16.6518 25.5055 16.8424 25.4473 17.1388H26.6691ZM28.5309 18.3882V18.6565H27.8182V15.0494H28.5309V16.4259C28.72 16.2706 28.9673 16.1365 29.3309 16.1365C29.9491 16.1365 30.5455 16.5529 30.5455 17.4212C30.5455 18.2894 29.9128 18.7059 29.3455 18.7059C28.96 18.7059 28.7055 18.5647 28.5309 18.3882ZM29.8182 17.4141C29.8182 16.9482 29.5346 16.7012 29.1637 16.7012C28.8146 16.7012 28.5309 16.9271 28.5309 17.2941V17.5341C28.5309 17.9082 28.8291 18.1271 29.1491 18.1271C29.5346 18.1271 29.8182 17.88 29.8182 17.4141ZM30.9528 15.5082C30.9528 15.2894 31.1418 15.1059 31.3673 15.1059C31.6 15.1059 31.7818 15.2894 31.7818 15.5082C31.7818 15.7271 31.6 15.9106 31.3673 15.9106C31.1418 15.9106 30.9528 15.7271 30.9528 15.5082ZM31.0109 18.6565V16.1859H31.7237V18.6565H31.0109ZM32.5746 17.9506V16.7506H32.1237V16.1788H32.5746V15.4729H32.6691L33.2873 15.6776V16.1788H33.8255V16.7506H33.2873V17.8871C33.2873 18.0494 33.3891 18.1341 33.5637 18.1341C33.6437 18.1341 33.6946 18.12 33.7673 18.0988L33.8037 18.12V18.6494C33.6509 18.6847 33.5346 18.6988 33.3528 18.6988C32.8946 18.7059 32.5746 18.4729 32.5746 17.9506Z" fill="white"/>
        </g>
    </g>
    <defs>
        <clipPath id="clip0_7745_35896">
            <rect width="40" height="24" rx="4" fill="white"/>
        </clipPath>
        <clipPath id="clip1_7745_35896">
            <rect width="40" height="24" fill="white"/>
        </clipPath>
    </defs>
</svg>
