<?xml version="1.0" encoding="utf-8"?>
<!-- Generator: Adobe Illustrator 24.2.0, SVG Export Plug-In . SVG Version: 6.00 Build 0)  -->
<svg version="1.1" id="Layer_1" xmlns="http://www.w3.org/2000/svg" xmlns:xlink="http://www.w3.org/1999/xlink" x="0px" y="0px"
     viewBox="0 0 55 34" style="enable-background:new 0 0 55 34;" xml:space="preserve">
<style type="text/css">
	.st0{fill:#FC1154;}
	.st1{fill:#FFFFFF;}
</style>
    <g>
	<g>
		<path class="st0" d="M51.98,34h-49c-1.66,0-3-1.34-3-3V3c0-1.66,1.34-3,3-3h49c1.66,0,3,1.34,3,3v28
			C54.98,32.66,53.63,34,51.98,34z"/>
	</g>
        <path class="st1" d="M25.97,10.84v6.12h-2.52v-5.12c0-1.26-0.94-1.94-1.82-1.94c-0.77,0-1.36,0.37-1.94,1.19v5.87h-2.52v-4.51
		c-0.26,0.09-0.52,0.16-0.77,0.22c-0.14,2.6-1.98,4.46-4.47,4.46c-2.6,0-4.48-2.01-4.48-4.76V7.57h2.52v4.79
		c0,1.03,0.51,2.24,1.96,2.24c1.33,0,1.87-1.02,1.95-1.99c-1.05-0.44-1.7-1.5-1.7-2.92c0-1.46,1.09-2.32,2.14-2.32
		c1.34,0,2.09,1.34,2.08,2.67c0,0,0.37-0.13,0.77-0.36V7.57h2.52v0.81c0.86-0.7,1.66-1.02,2.58-1.02c1.02,0,1.95,0.36,2.64,1
		C25.6,9,25.97,9.88,25.97,10.84z M26.98,9.79h4.27l-4.5,5.35l0,0v1.81h8v-2.22h-4.53l4.53-5.42l0,0V7.56h-7.77L26.98,9.79
		L26.98,9.79z M42.93,8.67c0.85,0.86,1.29,2.08,1.29,3.52v0.87h-6.78c0.18,1.16,1.01,1.85,2.23,1.85c1.02,0,1.9-0.41,2.29-1.07
		l0.01-0.01l0.01,0l1.98,0.89l-0.01,0.01c-0.79,1.52-2.37,2.39-4.32,2.39c-2.81,0-4.69-1.96-4.69-4.87c0-1.37,0.5-2.63,1.41-3.53
		c0.87-0.87,2.04-1.34,3.28-1.34C40.97,7.39,42.1,7.83,42.93,8.67z M41.76,11.09c-0.21-0.97-1-1.55-2.13-1.55
		c-1.03,0-1.82,0.58-2.12,1.55H41.76z M50.55,7.5c-0.34-0.1-0.72-0.1-0.72-0.1c-0.83,0-1.63,0.32-2.31,0.92V7.56H45v9.39h2.52v-5.82
		c0.5-0.94,1.26-1.46,2.15-1.46c0,0,0.4,0,0.65,0.08L50.55,7.5z M15.87,21.97c0-0.31,0.26-0.57,0.57-0.57
		c0.31,0,0.57,0.26,0.57,0.57c0,0.31-0.25,0.57-0.57,0.57C16.13,22.54,15.87,22.28,15.87,21.97z M15.94,26.43v-3.5h0.98v3.5H15.94z
		 M17.76,26.43v-3.5h0.98v0.46c0.27-0.29,0.66-0.53,1.16-0.53c0.78,0,1.21,0.5,1.21,1.18v2.4h-0.98v-2.11c0-0.41-0.2-0.62-0.57-0.62
		c-0.34,0-0.66,0.24-0.83,0.53v2.21H17.76z M22.87,26.43l-1.34-3.5h1.06l0.71,1.93l0.09,0.62h0.04l0.09-0.62l0.71-1.93h1.06
		l-1.34,3.5H22.87z M25.51,24.67c0-1.04,0.79-1.82,1.91-1.82c1.12,0,1.91,0.78,1.91,1.82s-0.79,1.82-1.91,1.82
		C26.3,26.5,25.51,25.72,25.51,24.67z M28.34,24.67c0-0.61-0.4-0.97-0.93-0.97s-0.92,0.36-0.92,0.97s0.39,0.97,0.92,0.97
		S28.34,25.28,28.34,24.67z M29.9,21.97c0-0.31,0.26-0.57,0.57-0.57c0.32,0,0.57,0.26,0.57,0.57c0,0.31-0.25,0.57-0.57,0.57
		C30.15,22.54,29.9,22.28,29.9,21.97z M29.97,26.43v-3.5h0.98v3.5H29.97z M31.6,24.67c0-1.08,0.81-1.82,1.83-1.82
		c0.93,0,1.56,0.51,1.72,1.3l-0.06,0.07l-0.81,0.08c-0.09-0.36-0.37-0.61-0.85-0.61c-0.5,0-0.88,0.34-0.88,0.97s0.38,0.97,0.88,0.97
		c0.48,0,0.72-0.23,0.85-0.61l0.81,0.08l0.06,0.06c-0.21,0.84-0.82,1.31-1.72,1.31C32.42,26.5,31.6,25.75,31.6,24.67z M35.66,24.67
		c0-1.09,0.85-1.82,1.8-1.82c1.04,0,1.76,0.67,1.76,1.8v0.26h-2.63c0.05,0.48,0.39,0.79,0.9,0.79c0.45,0,0.68-0.22,0.8-0.54
		l0.82,0.08l0.05,0.08c-0.27,0.78-0.85,1.16-1.69,1.16C36.42,26.5,35.66,25.77,35.66,24.67z M38.29,24.28
		c-0.05-0.42-0.39-0.69-0.84-0.69c-0.41,0-0.76,0.27-0.84,0.69H38.29z"/>
</g>
</svg>