<svg xmlns="http://www.w3.org/2000/svg" width="21" height="24" viewBox="0 0 21 24">
    <g fill="none" fill-rule="evenodd">
        <path fill="#253D80" d="M5.812 23.153l.415-2.634-.924-.022H.891L3.957 1.054a.26.26 0 0 1 .25-.213h7.434c2.47 0 4.174.514 5.064 1.529.394.43.673.954.811 1.52.13.575.13 1.26 0 2.098l-.009.06v.536l.417.238c.319.161.605.38.846.643.373.435.614.968.695 1.535a6.494 6.494 0 0 1-.098 2.23 7.874 7.874 0 0 1-.913 2.524 5.193 5.193 0 0 1-1.448 1.586c-.59.411-1.251.71-1.95.88a9.753 9.753 0 0 1-2.436.283h-.58c-.857 0-1.587.622-1.721 1.468l-.043.238-.733 4.644-.034.17a.14.14 0 0 1-.046.1.12.12 0 0 1-.076.028l-3.575.002z"/>
        <path fill="#189BD7" d="M18.33 6.11c-.022.143-.048.288-.077.437-.98 5.037-4.337 6.782-8.624 6.782H7.447a1.062 1.062 0 0 0-1.044.899l-1.116 7.086-.317 2.01a.558.558 0 0 0 .551.653h3.87a.933.933 0 0 0 .92-.783l.038-.197.729-4.625.047-.261a.931.931 0 0 1 .92-.783h.578c3.752 0 6.688-1.523 7.546-5.93.359-1.841.172-3.378-.776-4.459-.3-.339-.66-.62-1.063-.828z"/>
        <path fill="#242E65" d="M17.303 5.701a7.998 7.998 0 0 0-.954-.211 12.106 12.106 0 0 0-1.924-.142h-5.83a.929.929 0 0 0-.914.782l-1.24 7.858-.043.23c.08-.516.522-.897 1.043-.9h2.182c4.288 0 7.644-1.74 8.625-6.782.03-.149.055-.293.077-.436a5.32 5.32 0 0 0-.808-.34l-.214-.059z"/>
        <path fill="#253D80" d="M7.675 6.13a.937.937 0 0 1 .925-.785h5.83c.644-.004 1.287.042 1.924.14.168.027.333.058.492.092.159.034.313.076.463.12l.22.068c.278.091.547.205.806.34.292-1.86 0-3.13-1.008-4.276C16.217.565 14.215.025 11.652.025H4.217a1.063 1.063 0 0 0-1.044.898L.057 20.571a.638.638 0 0 0 .63.738h4.594l1.153-7.316 1.24-7.863z"/>
    </g>
</svg>
