<svg width="40" height="24" viewBox="0 0 40 24" fill="none" xmlns="http://www.w3.org/2000/svg">
    <rect x="0.5" y="0.5" width="39" height="23" rx="3.5" fill="white"/>
    <rect x="0.5" y="0.5" width="39" height="23" rx="3.5" stroke="#DBDCE0"/>
    <g clip-path="url(#clip0_5986_42750)">
        <path d="M13.872 9.69653C13.802 9.69653 13.7426 9.74434 13.7317 9.80945L12.9217 14.6439C12.9188 14.6616 12.9199 14.6796 12.9251 14.6968C12.9303 14.714 12.9393 14.73 12.9517 14.7436C12.964 14.7571 12.9793 14.7681 12.9966 14.7755C13.0138 14.783 13.0326 14.7869 13.0516 14.7869H14.0122C14.082 14.7869 14.1416 14.739 14.1525 14.674L14.3905 13.2543C14.4013 13.1893 14.4608 13.1414 14.5308 13.1414H15.4041C16.4245 13.1414 17.2907 12.4407 17.4489 11.4911C17.6085 10.5336 16.8137 9.69861 15.6871 9.69653H13.872ZM14.8058 10.7758H15.5045C16.0798 10.7758 16.2671 11.0952 16.2079 11.4485C16.1486 11.8026 15.8577 12.0634 15.3012 12.0634H14.59L14.8058 10.7758ZM19.4026 11.1044C19.1601 11.1053 18.881 11.152 18.5676 11.2749C17.8489 11.5568 17.5038 12.1395 17.3572 12.5643C17.3572 12.5643 16.8907 13.8604 17.9447 14.5725C17.9447 14.5725 18.9222 15.258 20.0226 14.5303L20.0037 14.6439C20.0007 14.6616 20.0019 14.6796 20.007 14.6968C20.0122 14.714 20.0213 14.7299 20.0336 14.7435C20.0459 14.7571 20.0612 14.768 20.0784 14.7755C20.0956 14.783 20.1144 14.7869 20.1334 14.7869H21.0452C21.1152 14.7869 21.1747 14.739 21.1856 14.674L21.7403 11.3633C21.7432 11.3456 21.7421 11.3276 21.737 11.3104C21.7318 11.2932 21.7228 11.2772 21.7104 11.2636C21.6981 11.25 21.6828 11.2391 21.6656 11.2316C21.6483 11.2241 21.6296 11.2202 21.6106 11.2202H20.6987C20.6287 11.2202 20.5692 11.2681 20.5583 11.3331L20.5285 11.5113C20.5285 11.5113 20.1304 11.1019 19.4026 11.1044ZM19.4324 12.1501C19.5371 12.1501 19.6329 12.1637 19.7188 12.1897C20.1123 12.3086 20.3354 12.6643 20.2708 13.0499C20.1912 13.5247 19.7775 13.8743 19.2469 13.8743C19.1423 13.8743 19.0465 13.8608 18.9605 13.8348C18.5671 13.716 18.3426 13.3602 18.4072 12.9746C18.4868 12.4998 18.9018 12.1501 19.4324 12.1501Z" fill="#003087"/>
        <path d="M27.0036 9.69653C26.9336 9.69653 26.8741 9.74434 26.8632 9.80945L26.0532 14.6439C26.0503 14.6616 26.0514 14.6796 26.0566 14.6968C26.0618 14.714 26.0709 14.73 26.0832 14.7436C26.0956 14.7571 26.1109 14.7681 26.1281 14.7755C26.1454 14.783 26.1641 14.7869 26.1831 14.7869H27.1437C27.2136 14.7869 27.2731 14.739 27.2841 14.674L27.522 13.2543C27.5328 13.1893 27.5924 13.1414 27.6623 13.1414H28.5357C29.5561 13.1414 30.4222 12.4407 30.5803 11.4911C30.7399 10.5336 29.9452 9.69861 28.8187 9.69653H27.0036ZM27.9373 10.7758H28.6361C29.2113 10.7758 29.3986 11.0952 29.3394 11.4485C29.2802 11.8026 28.9893 12.0634 28.4328 12.0634H27.7216L27.9373 10.7758ZM32.534 11.1044C32.2915 11.1053 32.0124 11.152 31.6991 11.2749C30.9803 11.5568 30.6352 12.1395 30.4886 12.5643C30.4886 12.5643 30.0223 13.8604 31.0763 14.5725C31.0763 14.5725 32.0537 15.258 33.1542 14.5303L33.1352 14.6439C33.1322 14.6616 33.1334 14.6796 33.1386 14.6968C33.1438 14.714 33.1528 14.73 33.1652 14.7436C33.1775 14.7571 33.1928 14.7681 33.2101 14.7755C33.2273 14.783 33.2461 14.7869 33.2651 14.7869H34.1769C34.2469 14.7869 34.3063 14.739 34.3172 14.674L34.8721 11.3633C34.8751 11.3456 34.874 11.3276 34.8688 11.3103C34.8636 11.2931 34.8546 11.2771 34.8422 11.2635C34.8299 11.2499 34.8145 11.239 34.7973 11.2315C34.78 11.224 34.7612 11.2202 34.7422 11.2202H33.8303C33.7603 11.2202 33.7008 11.2681 33.69 11.3331L33.6602 11.5113C33.6602 11.5113 33.2618 11.1019 32.534 11.1044ZM32.5639 12.1501C32.6686 12.1501 32.7643 12.1637 32.8503 12.1897C33.2437 12.3086 33.4668 12.6643 33.4022 13.0499C33.3226 13.5247 32.9089 13.8743 32.3783 13.8743C32.2737 13.8743 32.1779 13.8608 32.0919 13.8348C31.6986 13.716 31.4741 13.3602 31.5386 12.9746C31.6182 12.4998 32.0333 12.1501 32.5639 12.1501Z" fill="#0070E0"/>
        <path d="M22.173 11.2202C22.1007 11.2202 22.0493 11.2866 22.0714 11.3513L23.0711 14.2711L22.1672 15.647C22.1233 15.7138 22.1743 15.8001 22.2577 15.8001H23.3261C23.3567 15.8001 23.3867 15.7926 23.4133 15.7785C23.4399 15.7644 23.4622 15.744 23.478 15.7194L26.2701 11.3723C26.3129 11.3055 26.2617 11.2201 26.1788 11.2201H25.1105C25.0797 11.2201 25.0493 11.2277 25.0226 11.2421C24.9958 11.2565 24.9734 11.2772 24.9577 11.3022L23.8587 13.0485L23.3008 11.3151C23.2826 11.2587 23.2273 11.2201 23.1648 11.2201L22.173 11.2202Z" fill="#003087"/>
        <path d="M35.9081 9.69653C35.8383 9.69653 35.7787 9.74444 35.7678 9.80945L34.9576 14.6437C34.9546 14.6614 34.9558 14.6795 34.9609 14.6967C34.9661 14.7139 34.9752 14.7299 34.9875 14.7435C34.9999 14.7571 35.0152 14.768 35.0325 14.7755C35.0497 14.783 35.0685 14.7869 35.0875 14.7869H36.0481C36.118 14.7869 36.1775 14.739 36.1884 14.674L36.9984 9.83949C37.0014 9.82185 37.0002 9.80382 36.995 9.78663C36.9899 9.76944 36.9808 9.75351 36.9685 9.73993C36.9562 9.72635 36.9409 9.71544 36.9237 9.70795C36.9064 9.70046 36.8877 9.69656 36.8687 9.69653H35.9081Z" fill="#0070E0"/>
        <path d="M5.86407 9.69653C5.80219 9.69658 5.74236 9.7174 5.69533 9.75524C5.64829 9.79308 5.61713 9.84547 5.60746 9.90299L5.18109 12.4481C5.20097 12.3293 5.30979 12.2417 5.43769 12.2417H6.68709C7.94452 12.2417 9.0115 11.3783 9.20647 10.2084C9.22098 10.121 9.2292 10.0329 9.23107 9.94447C8.91152 9.78677 8.53614 9.69653 8.12483 9.69653H5.86407Z" fill="#001C64"/>
        <path d="M9.23103 9.94456C9.22916 10.033 9.22094 10.1211 9.20643 10.2085C9.01147 11.3784 7.94439 12.2418 6.68706 12.2418H5.43766C5.30986 12.2418 5.20093 12.3293 5.18105 12.4482L4.78901 14.787L4.54345 16.2542C4.53866 16.2825 4.54046 16.3115 4.54872 16.3392C4.55699 16.3668 4.57153 16.3924 4.59133 16.4142C4.61114 16.4361 4.63574 16.4536 4.66344 16.4656C4.69113 16.4776 4.72127 16.4838 4.75177 16.4838H6.10789C6.16976 16.4838 6.22959 16.4629 6.27663 16.4251C6.32366 16.3873 6.35481 16.3349 6.36449 16.2773L6.72169 14.145C6.73137 14.0875 6.76256 14.0351 6.80963 13.9972C6.85671 13.9594 6.91659 13.9386 6.9785 13.9386H7.77693C9.03436 13.9386 10.1013 13.0752 10.2963 11.9053C10.4347 11.0749 9.99041 10.3193 9.23103 9.94456Z" fill="#0070E0"/>
        <path d="M4.3234 8C4.1956 8 4.08667 8.0875 4.0668 8.20627L3.00262 14.5574C2.98244 14.6779 3.08143 14.787 3.21114 14.787H4.78923L5.18106 12.4482L5.60743 9.90309C5.61711 9.84556 5.64827 9.79318 5.6953 9.75533C5.74233 9.71749 5.80216 9.69668 5.86404 9.69663H8.1248C8.53622 9.69663 8.91149 9.78696 9.23104 9.94457C9.25293 8.8794 8.31906 8 7.03513 8H4.3234Z" fill="#003087"/>
    </g>
    <defs>
        <clipPath id="clip0_5986_42750">
            <rect width="34" height="8.5" fill="white" transform="translate(3 8)"/>
        </clipPath>
    </defs>
</svg>
