<svg width="40" height="24" viewBox="0 0 40 24" fill="none" xmlns="http://www.w3.org/2000/svg">
    <rect x="0.5" y="0.5" width="39" height="23" rx="3.5" fill="white"/>
    <rect x="0.5" y="0.5" width="39" height="23" rx="3.5" stroke="#DBDCE0"/>
    <g clip-path="url(#clip0_7742_734)">
        <path d="M32.9408 6.93272L31.2731 6.93213C31.0912 6.93213 30.9437 7.07988 30.9436 7.26217L30.9435 7.4953H31.0592C31.8122 7.4953 32.0923 7.61976 32.0923 8.3071V9.28422L32.9399 9.28451C33.1218 9.28461 33.2692 9.13696 33.2693 8.95467L33.2699 7.26285C33.2699 7.08057 33.1226 6.93281 32.9408 6.93272ZM23.8391 9.55935C23.7621 9.46253 23.6166 9.44914 23.4707 9.44914H23.3613C22.9978 9.44914 22.8552 9.56149 22.7747 9.91103L21.7646 14.1185C21.6385 14.6356 21.4614 14.7301 21.1582 14.7301C20.7871 14.7301 20.6385 14.6413 20.4905 14.1165L19.3464 9.90899C19.2517 9.55664 19.112 9.44914 18.7484 9.44914H18.651C18.5042 9.44914 18.358 9.46273 18.283 9.56081C18.2079 9.65899 18.2332 9.80557 18.272 9.94964L19.4282 14.1936C19.6451 15.0058 19.9029 15.6781 20.8662 15.6781C21.0459 15.6781 21.2123 15.6531 21.3506 15.6063C21.0584 16.527 20.7612 16.9331 19.8848 17.0234C19.7069 17.0382 19.5913 17.0637 19.527 17.1503C19.4601 17.24 19.4753 17.3685 19.4992 17.4833L19.5233 17.5922C19.5755 17.8438 19.6647 17.9998 19.9466 17.9998C19.9763 17.9998 20.0081 17.9983 20.0423 17.9953C21.351 17.9095 22.0522 17.2034 22.4625 15.5584L23.8626 9.94663C23.8958 9.80266 23.9158 9.65608 23.8391 9.55935ZM16.7968 12.7919V13.6413C16.7968 14.3337 16.5406 14.7345 15.2311 14.7345C14.366 14.7345 13.9454 14.4208 13.9454 13.7755C13.9454 13.0677 14.3673 12.7919 15.4502 12.7919H16.7968ZM15.2311 9.27054C14.5172 9.27054 14.0698 9.36028 13.9001 9.39433C13.5997 9.45972 13.4741 9.54238 13.4741 9.88474V9.98233C13.4741 10.1165 13.4939 10.2094 13.5364 10.2748C13.5859 10.351 13.6657 10.3896 13.7735 10.3896C13.8261 10.3896 13.8871 10.3808 13.9598 10.3625C14.1314 10.3196 14.6799 10.2307 15.2798 10.2307C16.3573 10.2307 16.7968 10.5298 16.7968 11.2629V11.9172H15.438C13.6913 11.9172 12.8777 12.5076 12.8777 13.7755C12.8777 15.0052 13.7178 15.6824 15.2433 15.6824C17.0561 15.6824 17.8645 15.0643 17.8645 13.6779V11.2629C17.8645 9.92228 17.0032 9.27054 15.2311 9.27054ZM11.8069 10.0839C11.8069 11.0935 11.5496 11.6407 10.1925 11.6407H8.10351V9.035C8.10351 8.67372 8.23759 8.53935 8.59812 8.53935H10.1925C11.2149 8.53935 11.8069 8.79217 11.8069 10.0839ZM10.1925 7.49384H8.39113C7.42853 7.49384 6.99927 7.924 6.99927 8.8887V15.0845C6.99927 15.4571 7.11864 15.5767 7.49059 15.5767H7.61228C7.98414 15.5767 8.10351 15.4571 8.10351 15.0845V12.674H10.1925C12.0472 12.674 12.9111 11.8509 12.9111 10.0839C12.9111 8.3168 12.0472 7.49384 10.1925 7.49384ZM33.1031 5.18667L32.2619 5.18638C32.1701 5.18628 32.0958 5.11178 32.0958 5.01981L32.0961 4.16638C32.0962 4.07441 32.1706 4 32.2623 4L33.1035 4.00029C33.1953 4.00029 33.2696 4.0749 33.2696 4.16677L33.2693 5.02019C33.2692 5.11216 33.1949 5.18667 33.1031 5.18667ZM34.7536 6.93378L33.5149 6.9333C33.3799 6.9333 33.2704 6.82348 33.2705 6.68815L33.2709 5.43163C33.271 5.2962 33.3806 5.18647 33.5156 5.18647L34.7541 5.18696C34.8893 5.18696 34.9988 5.29678 34.9988 5.43211L34.9983 6.68873C34.9983 6.82406 34.8887 6.93378 34.7536 6.93378ZM31.2722 9.28403C31.0903 9.28403 30.9429 9.13628 30.943 8.95399L30.9435 7.4953H30.8221C30.0691 7.4953 29.789 7.61986 29.789 8.3072V9.91559C29.7889 9.91898 29.7886 9.92238 29.7886 9.92577V10.2783C29.7884 10.2905 29.7876 10.3019 29.7876 10.3145V12.5618C29.7876 12.8363 29.7348 13.0548 29.6259 13.2246C29.4206 13.5417 29.0141 13.6857 28.3637 13.6866C27.7136 13.6857 27.3072 13.5418 27.1018 13.225C26.9926 13.0551 26.9398 12.8365 26.9398 12.5618V10.3145C26.9398 10.3019 26.9391 10.2905 26.9389 10.2783V9.92577C26.9389 9.92238 26.9385 9.91898 26.9384 9.91559V8.3072C26.9384 7.61986 26.6583 7.4953 25.9053 7.4953H25.6682C24.9151 7.4953 24.6351 7.61986 24.6351 8.3072V12.5618C24.6351 13.2463 24.7892 13.8257 25.0868 14.2928C25.6615 15.198 26.775 15.68 28.3579 15.68C28.3598 15.68 28.3617 15.6799 28.3637 15.6799C28.3657 15.6799 28.3675 15.68 28.3696 15.68C29.9525 15.68 31.0659 15.198 31.6407 14.2928C31.9383 13.8257 32.0923 13.2463 32.0923 12.5618V9.28422L31.2722 9.28403Z" fill="#A6C307"/>
    </g>
    <defs>
        <clipPath id="clip0_7742_734">
            <rect width="28" height="14" fill="white" transform="translate(7 4)"/>
        </clipPath>
    </defs>
</svg>
