<svg width="100" height="100" viewBox="0 0 50 51" fill="none" xmlns="http://www.w3.org/2000/svg">
    <rect x="9" y="9.33984" width="32" height="32" rx="3" fill="#FFD412"/>
    <path fill-rule="evenodd" clip-rule="evenodd" d="M28.0321 17.1953H34.549L33.5144 22.0992H38.3253L37.0468 28.243H32.2344L31.3207 32.8353H26.022L26.3264 31.221H30.0429L30.9549 26.6905H35.7676L36.3766 23.6504H31.5645L32.5379 18.8096H29.3109L28.3365 23.6504H26.6915L28.0321 17.1953Z" fill="#E5231A"/>
    <path fill-rule="evenodd" clip-rule="evenodd" d="M25.102 32.8352L25.7827 29.0586H13.7532L13.0718 32.8352H25.102Z" fill="white"/>
    <path fill-rule="evenodd" clip-rule="evenodd" d="M16.596 22.5156H18.3361C19.855 22.5156 21.1217 22.9664 20.7744 24.6428C20.4333 26.2873 19.1423 26.8676 17.6554 26.8676H17.0541L16.4992 29.5439H15.1392L16.5964 22.5156H16.596ZM17.2813 25.7719H17.7878C18.4839 25.7719 19.1315 25.5451 19.2983 24.7401C19.4725 23.9013 18.9249 23.6444 18.2288 23.6444H17.7223L17.2813 25.7719V25.7719ZM22.2191 22.5156H26.079L25.8449 23.6444H23.3774L23.0231 25.3523H25.3642L25.13 26.4811H22.789L22.1543 29.5435H20.7618L22.2191 22.5156Z" fill="#060B03"/>
</svg>