<svg width="40" height="24" viewBox="0 0 40 24" fill="none" xmlns="http://www.w3.org/2000/svg">
    <rect width="40" height="24" rx="4" fill="#FFD412"/>
    <path d="M28.9375 1H11.0625C9.92341 1 9 1.92341 9 3.0625V20.9375C9 22.0766 9.92341 23 11.0625 23H28.9375C30.0766 23 31 22.0766 31 20.9375V3.0625C31 1.92341 30.0766 1 28.9375 1Z" fill="#FFD412"/>
    <path fill-rule="evenodd" clip-rule="evenodd" d="M22.0846 6.40063H26.5649L25.8537 9.77207H29.1612L28.2822 13.9959H24.9737L24.3455 17.1531H20.7026L20.9119 16.0433H23.467L24.094 12.9286H27.4027L27.8214 10.8385H24.5131L25.1823 7.51047H22.9638L22.2939 10.8385H21.1629L22.0846 6.40063Z" fill="#E5231A"/>
    <path fill-rule="evenodd" clip-rule="evenodd" d="M20.0701 17.1531L20.5381 14.5566H12.2678L11.7993 17.1531H20.0701Z" fill="white"/>
    <path fill-rule="evenodd" clip-rule="evenodd" d="M14.2223 10.0583H15.4186C16.4628 10.0583 17.3337 10.3683 17.0949 11.5208C16.8604 12.6514 15.9728 13.0503 14.9506 13.0503H14.5372L14.1557 14.8903H13.2207L14.2225 10.0583H14.2223ZM14.6934 12.2971H15.0416C15.5202 12.2971 15.9654 12.1411 16.0801 11.5877C16.1998 11.011 15.8234 10.8344 15.3448 10.8344H14.9966L14.6934 12.2971ZM18.0881 10.0583H20.7418L20.5809 10.8344H18.8845L18.6409 12.0086H20.2504L20.0894 12.7846H18.4799L18.0436 14.89H17.0862L18.0881 10.0583Z" fill="#060B03"/>
</svg>
