<svg width="40" height="24" viewBox="0 0 40 24" fill="none" xmlns="http://www.w3.org/2000/svg">
    <g clip-path="url(#clip0_7745_35899)">
        <rect width="40" height="24" rx="4" fill="#FFB3C7"/>
        <g clip-path="url(#clip1_7745_35899)">
            <path d="M37.8037 24H2.16729C0.960019 24 -0.0145264 23.0541 -0.0145264 21.8824V2.11765C-0.0145264 0.945882 0.960019 0 2.16729 0H37.8037C39.0109 0 39.9855 0.945882 39.9855 2.11765V21.8824C39.9855 23.0541 39.0037 24 37.8037 24Z" fill="#FC1154"/>
            <path d="M18.8873 7.65176V11.9718H17.0546V8.35765C17.0546 7.46823 16.3709 6.98823 15.7309 6.98823C15.1709 6.98823 14.7418 7.24941 14.32 7.82823V11.9718H12.4873V8.78823C12.2982 8.85176 12.1091 8.90118 11.9273 8.94353C11.8255 10.7788 10.4873 12.0918 8.67639 12.0918C6.78549 12.0918 5.41821 10.6729 5.41821 8.73176V5.34353H7.25094V8.7247C7.25094 9.45176 7.62185 10.3059 8.67639 10.3059C9.64367 10.3059 10.0364 9.58588 10.0946 8.90118C9.33094 8.59059 8.85821 7.84235 8.85821 6.84C8.85821 5.80941 9.65094 5.20235 10.4146 5.20235C11.3891 5.20235 11.9346 6.14823 11.9273 7.08706C11.9273 7.08706 12.1964 6.99529 12.4873 6.83294V5.34353H14.32V5.91529C14.9455 5.42118 15.5273 5.19529 16.1964 5.19529C16.9382 5.19529 17.6146 5.44941 18.1164 5.90118C18.6182 6.35294 18.8873 6.97412 18.8873 7.65176ZM19.6218 6.91059H22.7273L19.4546 10.6871V11.9647H25.2728V10.3976H21.9782L25.2728 6.57176V5.33647H19.6218V6.91059ZM31.2218 6.12C31.84 6.72706 32.16 7.58823 32.16 8.6047V9.21882H27.2291C27.36 10.0376 27.9637 10.5247 28.8509 10.5247C29.5928 10.5247 30.2328 10.2353 30.5164 9.76941L30.5237 9.76235H30.5309L31.9709 10.3906L31.9637 10.3976C31.3891 11.4706 30.24 12.0847 28.8218 12.0847C26.7782 12.0847 25.4109 10.7012 25.4109 8.64706C25.4109 7.68 25.7746 6.79059 26.4364 6.15529C27.0691 5.54118 27.92 5.20941 28.8218 5.20941C29.7964 5.21647 30.6182 5.52706 31.2218 6.12ZM30.3709 7.82823C30.2182 7.14353 29.6437 6.73412 28.8218 6.73412C28.0728 6.73412 27.4982 7.14353 27.28 7.82823H30.3709ZM36.7637 5.29412C36.5164 5.22353 36.24 5.22353 36.24 5.22353C35.6364 5.22353 35.0546 5.44941 34.56 5.87294V5.33647H32.7273V11.9647H34.56V7.85647C34.9237 7.19294 35.4764 6.82588 36.1237 6.82588C36.1237 6.82588 36.4146 6.82588 36.5964 6.88235L36.7637 5.29412ZM5.41821 19.6447V16.1859H6.13094V16.4541C6.31276 16.2776 6.5673 16.1365 6.95276 16.1365C7.52003 16.1365 8.14549 16.5529 8.14549 17.4212C8.14549 18.2894 7.49094 18.7059 6.86549 18.7059C6.5673 18.7059 6.30549 18.6 6.13094 18.4518V19.6447H5.41821ZM7.41821 17.4141C7.41821 16.9482 7.13458 16.7012 6.74912 16.7012C6.4073 16.7012 6.13094 16.9271 6.13094 17.2941V17.5341C6.13094 17.9012 6.41458 18.1271 6.76367 18.1271C7.13458 18.1271 7.41821 17.88 7.41821 17.4141ZM8.64003 18.6565V16.1859H9.35276V16.4824C9.52003 16.2847 9.76003 16.1365 10.0582 16.1365C10.16 16.1365 10.2473 16.1506 10.3055 16.1788L10.2109 16.7224L10.1746 16.7576C10.1309 16.7506 10.0728 16.7294 10 16.7294C9.72367 16.7294 9.49094 16.8776 9.34549 17.1741V18.6565H8.64003ZM10.5091 17.4141C10.5091 16.6447 11.1273 16.1294 11.8182 16.1294C12.5746 16.1294 13.0982 16.6024 13.0982 17.4V17.5835H11.1855C11.2218 17.9224 11.4691 18.1412 11.84 18.1412C12.1673 18.1412 12.3346 17.9859 12.4218 17.76L13.0182 17.8165L13.0546 17.8729C12.8582 18.4235 12.4364 18.6918 11.8255 18.6918C11.0618 18.7059 10.5091 18.1906 10.5091 17.4141ZM12.4218 17.1388C12.3855 16.8424 12.1382 16.6518 11.8109 16.6518C11.5128 16.6518 11.2582 16.8424 11.2 17.1388H12.4218ZM13.5709 19.6447V16.1859H14.2837V16.4541C14.4655 16.2776 14.72 16.1365 15.1055 16.1365C15.6728 16.1365 16.2982 16.5529 16.2982 17.4212C16.2982 18.2894 15.6509 18.7059 15.0182 18.7059C14.72 18.7059 14.4582 18.6 14.2837 18.4518V19.6447H13.5709ZM15.5709 17.4141C15.5709 16.9482 15.2873 16.7012 14.9018 16.7012C14.56 16.7012 14.2837 16.9271 14.2837 17.2941V17.5341C14.2837 17.9012 14.5673 18.1271 14.9164 18.1271C15.2873 18.1271 15.5709 17.88 15.5709 17.4141ZM16.6618 17.4141C16.6618 16.5459 17.3018 16.1294 17.9273 16.1294C18.2473 16.1294 18.4873 16.2353 18.6764 16.3835V16.1788H19.3891V18.6494H18.6764V18.3953C18.5091 18.5718 18.2618 18.6988 17.8837 18.6988C17.3164 18.7059 16.6618 18.2894 16.6618 17.4141ZM18.6764 17.5341V17.2941C18.6764 16.9271 18.3928 16.7012 18.0509 16.7012C17.6728 16.7012 17.3891 16.9482 17.3891 17.4141C17.3891 17.88 17.6728 18.1271 18.0582 18.1271C18.3928 18.1271 18.6764 17.9082 18.6764 17.5341ZM20.3709 19.6447L20.8073 18.5929L19.76 16.1859H20.5746L21.0909 17.4141L21.12 17.7741H21.1637L21.8109 16.1859H22.5673L21.12 19.6447H20.3709ZM22.9673 18.6565V16.1859H23.68V16.4753C23.8691 16.2635 24.1164 16.1365 24.4364 16.1365C24.7564 16.1365 24.96 16.2706 25.0764 16.4824C25.3018 16.2494 25.5782 16.1365 25.8909 16.1365C26.4218 16.1365 26.7128 16.4471 26.7128 16.9341V18.6565H26V17.0824C26 16.8635 25.9055 16.7294 25.6728 16.7294C25.4618 16.7294 25.3091 16.8494 25.1928 17.04V18.6565H24.48V17.0894C24.48 16.8706 24.3928 16.7294 24.1673 16.7294C23.9564 16.7294 23.7818 16.8776 23.6873 17.0682V18.6565H22.9673ZM27.1855 17.4141C27.1855 16.6447 27.8037 16.1294 28.4946 16.1294C29.2509 16.1294 29.7746 16.6024 29.7746 17.4V17.5835H27.8546C27.8909 17.9224 28.1382 18.1412 28.5091 18.1412C28.8364 18.1412 29.0037 17.9859 29.0909 17.76L29.6873 17.8165L29.7237 17.8729C29.5273 18.4235 29.1055 18.6918 28.4946 18.6918C27.7382 18.7059 27.1855 18.1906 27.1855 17.4141ZM29.0982 17.1388C29.0618 16.8424 28.8146 16.6518 28.4873 16.6518C28.1891 16.6518 27.9346 16.8424 27.8764 17.1388H29.0982ZM30.2473 18.6565V16.1859H30.96V16.5106C31.1564 16.3059 31.44 16.1365 31.8037 16.1365C32.3709 16.1365 32.6837 16.4894 32.6837 16.9694V18.6635H31.9709V17.1741C31.9709 16.8847 31.8255 16.7365 31.5564 16.7365C31.3091 16.7365 31.0764 16.9059 30.9528 17.1106V18.6706H30.2473V18.6565ZM33.4546 17.9506V16.7506H33.0037V16.1788H33.4546V15.4729H33.5491L34.1673 15.6776V16.1788H34.7055V16.7506H34.1673V17.8871C34.1673 18.0494 34.2691 18.1341 34.4437 18.1341C34.5237 18.1341 34.5746 18.12 34.6473 18.0988L34.6837 18.12V18.6494C34.5309 18.6847 34.4146 18.6988 34.2328 18.6988C33.7746 18.7059 33.4546 18.4729 33.4546 17.9506Z" fill="white"/>
        </g>
    </g>
    <defs>
        <clipPath id="clip0_7745_35899">
            <rect width="40" height="24" rx="4" fill="white"/>
        </clipPath>
        <clipPath id="clip1_7745_35899">
            <rect width="40" height="24" fill="white"/>
        </clipPath>
    </defs>
</svg>
