<svg width="40" height="24" viewBox="0 0 40 24" fill="none" xmlns="http://www.w3.org/2000/svg">
    <rect x="0.5" y="0.5" width="39" height="23" rx="3.5" fill="white"/>
    <rect x="0.5" y="0.5" width="39" height="23" rx="3.5" stroke="#DBDCE0"/>
    <path fill-rule="evenodd" clip-rule="evenodd" d="M10.8266 13.415L13.4333 13.4117L13.3383 14.005L11.1583 16.0867L12.9883 16.0833L12.8816 16.7233L10.1866 16.725L10.3 16.0633L12.39 14.0617H10.7216L10.8266 13.415Z" fill="#D13239"/>
    <path fill-rule="evenodd" clip-rule="evenodd" d="M7.975 12.4C7.91834 12.34 7.83667 12.2933 7.74667 12.2567C7.65167 12.22 7.54667 12.1933 7.44334 12.175C7.31334 12.1517 7.18667 12.1417 7.09667 12.1383C7.01334 12.135 6.96 12.135 6.96 12.135H5.82H4.97167L4.21167 16.725H4.92167L5.20167 15.025L6.57834 15.0317C6.57834 15.0317 7.115 15.0533 7.495 14.8517C7.875 14.65 7.97667 14.1917 7.97667 14.1917C7.97667 14.1917 8.01834 14.0217 8.05334 13.815C8.09167 13.5867 8.13 13.3133 8.15 13.1683C8.15834 13.105 8.16334 13.065 8.16334 13.065C8.16334 13.065 8.17334 13.0183 8.17334 12.945C8.175 12.8433 8.16 12.69 8.08 12.5433C8.05167 12.4917 8.01834 12.445 7.975 12.4ZM7.42834 13.21C7.42834 13.2183 7.365 13.5867 7.28167 14.0233C7.25 14.19 7.12167 14.28 6.975 14.3117C6.73167 14.3633 6.47 14.3533 6.47 14.3533L5.32 14.35L5.57334 12.825L6.615 12.8283C6.615 12.8283 6.685 12.8267 6.78334 12.8283C6.895 12.83 7.04334 12.835 7.165 12.8517C7.27 12.865 7.35334 12.8867 7.38 12.92C7.415 12.9633 7.42834 13.02 7.43334 13.07C7.44 13.1433 7.42834 13.205 7.42834 13.21Z" fill="#D13239"/>
    <path fill-rule="evenodd" clip-rule="evenodd" d="M16.9683 12.135H17.6517L16.8867 16.725L16.2017 16.7233L16.9683 12.135Z" fill="#D13239"/>
    <path fill-rule="evenodd" clip-rule="evenodd" d="M20.615 13.415L21.27 13.4133L21.5017 15.7433L22.51 13.41L23.3183 13.4117L23.5567 15.7517L24.5633 13.4133H25.2433L23.8 16.7217H22.9933L22.76 14.405L21.7417 16.7217L20.9483 16.725L20.615 13.415Z" fill="#D13239"/>
    <path d="M15.7066 13.4417C15.515 13.38 15.1833 13.3667 14.9016 13.37C14.63 13.3733 14.505 13.3867 14.4033 13.4083C14.4033 13.4083 13.92 13.4783 13.645 13.8183C13.37 14.1583 13.2883 14.9017 13.2883 14.9017C13.2883 14.9017 13.125 15.7233 13.1733 15.9983C13.2216 16.2717 13.3066 16.5267 13.6166 16.645C13.9266 16.765 14.19 16.7583 14.19 16.7583C14.19 16.7583 14.7433 16.8017 15.16 16.7033C15.5766 16.605 15.7966 16.3117 15.7966 16.3117C15.7966 16.3117 15.895 16.185 15.965 16.035C16.035 15.885 16.0566 15.78 16.06 15.7667L16.1033 15.5883L15.395 15.59C15.395 15.59 15.3566 16.0583 14.9733 16.1017C14.5916 16.145 14.3866 16.1283 14.3116 16.125C14.2383 16.1217 13.8283 16.14 13.8616 15.7967C13.8616 15.7917 13.8616 15.785 13.8633 15.775C13.8816 15.385 13.925 15.2833 13.925 15.2833L16.15 15.2767L16.245 14.7267C16.355 14.1033 16.2766 13.6283 15.7066 13.4417ZM15.5583 14.6483L14.0333 14.6467L14.0933 14.405C14.0933 14.405 14.1466 14.215 14.2516 14.135C14.3583 14.055 14.4933 14.04 14.62 14.0283C14.7466 14.0167 15.085 13.9917 15.36 14.0483C15.4516 14.0667 15.5383 14.1183 15.5616 14.195C15.615 14.375 15.5583 14.6483 15.5583 14.6483Z" fill="#D13239"/>
    <path d="M13.8666 15.7817C13.8666 15.7867 13.865 15.7917 13.865 15.7967C13.8633 15.8233 13.8666 15.78 13.8666 15.7817Z" fill="#D13239"/>
    <path d="M18.0633 15.7833C18.0633 15.7883 18.0616 15.7933 18.0616 15.7983C18.0616 15.825 18.0633 15.7817 18.0633 15.7833Z" fill="#D13239"/>
    <path d="M19.905 13.4433C19.7133 13.3817 19.3817 13.3683 19.1 13.3717C18.8283 13.375 18.7033 13.3883 18.6017 13.41C18.6017 13.41 18.1183 13.48 17.8433 13.82C17.5683 14.16 17.4867 14.9033 17.4867 14.9033C17.4867 14.9033 17.3233 15.725 17.3717 16C17.42 16.2733 17.505 16.5283 17.815 16.6467C18.125 16.7667 18.3883 16.76 18.3883 16.76C18.3883 16.76 18.9417 16.8033 19.3583 16.705C19.775 16.6067 19.995 16.3133 19.995 16.3133C19.995 16.3133 20.0933 16.1867 20.1633 16.0367C20.2333 15.8867 20.255 15.7817 20.2583 15.7683L20.3017 15.59L19.5933 15.5917C19.5933 15.5917 19.555 16.06 19.1717 16.1033C18.79 16.1467 18.585 16.13 18.51 16.1283C18.4367 16.125 18.0267 16.1417 18.06 15.8C18.06 15.795 18.06 15.7883 18.0617 15.7783C18.08 15.3883 18.1233 15.2867 18.1233 15.2867L20.3483 15.28L20.4433 14.73C20.5533 14.105 20.475 13.6283 19.905 13.4433ZM19.75 14.6483L18.225 14.6467L18.285 14.405C18.285 14.405 18.3383 14.215 18.4433 14.135C18.5483 14.055 18.685 14.04 18.8117 14.0283C18.9383 14.0167 19.2767 13.9917 19.5517 14.0483C19.6433 14.0667 19.73 14.1183 19.7533 14.195C19.8067 14.3733 19.75 14.6483 19.75 14.6483Z" fill="#D13239"/>
    <path fill-rule="evenodd" clip-rule="evenodd" d="M26.03 13.415L26.4683 15.835L27.7067 13.4133L28.4033 13.42L26.6183 16.8783C26.6183 16.8783 26.295 17.505 26.095 17.6633C25.895 17.8217 25.7717 17.8933 25.6083 17.91C25.445 17.9267 25.3783 17.9383 25.2217 17.91L25.055 17.88L25.1583 17.2617C25.1583 17.2617 25.435 17.3133 25.5983 17.2483C25.7633 17.1833 25.895 16.9033 25.895 16.9033L25.9783 16.7633L25.3333 13.4133L26.03 13.415Z" fill="#D13239"/>
    <path fill-rule="evenodd" clip-rule="evenodd" d="M28.6567 13.7433L29.375 13.745L29.4184 13.4667C29.4184 13.4667 29.495 12.9633 29.6667 12.8667C29.7217 12.835 29.81 12.8067 29.9117 12.7883C30.1 12.755 30.3384 12.7517 30.5334 12.7583C30.8317 12.7683 30.945 12.7717 31.2484 12.8067C31.5517 12.8417 31.475 13.135 31.475 13.135L31.415 13.5733C31.415 13.5733 31.3884 13.77 31.3184 13.8917C31.2567 14 31.0867 14.0733 30.9884 14.105C30.7517 14.1817 29.9417 14.3883 29.9417 14.3883L29.305 14.5717C29.305 14.5717 28.9134 14.685 28.695 14.9267C28.475 15.17 28.3884 15.445 28.3584 15.5883C28.3284 15.7317 28.16 16.7233 28.16 16.7233L31.5967 16.725L31.7117 16.0383L28.9934 16.0417L29.0417 15.7617C29.0417 15.7617 29.0734 15.4733 29.19 15.3783C29.2267 15.3483 29.245 15.3083 29.4617 15.2317C29.5917 15.185 30.035 15.0667 30.035 15.0667L31.06 14.7867C31.06 14.7867 31.62 14.6433 31.84 14.3367C32.06 14.0317 32.145 13.4467 32.145 13.4467C32.145 13.4467 32.205 12.8783 32.1584 12.7C32.1134 12.5217 31.945 12.3083 31.74 12.2167C31.535 12.125 31.3217 12.0717 30.7034 12.08C30.085 12.0883 29.7784 12.1167 29.465 12.2333C29.1517 12.3483 28.97 12.5583 28.855 12.855C28.73 13.1367 28.6567 13.7433 28.6567 13.7433Z" fill="#B3B2B1"/>
    <path fill-rule="evenodd" clip-rule="evenodd" d="M35.1267 15.02L35.6083 12.1333H34.755L32.0983 14.9867L31.9783 15.71H34.3017L34.1317 16.7233L34.845 16.725L35.0133 15.71L35.6717 15.7117L35.79 15.02H35.1267ZM34.4167 15.0217L32.915 15.02L34.7433 13.0717L34.4167 15.0217Z" fill="#B3B2B1"/>
    <path fill-rule="evenodd" clip-rule="evenodd" d="M9.48169 12.5133H11.67C11.67 12.5133 12.16 12.1167 12.5084 11.8617C12.8567 11.6067 13.49 11.205 13.49 11.205L12.2534 10.6267C12.2534 10.6267 11.2084 11.2733 10.765 11.5783C10.335 11.86 9.48169 12.5133 9.48169 12.5133Z" fill="#B3B2B1"/>
    <path fill-rule="evenodd" clip-rule="evenodd" d="M14.185 10.7967L13.17 10.1133C13.17 10.1133 14.0883 9.59166 15.31 9.10499C16.53 8.61833 17.1816 8.41499 17.1816 8.41499L17.3883 9.38333C17.3883 9.38333 16.2133 9.77666 15.54 10.095C14.8433 10.3917 14.185 10.7967 14.185 10.7967Z" fill="#B3B2B1"/>
    <path fill-rule="evenodd" clip-rule="evenodd" d="M18.1383 9.17166L17.9617 8.18C17.9617 8.18 19.215 7.84666 20.3617 7.63333C21.51 7.42 23.0317 7.31833 23.0317 7.31833L22.5283 8.85C22.5283 8.85 21.19 8.66666 19.9333 8.83833C18.955 8.955 18.1383 9.17166 18.1383 9.17166Z" fill="#B3B2B1"/>
    <path fill-rule="evenodd" clip-rule="evenodd" d="M23.325 8.98L24.1717 7.27833C24.1717 7.27833 26.0267 7.24167 27.6267 7.49C29.2267 7.73667 30.69 8.11667 30.6583 8.13333L26.6017 10.255C26.6017 10.255 25.6533 9.655 24.4767 9.28667C23.81 9.09 23.325 8.98 23.325 8.98Z" fill="#B3B2B1"/>
    <path fill-rule="evenodd" clip-rule="evenodd" d="M27.3283 10.7167L28.22 11.3933H35.5483C35.5483 11.3933 35.5333 11.1567 35.3383 10.82C35.2166 10.61 34.995 10.3867 34.7633 10.155C34.6783 10.0717 34.3416 9.80833 34.0883 9.64333C33.4416 9.22333 33.08 9.06167 32.4083 8.75667L27.3283 10.7167Z" fill="#B3B2B1"/>
    <path d="M9.9567 13.4117C9.6817 13.4117 9.4217 13.52 9.20003 13.6417L9.23836 13.4117H8.51003L7.9267 16.7067H8.6567L8.98003 14.8817C9.0467 14.5117 9.32336 14.0533 9.86336 14.0533L10.24 14.0517L10.3534 13.4117H9.9567Z" fill="#D13239"/>
</svg>
