<svg xmlns="http://www.w3.org/2000/svg" width="40" height="14" viewBox="0 0 40 14">
    <g fill="none" fill-rule="evenodd">
        <path fill="#FFF" fill-rule="nonzero" d="M0 11.93h.547c.084 0 .13-.008.149-.114.106-.638.243-1.268.33-1.91.028-.2.087-.225.255-.224.682.007 1.363.019 2.044 0 .68-.018 1.242-.276 1.49-.98.145-.416.23-.851.25-1.292.043-.832-.319-1.183-1.165-1.183-.893 0-1.787.005-2.677-.005-.204 0-.277.064-.306.266C.842 7.006.739 7.52.65 8.038.508 8.85.383 9.666.225 10.475c-.073.37-.096.75-.225 1.112v.344zm27.09 1.79c.503-.206.815-.586 1.053-1.068.54-1.09.98-2.224 1.511-3.318.223-.461.407-.937.62-1.436-.155 0-.283.02-.403-.004-.24-.05-.338.084-.417.27-.27.647-.54 1.292-.814 1.936-.173.411-.36.819-.55 1.252-.05-.277-.096-.516-.137-.756-.133-.776-.299-1.549-.379-2.33-.037-.364-.19-.366-.465-.377-.275-.012-.28.12-.246.309.05.267.116.53.166.796.173.91.324 1.826.51 2.733.124.608-.129 1.192-.655 1.427-.064.029-.13.067-.186.041-.223-.104-.242.058-.239.194 0 .12-.057.217-.063.33h.693zm12.852-8.59a.581.581 0 0 1-.103-.094c-.358-.531-.842-.938-1.326-1.339-.648-.535-1.36-.98-2.095-1.386-.254-.142-.465-.202-.75-.094-1.335.509-2.678.999-4.017 1.499-.58.216-1.156.444-1.737.656-.17.062-.223.105-.047.23.176.127.353.237.492.39.173.185.365.202.594.202 2.997-.005 5.995-.006 8.992-.003l-.003-.061zM25.648 0c-.03.08-.057.162-.092.238-.297.6-.59 1.203-.9 1.798-.096.186-.053.233.14.275.399.085.794.188 1.186.309.852.26 1.658.63 2.444 1.048.135.072.258.099.403.018a704.14 704.14 0 0 1 3.77-2.063c.225-.124.454-.243.68-.367.057-.031.128-.07.115-.147-.013-.064-.086-.064-.142-.08-.073-.02-.142-.054-.216-.073-.958-.242-1.914-.484-2.897-.619-1.002-.137-2-.28-3.013-.28-.057 0-.115 0-.152-.057h-1.326zm-2.045.058c-.276.019-.612.022-.941.068-.79.109-1.584.187-2.369.333a31.33 31.33 0 0 0-2.305.519c-.122.032-.127.102-.115.188.053.386.119.77.164 1.156.018.15.082.173.208.14a13.535 13.535 0 0 1 2.3-.396c.903-.084 1.801-.105 2.702.005.182.023.3-.009.36-.22.124-.43.286-.85.422-1.276.178-.568.226-.517-.426-.517zm8.253 11.93h1.787c.23 0 .343-.149.346-.5 0-.236-.196-.127-.3-.128-.798-.009-1.595-.005-2.392-.005-.744 0-.732.004-.51-.72.116-.384.35-.6.737-.655.462-.065.923-.139 1.384-.178.89-.075 1.4-.496 1.614-1.36.077-.316.091-.64.137-.959.094-.66-.196-1.08-.854-1.204-.478-.091-.958-.075-1.432-.04-.437.031-.893.081-1.249.414-.43.403-.497.948-.607 1.478-.017.083.02.095.084.11.427.105.57-.006.643-.436.069-.403.18-.807.664-.901.563-.116 1.13-.17 1.698-.014.265.073.39.245.403.52.013.273-.052.548-.115.817-.166.696-.3.815-1.002.938-.59.102-1.188.141-1.772.284-.417.102-.74.31-.9.72-.207.526-.249 1.09-.36 1.638-.033.166.082.182.212.181h1.784zm-9.954-.587c0-.235.011-.387 0-.538-.073-.848-.16-1.695-.223-2.544-.032-.426-.013-.427-.451-.423a.321.321 0 0 1-.058 0c-.155-.025-.22.05-.184.193.057.234.034.474.062.708.094.789.177 1.578.22 2.37.042.769.028.77.79.764a.27.27 0 0 1 .057 0c.14.03.203-.047.252-.164.286-.691.574-1.38.864-2.067.16-.382.322-.763.502-1.188.065.955.144 1.855.183 2.755.029.663.007.649.672.672.233.009.338-.081.423-.268a901.904 901.904 0 0 1 1.552-3.395c.176-.384.185-.385-.24-.377-.128 0-.285-.07-.364.122a128.48 128.48 0 0 1-.78 1.86c-.207.483-.426.962-.64 1.44-.032-.674-.126-1.332-.149-1.993-.014-.429-.108-.853-.065-1.284.011-.108-.03-.143-.143-.154-.683-.067-.737-.04-1.038.583-.032.066-.058.137-.086.206-.378.884-.753 1.765-1.156 2.722zm14.352-.738c.432 0 .864.012 1.296-.005.202-.008.239.064.203.238-.057.278-.102.56-.16.838-.04.184.008.259.211.26.45 0 .45.01.525-.442.017-.104.044-.205.058-.309.064-.576.063-.576.634-.58.304 0 .373-.068.364-.461-.005-.25-.218-.067-.327-.116a.403.403 0 0 0-.2 0c-.253.036-.268-.115-.23-.298.195-.967.36-1.94.518-2.915.095-.593.103-.577-.484-.598-.29-.01-.51.058-.703.285-.248.288-.525.555-.784.838-.581.634-1.2 1.238-1.792 1.866-.316.335-.657.656-.668 1.18-.004.173.024.221.188.22.448-.005.9-.001 1.35-.001zM17.113 2.722l-.168-.98c-.069-.41-.068-.41-.465-.308-.092.024-.187.038-.277.07a32.55 32.55 0 0 0-4.195 1.823c-.26.136-.16.22-.017.328.357.27.727.523 1.074.803.12.098.196.07.301.01.288-.167.576-.34.873-.49a20.9 20.9 0 0 1 2.656-1.13c.093-.031.223-.031.218-.126zm-3.43 7.307h1.239c.097 0 .22.01.23-.115.027-.387.16-.764.121-1.153-.051-.533-.266-.783-.763-.857a4.788 4.788 0 0 0-1.415-.016c-.64.094-1.028.417-1.24 1.024a5.982 5.982 0 0 0-.328 2.196c.014.445.13.634.562.763.577.173 1.158.15 1.744.062.759-.116.97-.384 1.149-1.038.017-.064.042-.157-.028-.215-.157-.133-.613.023-.657.226-.054.25-.2.446-.443.488-.427.074-.864.139-1.295.009-.244-.074-.38-.241-.4-.512-.015-.214.072-.413.058-.621-.011-.194.074-.25.256-.245.403.01.806.004 1.21.004zm5.424 0c.422 0 .844.003 1.268-.003.072 0 .189.058.2-.088.034-.403.152-.8.116-1.21-.037-.453-.215-.657-.664-.782a3.54 3.54 0 0 0-1.715-.029 1.272 1.272 0 0 0-.974.843 6.073 6.073 0 0 0-.393 2.348c.014.44.137.64.563.763.66.191 1.325.15 1.991.021.512-.099.752-.449.887-.904.03-.103.077-.273-.035-.308a1.116 1.116 0 0 0-.513-.006c-.1.018-.096.163-.123.256-.063.216-.147.399-.4.454-.337.073-.678.122-1.016.077-.289-.039-.61-.076-.695-.456-.067-.299.037-.58.07-.868.015-.136.133-.108.225-.108h1.208zm-11.724-3.4h2.652a.378.378 0 0 0 .234-.1 15.993 15.993 0 0 1 1.58-1.124c.144-.091.202-.173.03-.298-.384-.282-.763-.57-1.137-.861-.099-.078-.156-.073-.269-.008-.719.417-1.38.918-2.032 1.426-.363.28-.745.551-1.058.964zm1.239 4.783l-.036-.058c.07-.057.144-.115.21-.179l2.24-2.239c.228-.226.452-.435.475-.804.014-.213-.023-.24-.206-.237-.835.005-1.672.015-2.505-.005-.34-.008-.213.26-.256.395-.062.194.137.126.23.127.62.006 1.239.004 1.858.004l.057.083a1.493 1.493 0 0 0-.23.157c-.824.819-1.637 1.649-2.472 2.457-.193.187-.218.403-.258.63-.028.152.04.192.19.192a180.39 180.39 0 0 1 2.735 0c.298 0 .204-.243.236-.384.045-.2-.137-.133-.23-.134-.684-.005-1.36-.005-2.038-.005zM6.137 7.896c-.157 0-.311.007-.461 0-.139-.008-.187.025-.206.183-.046.39-.134.775-.204 1.162-.14.784-.269 1.57-.428 2.35-.063.31.038.373.32.346.185-.017.297-.007.332-.264.103-.75.239-1.498.399-2.24.1-.464.272-.89.825-1.032.47-.12 1.038 0 .792.688-.021.057-.058.173.058.184.17.023.345.02.515-.009.115-.027.05-.185.076-.28.194-.707-.239-1.265-.94-1.191-.382.04-.779.089-1.08.385-.048-.109-.009-.191.002-.282zm9.275 4.035c.168 0 .321-.008.473 0 .14.008.184-.031.204-.185.052-.388.152-.77.219-1.157.236-1.376.448-2.756.712-4.126.057-.3-.071-.246-.231-.238-.16.008-.374-.084-.422.194-.131.756-.271 1.511-.404 2.267l-.551 3.245z"/>
        <path fill="#AFB2BB" d="M26.974 0c.035.058.095.058.152.058 1.013 0 2.011.143 3.012.28.982.135 1.94.376 2.897.619.073.019.143.052.216.073.058.016.129.016.142.08.014.076-.058.115-.116.146-.225.125-.454.244-.68.368a1074.03 1074.03 0 0 0-3.767 2.065c-.146.08-.269.054-.403-.018-.786-.418-1.592-.789-2.445-1.049-.39-.119-.786-.222-1.186-.308-.193-.042-.236-.089-.139-.275.309-.598.602-1.2.9-1.801.037-.076.06-.158.091-.238h1.326zM39.942 5.187l-8.991.003c-.23 0-.424-.017-.594-.202-.14-.152-.321-.269-.492-.389-.172-.12-.123-.166.046-.23.582-.212 1.158-.44 1.738-.657 1.339-.499 2.682-.989 4.017-1.498.283-.109.495-.049.75.093.735.41 1.447.852 2.095 1.387.485.4.97.807 1.325 1.338.031.037.067.07.106.098v.057z"/>
        <path fill="#CF4546" fill-rule="nonzero" d="M0 11.585c.13-.36.152-.741.225-1.112.158-.807.283-1.625.425-2.437.089-.518.192-1.031.267-1.55.03-.202.102-.268.306-.265.892.01 1.787.004 2.677.004.846 0 1.21.35 1.166 1.184a4.586 4.586 0 0 1-.252 1.294c-.247.702-.802.958-1.489.98-.687.022-1.362.009-2.044 0-.168 0-.23.024-.254.223-.088.64-.225 1.273-.331 1.91-.019.11-.065.119-.149.115H0v-.346zm1.176-2.474c.773-.025 1.539.05 2.298-.067.281-.043.55-.154.668-.445.146-.365.226-.754.235-1.148.016-.486 0-.551-.461-.612-.75-.1-1.51-.023-2.266-.036-.102 0-.084.074-.095.139-.123.717-.25 1.434-.379 2.169z"/>
        <path fill="#CF4546" d="M26.398 13.718c.004-.116.066-.211.063-.33-.003-.138.016-.299.239-.194.057.026.122-.013.186-.042.526-.235.78-.818.655-1.426-.186-.908-.34-1.823-.51-2.733-.05-.267-.116-.53-.166-.797-.035-.189-.027-.32.246-.309.272.012.428.013.465.377.08.782.246 1.556.378 2.33.041.24.087.48.138.756.19-.433.374-.84.55-1.251.274-.644.544-1.29.814-1.936.078-.187.177-.32.417-.27.118.023.246.003.404.003-.214.499-.399.977-.621 1.436-.53 1.095-.972 2.228-1.511 3.319-.238.481-.55.861-1.054 1.067h-.693z"/>
        <path fill="#AFB2BB" d="M23.603.058c.652 0 .606-.051.425.518-.136.427-.298.846-.422 1.276-.06.211-.178.243-.36.22-.9-.11-1.8-.09-2.702-.005-.777.066-1.546.199-2.3.397-.126.034-.19.01-.208-.141-.045-.386-.112-.77-.165-1.156-.012-.086-.006-.156.116-.188a31.689 31.689 0 0 1 2.305-.52c.785-.145 1.579-.223 2.369-.332.33-.047.666-.05.942-.07zM31.856 11.988H30.07c-.13 0-.246-.015-.212-.18.11-.55.153-1.113.36-1.64.16-.408.483-.617.9-.719.583-.143 1.182-.182 1.771-.284.702-.123.837-.242 1.003-.938.064-.27.127-.537.115-.818-.012-.281-.137-.448-.404-.519-.567-.155-1.134-.099-1.697.014-.484.097-.595.5-.664.901-.074.43-.217.541-.644.436-.064-.015-.1-.027-.083-.11.11-.53.176-1.075.607-1.478.355-.333.812-.383 1.25-.414.472-.035.953-.051 1.43.04.659.124.948.544.854 1.204-.045.32-.057.643-.137.96-.211.864-.722 1.284-1.614 1.36-.46.038-.922.115-1.383.177-.388.055-.619.271-.736.655-.223.724-.236.72.509.72.797 0 1.594-.004 2.39.005.105 0 .305-.108.302.129-.004.35-.116.499-.346.5h-1.785z"/>
        <path fill="#CF4546" d="M21.902 11.401c.403-.957.78-1.838 1.153-2.72.029-.068.053-.139.086-.205.302-.624.356-.65 1.037-.583.115.01.155.046.144.154-.043.43.05.855.065 1.284.022.66.115 1.32.148 1.993.214-.48.433-.96.641-1.44a117.3 117.3 0 0 0 .78-1.86c.079-.192.235-.12.363-.122.426-.008.417-.007.24.376a475.073 475.073 0 0 0-1.55 3.393c-.085.187-.19.277-.423.268-.666-.023-.644-.009-.672-.672-.04-.9-.116-1.8-.183-2.755L23.229 9.7c-.29.689-.578 1.378-.865 2.067-.049.115-.112.194-.251.164a.27.27 0 0 0-.058 0c-.761.006-.749.005-.79-.763a36.789 36.789 0 0 0-.22-2.371c-.028-.234-.004-.474-.062-.708-.035-.144.03-.218.185-.193.019.002.038.002.057 0 .439-.004.42-.003.452.423.062.85.15 1.696.223 2.544.011.15.002.303.002.538z"/>
        <path fill="#AFB2BB" fill-rule="nonzero" d="M36.254 10.663c-.452 0-.903-.004-1.354 0-.164 0-.192-.046-.188-.22.01-.523.352-.845.668-1.18.591-.627 1.21-1.23 1.792-1.866.259-.282.536-.547.784-.838.193-.23.412-.295.703-.285.587.022.576.006.484.598a70.458 70.458 0 0 1-.519 2.916c-.036.18-.02.333.23.298a.403.403 0 0 1 .2 0c.11.047.322-.136.328.115.008.39-.058.457-.365.461-.573.004-.572.004-.634.58-.011.104-.038.206-.057.309-.075.452-.075.443-.525.442-.203 0-.252-.075-.212-.26.058-.278.104-.56.16-.838.037-.173 0-.246-.203-.238-.428.018-.86.006-1.292.006zm-.846-.577h2.355c.129 0 .147-.064.166-.175.124-.73.275-1.455.383-2.185.04-.273.149-.541.115-.865l-3.019 3.225z"/>
        <path fill="#AFB2BB" d="M17.113 2.722c0 .095-.125.095-.218.127a20.9 20.9 0 0 0-2.656 1.128c-.298.15-.584.323-.873.49-.105.057-.18.087-.3-.01-.347-.28-.718-.534-1.075-.803-.143-.109-.243-.192.017-.328a32.55 32.55 0 0 1 4.195-1.822c.09-.031.185-.046.277-.07.397-.102.396-.102.465.308l.168.98z"/>
        <path fill="#CF4546" fill-rule="nonzero" d="M13.682 10.029c-.403 0-.806.006-1.21-.003-.182-.004-.267.05-.256.245.012.208-.075.407-.058.621.02.271.156.438.4.512.43.13.867.065 1.295-.009.243-.042.39-.237.443-.488.043-.203.5-.359.657-.226.07.058.045.15.027.215-.178.653-.39.922-1.148 1.038-.586.088-1.17.115-1.744-.061-.432-.131-.548-.319-.562-.764a5.982 5.982 0 0 1 .328-2.198c.213-.606.6-.93 1.24-1.024.47-.065.947-.06 1.416.016.497.074.711.325.763.857.038.392-.095.769-.121 1.153-.01.124-.132.115-.231.115h-1.239zm-1.317-.461h1.96c.093 0 .238.023.24-.094 0-.21.062-.414.034-.634-.03-.245-.164-.357-.368-.4-.397-.08-.794-.099-1.193.023a.762.762 0 0 0-.537.526 2.72 2.72 0 0 0-.136.579zM19.107 10.029h-1.21c-.092 0-.21-.028-.226.108-.032.288-.137.568-.07.867.086.38.404.418.695.457.339.044.68-.005 1.016-.078.253-.057.338-.237.4-.453.027-.093.023-.238.124-.257.169-.038.345-.035.513.007.112.035.065.205.035.307-.135.456-.375.807-.887.905-.667.13-1.332.17-1.992-.022-.425-.123-.549-.322-.562-.762a6.073 6.073 0 0 1 .395-2.351c.148-.437.52-.76.974-.843a3.54 3.54 0 0 1 1.715.029c.45.126.627.329.664.782.034.412-.084.807-.115 1.21-.012.143-.13.087-.201.088-.424.009-.846.006-1.268.006zm-1.331-.461h2.055c.112 0 .184-.016.172-.154a.889.889 0 0 1 .046-.304c.086-.33-.075-.603-.41-.675a2.571 2.571 0 0 0-1.161.022c-.247.058-.387.202-.496.415-.11.213-.15.443-.206.696z"/>
        <path fill="#AFB2BB" d="M7.383 6.628c.313-.411.695-.682 1.058-.965.653-.508 1.313-1.008 2.032-1.426.115-.065.173-.07.27.008.374.293.752.58 1.136.861.173.126.115.207-.03.298-.549.343-1.077.718-1.58 1.125a.378.378 0 0 1-.234.1H7.383z"/>
        <path fill="#CF4546" d="M8.622 11.412c.677 0 1.354 0 2.032.003.094 0 .277-.067.23.134-.032.14.062.385-.236.384-.911-.005-1.823-.005-2.736 0-.149 0-.217-.04-.19-.192.042-.228.066-.444.26-.63.834-.807 1.647-1.638 2.471-2.457.072-.06.149-.112.23-.157l-.057-.084c-.62 0-1.238.003-1.857-.003-.092 0-.292.067-.23-.127.043-.135-.085-.403.255-.395.835.02 1.672.01 2.505.004.183 0 .22.025.206.238-.023.37-.247.576-.474.804l-2.236 2.24c-.065.065-.14.123-.207.18l.034.058zM6.137 7.896c-.01.09-.05.173-.004.282.302-.297.699-.346 1.08-.386.702-.074 1.134.485.94 1.19-.026.096.039.255-.076.281-.17.03-.344.033-.515.009-.115-.01-.08-.125-.058-.184.246-.686-.322-.807-.792-.687-.552.141-.725.567-.825 1.031a29.25 29.25 0 0 0-.398 2.24c-.035.258-.148.248-.333.265-.282.026-.383-.038-.32-.346.16-.78.288-1.567.429-2.35.07-.387.157-.772.203-1.163.019-.158.067-.19.206-.182.152.007.306 0 .463 0zM15.412 11.93c.187-1.099.369-2.17.555-3.241.131-.756.271-1.511.403-2.268.048-.278.26-.186.423-.194.163-.008.288-.061.23.238-.264 1.37-.476 2.75-.712 4.126-.067.387-.166.77-.219 1.158-.02.153-.063.193-.203.184-.154-.01-.31-.002-.477-.002z"/>
        <path fill="#FFF" d="M1.176 9.11c.129-.734.256-1.451.379-2.168.011-.065-.007-.14.095-.14.756.014 1.516-.063 2.266.037.46.06.477.126.46.612-.008.394-.088.783-.234 1.148-.118.289-.387.404-.668.445-.76.12-1.525.042-2.298.067zM35.408 10.086l3.02-3.227c.033.326-.076.594-.116.864-.108.731-.259 1.456-.383 2.185-.02.112-.037.177-.166.176-.755.002-1.51.002-2.355.002zM12.365 9.568c.024-.197.069-.39.135-.577a.762.762 0 0 1 .536-.525c.4-.122.796-.105 1.193-.023.204.042.338.154.369.4.027.218-.033.422-.035.634 0 .115-.147.093-.24.093-.643-.002-1.286-.002-1.958-.002zM17.776 9.568c.057-.253.095-.482.204-.692.109-.21.249-.355.496-.415.38-.096.778-.103 1.162-.022.334.072.495.346.41.675a.889.889 0 0 0-.046.304c.013.138-.058.154-.173.154-.678-.004-1.357-.004-2.053-.004z"/>
    </g>
</svg>