<svg width="51" height="51" viewBox="0 0 51 51" fill="none" xmlns="http://www.w3.org/2000/svg">
<rect x="0.5" y="0.339844" width="50" height="50" fill="white"/>
<path d="M13.2939 26.425L16.7665 26.418L16.6405 27.2091L13.735 29.9746H16.1714L16.0314 30.8217H12.4468L12.5938 29.9466L15.3733 27.2791H13.1539L13.2939 26.425Z" fill="#D13239"/>
<path d="M9.50634 25.0719C9.42932 24.9949 9.32431 24.9319 9.20529 24.8829C9.07926 24.8339 8.93924 24.7989 8.79922 24.7709C8.62419 24.7428 8.45616 24.7288 8.33714 24.7218C8.22512 24.7148 8.15511 24.7148 8.15511 24.7148H6.63585H5.50866L4.50049 30.8199H5.44565L5.81671 28.5585L7.65102 28.5655C7.65102 28.5655 8.36514 28.5935 8.86923 28.3274C9.37331 28.0614 9.51334 27.4523 9.51334 27.4523C9.51334 27.4523 9.56935 27.2283 9.61836 26.9482C9.66736 26.6472 9.72337 26.2831 9.74438 26.0871C9.75838 26.0031 9.76538 25.947 9.76538 25.947C9.76538 25.947 9.77938 25.884 9.77938 25.786C9.77938 25.653 9.75838 25.45 9.65336 25.2539C9.60435 25.1909 9.56235 25.1279 9.50634 25.0719ZM8.77821 26.1501C8.77821 26.1641 8.6942 26.6542 8.58218 27.2353C8.54017 27.4593 8.37214 27.5783 8.17611 27.6203C7.85406 27.6903 7.504 27.6763 7.504 27.6763L5.97074 27.6693L6.30679 25.639L7.69303 25.646C7.69303 25.646 7.78404 25.646 7.91707 25.646C8.06409 25.646 8.26013 25.653 8.42815 25.674C8.56818 25.695 8.6802 25.723 8.7152 25.765C8.76421 25.821 8.77821 25.898 8.78521 25.9681C8.79222 26.0591 8.77821 26.1431 8.77821 26.1501Z" fill="#D13239"/>
<path d="M21.4644 24.7148H22.3745L21.3594 30.8199H20.4492L21.4644 24.7148Z" fill="#D13239"/>
<path d="M26.3169 26.425L27.192 26.418L27.5001 29.5195L28.8373 26.418H29.9155L30.2306 29.5335L31.5678 26.418H32.4779L30.5526 30.8217H29.4814L29.1734 27.7412L27.8151 30.8217H26.765L26.3169 26.425Z" fill="#D13239"/>
<path d="M19.7908 26.4574C19.5388 26.3734 19.0977 26.3594 18.7196 26.3594C18.3556 26.3664 18.1946 26.3804 18.0545 26.4084C18.0545 26.4084 17.4104 26.4994 17.0464 26.9545C16.6823 27.4096 16.5703 28.3967 16.5703 28.3967C16.5703 28.3967 16.3532 29.4889 16.4163 29.853C16.4793 30.217 16.5913 30.5531 17.0044 30.7141C17.4174 30.8751 17.7675 30.8681 17.7675 30.8681C17.7675 30.8681 18.5026 30.9242 19.0557 30.7981C19.6088 30.6721 19.9028 30.28 19.9028 30.28C19.9028 30.28 20.0359 30.112 20.1269 29.909C20.2179 29.7059 20.2459 29.5729 20.2529 29.5519L20.3089 29.3139H19.3638C19.3638 29.3139 19.3147 29.937 18.8037 29.993C18.2926 30.049 18.0265 30.028 17.9215 30.021C17.8235 30.014 17.2774 30.042 17.3194 29.5869C17.3194 29.5799 17.3194 29.5729 17.3194 29.5589C17.3404 29.0408 17.4034 28.9078 17.4034 28.9078L20.3649 28.9008L20.4909 28.1657C20.652 27.3325 20.547 26.7024 19.7908 26.4574ZM19.5878 28.0607H17.5575L17.6345 27.7386C17.6345 27.7386 17.7045 27.4866 17.8445 27.3815C17.9845 27.2765 18.1666 27.2555 18.3346 27.2415C18.5026 27.2275 18.9507 27.1925 19.3217 27.2695C19.4408 27.2905 19.5598 27.3605 19.5878 27.4656C19.6648 27.6966 19.5878 28.0607 19.5878 28.0607Z" fill="#D13239"/>
<path d="M17.3394 29.5664C17.3394 29.5732 17.3394 29.58 17.3394 29.5867C17.3327 29.6206 17.3394 29.5664 17.3394 29.5664Z" fill="#D13239"/>
<path d="M25.3709 26.4574C25.1189 26.3734 24.6778 26.3594 24.2997 26.3594C23.9357 26.3664 23.7746 26.3804 23.6346 26.4084C23.6346 26.4084 22.9905 26.4994 22.6264 26.9545C22.2624 27.4096 22.1504 28.3967 22.1504 28.3967C22.1504 28.3967 21.9333 29.4889 21.9963 29.853C22.0593 30.217 22.1714 30.5531 22.5844 30.7141C22.9975 30.8751 23.3476 30.8681 23.3476 30.8681C23.3476 30.8681 24.0827 30.9242 24.6358 30.7981C25.1889 30.6651 25.4829 30.28 25.4829 30.28C25.4829 30.28 25.6159 30.112 25.707 29.909C25.798 29.7059 25.826 29.5729 25.833 29.5519L25.889 29.3139H24.9438C24.9438 29.3139 24.8948 29.937 24.3837 29.993C23.8727 30.049 23.6066 30.028 23.5016 30.028C23.4036 30.021 22.8575 30.049 22.8995 29.5939C22.8995 29.5869 22.8995 29.5799 22.8995 29.5659C22.9205 29.0478 22.9835 28.9148 22.9835 28.9148L25.945 28.9078L26.071 28.1727C26.2321 27.3395 26.134 26.7024 25.3709 26.4574ZM25.1679 28.0607H23.1375L23.2145 27.7386C23.2145 27.7386 23.2846 27.4866 23.4246 27.3815C23.5646 27.2765 23.7466 27.2555 23.9147 27.2415C24.0827 27.2275 24.5308 27.1925 24.9018 27.2695C25.0208 27.2905 25.1399 27.3605 25.1679 27.4656C25.2449 27.6966 25.1679 28.0607 25.1679 28.0607Z" fill="#D13239"/>
<path d="M33.5203 26.4242L34.1014 29.6447L35.7467 26.4242L36.6708 26.4312L34.2974 31.031C34.2974 31.031 33.8704 31.8641 33.6043 32.0741C33.3383 32.2842 33.1773 32.3822 32.9602 32.4032C32.7432 32.4242 32.6522 32.4382 32.4491 32.4032L32.2251 32.3612L32.3651 31.5421C32.3651 31.5421 32.7362 31.6121 32.9532 31.521C33.1703 31.437 33.3453 31.059 33.3453 31.059L33.4573 30.8699L32.5962 26.4102L33.5203 26.4242Z" fill="#D13239"/>
<path d="M37.0133 26.8577H37.9654L38.0214 26.4867C38.0214 26.4867 38.1265 25.8146 38.3505 25.6885C38.4205 25.6465 38.5395 25.6115 38.6795 25.5835C38.9316 25.5415 39.2466 25.5345 39.5057 25.5415C39.9048 25.5555 40.0518 25.5625 40.4579 25.6045C40.8639 25.6535 40.7589 26.0386 40.7589 26.0386L40.6819 26.6197C40.6819 26.6197 40.6469 26.8787 40.5559 27.0398C40.4719 27.1868 40.2478 27.2848 40.1148 27.3268C39.7997 27.4318 38.7216 27.7049 38.7216 27.7049L37.8744 27.9499C37.8744 27.9499 37.3563 28.1039 37.0623 28.419C36.7682 28.741 36.6562 29.1051 36.6142 29.3011C36.5722 29.4902 36.3481 30.8134 36.3481 30.8134H40.9199L41.074 29.9032L37.4613 29.9102L37.5243 29.5392C37.5243 29.5392 37.5664 29.1541 37.7204 29.0281C37.7694 28.9861 37.7904 28.9371 38.0844 28.8321C38.2595 28.7691 38.8476 28.615 38.8476 28.615L40.2128 28.244C40.2128 28.244 40.9549 28.0549 41.249 27.6419C41.543 27.2358 41.6551 26.4587 41.6551 26.4587C41.6551 26.4587 41.7321 25.7025 41.6761 25.4645C41.6131 25.2265 41.389 24.9464 41.123 24.8204C40.8499 24.7014 40.5699 24.6244 39.7437 24.6384C38.9246 24.6524 38.5115 24.6874 38.0984 24.8414C37.6784 24.9954 37.4403 25.2755 37.2863 25.6675C37.1113 26.0526 37.0133 26.8577 37.0133 26.8577Z" fill="#B3B2B1"/>
<path d="M45.6178 28.5593L46.2619 24.7227H45.1278L41.5922 28.5173L41.4312 29.4765H44.5187L44.2946 30.8277H45.2468L45.4708 29.4765H46.346L46.5 28.5593H45.6178ZM44.6797 28.5593H42.6844L45.1138 25.9689L44.6797 28.5593Z" fill="#B3B2B1"/>
<path d="M11.5093 25.2205H14.4218C14.4218 25.2205 15.0729 24.6954 15.535 24.3523C15.997 24.0163 16.8442 23.4772 16.8442 23.4772L15.1989 22.707C15.1989 22.707 13.8057 23.5682 13.2176 23.9742C12.6435 24.3523 11.5093 25.2205 11.5093 25.2205Z" fill="#B3B2B1"/>
<path d="M17.7599 22.9372L16.4087 22.027C16.4087 22.027 17.6269 21.3339 19.2582 20.6828C20.8824 20.0387 21.7506 19.7656 21.7506 19.7656L22.0236 21.0538C22.0236 21.0538 20.4624 21.5789 19.5662 21.999C18.6421 22.3981 17.7599 22.9372 17.7599 22.9372Z" fill="#B3B2B1"/>
<path d="M23.0256 20.773L22.7876 19.4568C22.7876 19.4568 24.4539 19.0157 25.9801 18.7287C27.5064 18.4416 29.5297 18.3086 29.5297 18.3086L28.8576 20.3459C28.8576 20.3459 27.0793 20.1009 25.406 20.3319C24.1108 20.486 23.0256 20.773 23.0256 20.773Z" fill="#B3B2B1"/>
<path d="M29.9209 20.5218L31.0481 18.2604C31.0481 18.2604 33.5125 18.2114 35.6409 18.5404C37.7692 18.8695 39.7155 19.3736 39.6735 19.3946L34.2756 22.216C34.2756 22.216 33.0154 21.4179 31.4472 20.9278C30.565 20.6688 29.9209 20.5218 29.9209 20.5218Z" fill="#B3B2B1"/>
<path d="M35.2495 22.8318L36.4327 23.735H46.1783C46.1783 23.735 46.1573 23.4199 45.8983 22.9718C45.7373 22.6918 45.4432 22.3977 45.1352 22.0897C45.0231 21.9777 44.5751 21.6276 44.239 21.4106C43.3779 20.8505 42.8948 20.6334 42.0056 20.2344L35.2495 22.8318Z" fill="#B3B2B1"/>
<path d="M12.139 26.418C11.7749 26.418 11.4249 26.565 11.1308 26.726L11.1798 26.418H10.2137L9.43652 30.8007H10.4097L10.8368 28.3713C10.9278 27.8812 11.2918 27.2721 12.013 27.2721H12.517L12.6711 26.418H12.139V26.418Z" fill="#D13239"/>
</svg>
