<?xml version="1.0" encoding="utf-8"?>
<!-- Generator: Adobe Illustrator 24.2.0, SVG Export Plug-In . SVG Version: 6.00 Build 0)  -->
<svg version="1.1" id="Layer_1" xmlns="http://www.w3.org/2000/svg" xmlns:xlink="http://www.w3.org/1999/xlink" x="0px" y="0px"
	 viewBox="0 0 55 34" style="enable-background:new 0 0 55 34;" xml:space="preserve">
<style type="text/css">
	.st0{fill:#FC1154;}
	.st1{fill:#FFFFFF;}
</style>
<g>
	<g>
		<path class="st0" d="M51.98,34h-49c-1.66,0-3-1.34-3-3V3c0-1.66,1.34-3,3-3h49c1.66,0,3,1.34,3,3v28
			C54.98,32.66,53.63,34,51.98,34z"/>
	</g>
	<path class="st1" d="M25.97,10.84v6.12h-2.52v-5.12c0-1.26-0.94-1.94-1.82-1.94c-0.77,0-1.36,0.37-1.94,1.19v5.87h-2.52v-4.51
		c-0.26,0.09-0.52,0.16-0.77,0.22c-0.14,2.6-1.98,4.46-4.47,4.46c-2.6,0-4.48-2.01-4.48-4.76V7.57h2.52v4.79
		c0,1.03,0.51,2.24,1.96,2.24c1.33,0,1.87-1.02,1.95-1.99c-1.05-0.44-1.7-1.5-1.7-2.92c0-1.46,1.09-2.32,2.14-2.32
		c1.34,0,2.09,1.34,2.08,2.67c0,0,0.37-0.13,0.77-0.36V7.57h2.52v0.81c0.86-0.7,1.66-1.02,2.58-1.02c1.02,0,1.95,0.36,2.64,1
		C25.6,9,25.97,9.88,25.97,10.84z M26.98,9.79h4.27l-4.5,5.35l0,0v1.81h8v-2.22h-4.53l4.53-5.42l0,0V7.56h-7.77L26.98,9.79
		L26.98,9.79z M42.93,8.67c0.85,0.86,1.29,2.08,1.29,3.52v0.87h-6.78c0.18,1.16,1.01,1.85,2.23,1.85c1.02,0,1.9-0.41,2.29-1.07
		l0.01-0.01l0.01,0l1.98,0.89l-0.01,0.01c-0.79,1.52-2.37,2.39-4.32,2.39c-2.81,0-4.69-1.96-4.69-4.87c0-1.37,0.5-2.63,1.41-3.53
		c0.87-0.87,2.04-1.34,3.28-1.34C40.97,7.39,42.1,7.83,42.93,8.67z M41.76,11.09c-0.21-0.97-1-1.55-2.13-1.55
		c-1.03,0-1.82,0.58-2.12,1.55H41.76z M50.55,7.5c-0.34-0.1-0.72-0.1-0.72-0.1c-0.83,0-1.63,0.32-2.31,0.92V7.56H45v9.39h2.52v-5.82
		c0.5-0.94,1.26-1.46,2.15-1.46c0,0,0.4,0,0.65,0.08L50.55,7.5z M8.47,24.67c0-1.23,0.88-1.82,1.74-1.82c0.44,0,0.77,0.15,1.03,0.36
		v-1.9h0.98v5.11h-0.98v-0.36c-0.23,0.25-0.57,0.43-1.09,0.43C9.37,26.5,8.47,25.91,8.47,24.67z M11.23,24.84v-0.34
		c0-0.52-0.39-0.84-0.86-0.84c-0.52,0-0.91,0.35-0.91,1.01s0.39,1.01,0.92,1.01C10.85,25.68,11.23,25.37,11.23,24.84z M12.97,21.97
		c0-0.31,0.26-0.57,0.57-0.57c0.31,0,0.57,0.26,0.57,0.57c0,0.31-0.25,0.57-0.57,0.57C13.23,22.54,12.97,22.28,12.97,21.97z
		 M13.05,26.43v-3.5h0.98v3.5H13.05z M14.86,26.43v-3.5h0.98v0.42c0.23-0.28,0.56-0.49,0.97-0.49c0.14,0,0.26,0.02,0.34,0.06
		l-0.13,0.77l-0.05,0.05c-0.06-0.01-0.14-0.04-0.24-0.04c-0.38,0-0.7,0.21-0.9,0.63v2.1H14.86z M17.43,24.67
		c0-1.09,0.85-1.82,1.8-1.82c1.04,0,1.76,0.67,1.76,1.8v0.26h-2.63c0.05,0.48,0.39,0.79,0.9,0.79c0.45,0,0.68-0.22,0.8-0.54
		l0.82,0.08l0.05,0.08c-0.27,0.78-0.85,1.16-1.69,1.16C18.19,26.5,17.43,25.77,17.43,24.67z M20.06,24.28
		c-0.05-0.42-0.39-0.69-0.84-0.69c-0.41,0-0.76,0.27-0.84,0.69H20.06z M21.46,24.67c0-1.08,0.81-1.82,1.83-1.82
		c0.93,0,1.56,0.51,1.72,1.3l-0.06,0.07l-0.81,0.08c-0.09-0.36-0.37-0.61-0.85-0.61c-0.5,0-0.88,0.34-0.88,0.97s0.39,0.97,0.88,0.97
		c0.48,0,0.72-0.23,0.85-0.61l0.81,0.08l0.06,0.06c-0.21,0.84-0.82,1.31-1.72,1.31C22.27,26.5,21.46,25.75,21.46,24.67z
		 M25.91,25.43v-1.7h-0.62v-0.81h0.62v-1h0.13l0.85,0.29v0.71h0.74v0.81h-0.74v1.61c0,0.23,0.14,0.35,0.38,0.35
		c0.11,0,0.18-0.02,0.28-0.05l0.05,0.03v0.75c-0.21,0.05-0.37,0.07-0.62,0.07C26.35,26.5,25.91,26.17,25.91,25.43z M29.6,24.67
		c0-1.23,0.88-1.82,1.74-1.82c0.44,0,0.77,0.15,1.03,0.36v-1.9h0.98v5.11h-0.98v-0.36c-0.23,0.25-0.57,0.43-1.09,0.43
		C30.5,26.5,29.6,25.91,29.6,24.67z M32.37,24.84v-0.34c0-0.52-0.38-0.84-0.86-0.84c-0.52,0-0.91,0.35-0.91,1.01
		s0.39,1.01,0.92,1.01C31.98,25.68,32.37,25.37,32.37,24.84z M34.03,24.67c0-1.09,0.85-1.82,1.8-1.82c1.04,0,1.76,0.67,1.76,1.8
		v0.26h-2.63c0.05,0.48,0.39,0.79,0.9,0.79c0.45,0,0.68-0.22,0.8-0.54l0.82,0.08l0.05,0.08c-0.27,0.78-0.85,1.16-1.69,1.16
		C34.79,26.5,34.03,25.77,34.03,24.67z M36.67,24.28c-0.05-0.42-0.39-0.69-0.84-0.69c-0.41,0-0.76,0.27-0.84,0.69H36.67z
		 M39.23,26.05v0.38h-0.98v-5.11h0.98v1.95c0.26-0.22,0.6-0.41,1.1-0.41c0.85,0,1.67,0.59,1.67,1.82s-0.87,1.82-1.65,1.82
		C39.82,26.5,39.47,26.3,39.23,26.05z M41,24.67c0-0.66-0.39-1.01-0.9-1.01c-0.48,0-0.87,0.32-0.87,0.84v0.34
		c0,0.53,0.41,0.84,0.85,0.84C40.61,25.68,41,25.33,41,24.67z M42.56,21.97c0-0.31,0.26-0.57,0.57-0.57c0.32,0,0.57,0.26,0.57,0.57
		c0,0.31-0.25,0.57-0.57,0.57C42.82,22.54,42.56,22.28,42.56,21.97z M42.64,26.43v-3.5h0.98v3.5H42.64z M44.79,25.43v-1.7h-0.62
		v-0.81h0.62v-1h0.13l0.85,0.29v0.71h0.74v0.81h-0.74v1.61c0,0.23,0.14,0.35,0.38,0.35c0.11,0,0.18-0.02,0.28-0.05l0.05,0.03v0.75
		c-0.21,0.05-0.37,0.07-0.62,0.07C45.23,26.5,44.79,26.17,44.79,25.43z"/>
</g>
</svg>
