<svg width="40" height="24" viewBox="0 0 40 24" fill="none" xmlns="http://www.w3.org/2000/svg">
    <rect x="0.5" y="0.5" width="39" height="23" rx="3.5" fill="white"/>
    <rect x="0.5" y="0.5" width="39" height="23" rx="3.5" stroke="#DBDCE0"/>
    <path d="M11.6652 10.5519H9.61259C9.61259 10.2232 9.57297 10.0026 9.49411 9.89025C9.37193 9.72417 9.03487 9.64094 8.48311 9.64094C7.94715 9.64094 7.59193 9.68875 7.41862 9.78455C7.2453 9.88073 7.15845 10.0897 7.15845 10.4113C7.15845 10.7026 7.23535 10.8945 7.38934 10.9863C7.49961 11.0517 7.64541 11.0899 7.82692 11.1014L8.24089 11.1299C9.12816 11.1873 9.68226 11.2278 9.9032 11.2509C10.6049 11.3198 11.1135 11.5019 11.4291 11.7969C11.6774 12.0272 11.8255 12.3281 11.8727 12.6995C11.9004 12.9218 11.9141 13.1734 11.9141 13.4528C11.9141 14.0969 11.8511 14.5684 11.7252 14.8673C11.4966 15.4158 10.9831 15.7622 10.1843 15.9077C9.84953 15.9693 9.33758 15.9999 8.64881 15.9999C7.49922 15.9999 6.69822 15.9333 6.24581 15.799C5.69073 15.6346 5.32458 15.3015 5.14755 14.8C5.04879 14.5208 5 14.0557 5 13.4048H7.05266C7.05266 13.4773 7.05286 13.5329 7.05286 13.5712C7.05286 13.9186 7.15513 14.1418 7.35948 14.2414C7.50098 14.31 7.67176 14.346 7.8726 14.3504H8.62734C9.01242 14.3504 9.25815 14.3311 9.36413 14.2925C9.55286 14.2201 9.6768 14.1035 9.73594 13.9422C9.76736 13.8428 9.78297 13.7144 9.78297 13.5571C9.78297 13.205 9.65123 12.9907 9.38813 12.9138C9.28957 12.8835 8.83208 12.841 8.01507 12.7875C7.35889 12.7418 6.90316 12.6978 6.64806 12.6551C5.97607 12.5325 5.52815 12.2801 5.30467 11.8971C5.10813 11.5718 5.00995 11.0795 5.00995 10.4207C5.00995 9.9192 5.06304 9.51696 5.16922 9.21451C5.27539 8.91187 5.44656 8.68218 5.68272 8.52506C6.02877 8.28375 6.47162 8.14224 7.0105 8.09996C7.45902 8.06167 7.95652 8.04225 8.50379 8.04225C9.3653 8.04225 9.97932 8.09062 10.3453 8.18642C11.2386 8.42069 11.6852 9.07662 11.6852 10.1546C11.6852 10.243 11.6785 10.3752 11.6652 10.5519Z" fill="#10298E"/>
    <path d="M20.6918 16V8.00004H23.9077H24.4125H24.8026C25.3665 8.00004 25.7967 8.0448 26.0923 8.1347C26.7684 8.34134 27.222 8.76473 27.4545 9.40428C27.5743 9.74006 27.6344 10.2455 27.6344 10.9205C27.6344 11.732 27.5679 12.315 27.4361 12.6702C27.1724 13.3723 26.6299 13.7768 25.8103 13.8815C25.7139 13.8974 25.3038 13.9113 24.5799 13.9227L24.2138 13.9345H22.8983V16H20.6918ZM22.8983 12.0787H24.2737C24.7099 12.0634 24.9752 12.0307 25.0706 11.9795C25.201 11.9096 25.2886 11.7694 25.3321 11.5593C25.36 11.4195 25.3739 11.2115 25.3739 10.9354C25.3739 10.5969 25.3462 10.3461 25.2906 10.1823C25.2113 9.9528 25.0212 9.81319 24.7203 9.76234C24.6605 9.75472 24.5181 9.75053 24.2922 9.75053H22.8983V12.0787Z" fill="#10298E"/>
    <path d="M32.3442 14.6174H29.3941L28.9977 16H26.715L29.1783 8H32.5066L35 16H32.7652L32.3442 14.6174ZM31.9061 13.0589L30.8722 9.59108L29.869 13.0589H31.9061Z" fill="#10298E"/>
    <path d="M17.6465 9.12549C18.5564 9.12549 19.3687 9.53459 19.9025 10.1753L20.3781 9.18015C19.6343 8.49412 18.6219 8.07112 17.5053 8.07112C15.7667 8.07112 14.2795 9.09578 13.6692 10.5463H12.7417L12.194 11.6919H13.3871C13.3782 11.7982 13.3723 11.9044 13.3723 12.013C13.3723 12.1442 13.3793 12.2741 13.3926 12.4023H12.793L12.2456 13.5483H13.6977C14.3253 14.962 15.794 15.9545 17.5053 15.9545C18.3678 15.9545 19.168 15.7023 19.8307 15.2715V13.8671C19.2971 14.46 18.5166 14.8346 17.6465 14.8346C16.6294 14.8346 15.7347 14.3229 15.2138 13.5483H18.2542L18.8019 12.4023H14.7664C14.7456 12.2644 14.7344 12.1235 14.7344 11.9799C14.7344 11.8827 14.7395 11.7867 14.7493 11.6919H19.1413L19.6888 10.5463H15.1289C15.6332 9.69705 16.5716 9.12549 17.6465 9.12549Z" fill="#FFBE00"/>
    <path d="M17.6465 9.15981C18.5136 9.15981 19.3259 9.53806 19.8752 10.197L19.9107 10.2397L19.9347 10.19L20.4101 9.19486L20.4207 9.17219L20.4025 9.15505C19.6207 8.43398 18.5917 8.03688 17.5053 8.03688C16.6569 8.03688 15.8407 8.27876 15.1445 8.73643C14.4647 9.18324 13.9432 9.8047 13.6368 10.5332L13.6692 10.5119H12.7417H12.7191L12.7097 10.5317L12.1622 11.6775L12.1388 11.7264H12.194H13.3871L13.352 11.6891C13.3421 11.8081 13.3372 11.9138 13.3372 12.013C13.3372 12.1416 13.344 12.274 13.3575 12.4058L13.3926 12.3681H12.793H12.7708L12.7614 12.3879L12.2135 13.5337L12.1903 13.5826H12.2456H13.6977L13.6653 13.5618C14.3199 15.0362 15.8272 15.9888 17.5053 15.9888C18.3466 15.9888 19.1571 15.751 19.8502 15.3003L19.8656 15.2902V15.2716V13.8671V13.7759L19.8041 13.8445C19.2574 14.4519 18.4711 14.8 17.6465 14.8C16.6764 14.8 15.778 14.3248 15.2431 13.5293L15.2138 13.5826H18.2542H18.2769L18.2862 13.563L18.8339 12.4168L18.8573 12.3681H18.8019H14.7664L14.8014 12.3974C14.7805 12.2585 14.7698 12.1184 14.7698 11.9799C14.7698 11.8856 14.7746 11.79 14.7844 11.6954L14.7493 11.7264H19.1413H19.1639L19.1733 11.7066L19.7208 10.5608L19.7444 10.5119H19.6888H15.1289L15.1593 10.5635C15.6734 9.69766 16.6267 9.15981 17.6465 9.15981ZM15.1289 10.5806H19.6888L19.6568 10.5317L19.1095 11.6775L19.1413 11.6577H14.7493H14.7175L14.7139 11.6887C14.7042 11.7855 14.6993 11.8835 14.6993 11.9799C14.6993 12.1216 14.7102 12.2656 14.7315 12.4075L14.7362 12.4368H14.7664H18.8019L18.7701 12.3879L18.2226 13.5337L18.2542 13.5138H15.2138H15.1484L15.1843 13.5668C15.7322 14.3823 16.6528 14.8686 17.6465 14.8686C18.4912 14.8686 19.2971 14.512 19.8572 13.8898L19.7953 13.8671V15.2716L19.811 15.2432C19.1296 15.686 18.3325 15.9201 17.5053 15.9201C15.8551 15.9201 14.3734 14.9836 13.7301 13.5344L13.7207 13.5138H13.6977H12.2456L12.2778 13.563L12.825 12.4168L12.793 12.4368H13.3926H13.4314L13.4277 12.3989C13.4145 12.2694 13.4074 12.1393 13.4074 12.013C13.4074 11.9159 13.4123 11.8117 13.4223 11.6948L13.4254 11.6577H13.3871H12.194L12.2258 11.7066L12.7735 10.5608L12.7417 10.5806H13.6692H13.6928L13.7016 10.5593C14.0031 9.84336 14.5156 9.23276 15.1839 8.79337C15.8682 8.3437 16.6712 8.10582 17.5053 8.10582C18.5737 8.10582 19.5851 8.49607 20.3539 9.20514L20.3461 9.16552L19.8709 10.1609L19.93 10.1536C19.3669 9.47845 18.5349 9.09106 17.6465 9.09106C16.6013 9.09106 15.6252 9.64205 15.0982 10.529L15.0676 10.5806H15.1289Z" fill="#10298E"/>
</svg>
