<svg width="40" height="24" viewBox="0 0 40 24" fill="none" xmlns="http://www.w3.org/2000/svg">
    <rect x="0.5" y="0.5" width="39" height="23" rx="3.5" fill="white"/>
    <rect x="0.5" y="0.5" width="39" height="23" rx="3.5" stroke="#DBDCE0"/>
    <path fill-rule="evenodd" clip-rule="evenodd" d="M33.7311 17.9748H4.3045L6.26456 6.30452H35.6955L33.7311 17.9748Z" fill="#2E3235"/>
    <path fill-rule="evenodd" clip-rule="evenodd" d="M13.6888 13.1025C13.187 13.1025 12.8353 12.7766 12.8353 12.2662C12.8353 11.7 13.2727 11.1725 13.9032 11.1725C14.405 11.1725 14.7567 11.5156 14.7567 12.026C14.761 12.5879 14.3192 13.1025 13.6888 13.1025ZM13.9847 10.1946C12.6637 10.1946 11.6644 11.1596 11.6644 12.3134C11.6644 13.3599 12.4879 14.0804 13.6116 14.0804C14.9326 14.0804 15.9319 13.0854 15.9319 11.9316C15.9276 10.8894 15.1084 10.1946 13.9847 10.1946Z" fill="#E5E5E0"/>
    <path fill-rule="evenodd" clip-rule="evenodd" d="M21.6491 13.1025C21.1473 13.1025 20.7956 12.7766 20.7956 12.2662C20.7956 11.7 21.2331 11.1725 21.8636 11.1725C22.3654 11.1725 22.7171 11.5156 22.7171 12.026C22.7171 12.5879 22.2796 13.1025 21.6491 13.1025ZM21.9408 10.1946C20.6198 10.1946 19.6204 11.1596 19.6204 12.3134C19.6204 13.3599 20.4439 14.0804 21.5676 14.0804C22.8886 14.0804 23.8879 13.0854 23.8879 11.9316C23.8879 10.8894 23.0645 10.1946 21.9408 10.1946Z" fill="#E5E5E0"/>
    <path fill-rule="evenodd" clip-rule="evenodd" d="M25.8952 12.0346H25.7236L25.8523 11.254H26.0067C26.3713 11.254 26.5686 11.3655 26.5686 11.6014C26.5686 11.8931 26.2898 12.0346 25.8952 12.0346ZM27.7738 11.4213C27.7738 10.7222 27.2248 10.2718 26.234 10.2718H24.8315L24.2182 14.0032H25.3977L25.5907 12.828H25.6464L26.2726 14.0032H27.6236L26.7573 12.6994C27.392 12.4806 27.7738 12.0046 27.7738 11.4213Z" fill="#E5E5E0"/>
    <path fill-rule="evenodd" clip-rule="evenodd" d="M10.3133 11.7601C9.8673 11.5371 9.76436 11.477 9.76436 11.3569C9.76436 11.2068 9.94021 11.1339 10.189 11.1339C10.472 11.1339 10.9052 11.1639 11.3255 11.5628C11.4285 11.2411 11.6 10.9538 11.8231 10.7007C11.2269 10.3662 10.6779 10.1946 10.1718 10.1946C9.1639 10.1946 8.58918 10.7307 8.58918 11.3741C8.58918 11.9274 9.0095 12.219 9.51131 12.4721C9.95736 12.7037 10.0732 12.7723 10.0732 12.9138C10.0732 13.0639 9.88445 13.1497 9.63569 13.1497C9.20251 13.1497 8.70499 12.8795 8.40905 12.605L8.23749 13.6429C8.54629 13.8617 8.98806 14.089 9.65285 14.089C10.6908 14.089 11.2526 13.57 11.2526 12.901C11.2441 12.352 10.8838 12.0517 10.3133 11.7601Z" fill="#E5E5E0"/>
    <path fill-rule="evenodd" clip-rule="evenodd" d="M19.0329 11.9102H17.6518L17.759 11.2583H19.2387C19.4317 10.8637 19.7277 10.5292 20.0965 10.2761H17.6733C17.1371 10.2761 16.6782 10.6407 16.5967 11.1339L16.1249 14.0075H17.3044L17.4974 12.8323H18.8999L19.0028 12.1933C19.0071 12.0989 19.0157 12.0046 19.0329 11.9102Z" fill="#E5E5E0"/>
    <path fill-rule="evenodd" clip-rule="evenodd" d="M27.7995 10.2718C28.1126 10.512 28.3099 10.8465 28.3485 11.254H29.3349L28.8803 13.9989H30.0598L30.5144 11.254H31.6081L31.7711 10.2718H27.7995Z" fill="#E5E5E0"/>
</svg>
