<svg width="40" height="24" viewBox="0 0 40 24" fill="none" xmlns="http://www.w3.org/2000/svg">
    <rect width="40" height="24" rx="4" fill="#010202"/>
    <path d="M38.4804 19H1.52777C1.23457 19 1 18.7721 1 18.4872V5.51279C1 5.22791 1.23457 5 1.52777 5H38.472C38.7652 5 38.9998 5.22791 38.9998 5.51279V18.4872C39.0082 18.7721 38.7652 19 38.4804 19Z" fill="#010202"/>
    <path d="M12.921 14.507C12.921 14.6454 12.8205 14.8081 12.7032 14.8733L8.42237 17.2581C8.30509 17.3314 8.10403 17.3314 7.98675 17.2581L3.70591 14.8733C3.58863 14.8 3.4881 14.6454 3.4881 14.507V9.73721C3.4881 9.59884 3.58863 9.43605 3.70591 9.37093L7.98675 6.98605C8.10403 6.91279 8.30509 6.91279 8.42237 6.98605L12.7032 9.36279C12.8205 9.43605 12.921 9.5907 12.921 9.72907V14.507Z" fill="white"/>
    <path d="M36.4782 9.98954H32.6329V10.8605H34.0068V14.5965H35.0959V10.8605H36.4782V9.98954Z" fill="white"/>
    <path d="M19.0197 9.98954H15.1745V10.8605H16.5568V14.5965H17.6458V10.8605H19.0197V9.98954Z" fill="white"/>
    <path d="M30.1449 9.84303C28.9385 9.84303 28.2599 10.5837 28.2599 11.6419V14.5965H29.3323V11.6174C29.3323 11.1535 29.6171 10.7954 30.1532 10.7954C30.681 10.7954 30.9658 11.2105 30.9658 11.6174V14.5965H32.0381V11.6419C32.0465 10.5837 31.3512 9.84303 30.1449 9.84303Z" fill="white"/>
    <path d="M26.0818 9.98954V14.5965H27.1625V9.98954H26.0818Z" fill="white"/>
    <path d="M22.4293 11.8209L22.4712 12.0244L23.4765 14.5965H23.9205L25.2944 9.98954H24.2305L23.5686 12.407L23.5351 12.6674L23.4849 12.407L22.6052 9.98954H22.2618L21.3905 12.407L21.3403 12.6674L21.2984 12.407L20.6449 9.98954H19.5726L20.9465 14.5965H21.3905L22.3958 12.0244L22.4293 11.8209Z" fill="white"/>
    <path d="M10.19 12.0326L9.09252 13.5547L8.53124 12.7407L9.18467 11.8209C9.30196 11.6581 9.57003 11.2105 9.26007 10.5919C9.01712 10.0954 8.48935 9.85931 8.02859 9.85931C7.56784 9.85931 7.0652 10.0791 6.79712 10.5919C6.49553 11.1779 6.75523 11.6419 6.87252 11.7965C6.87252 11.7965 7.23274 12.3012 7.53433 12.7163L8.02859 13.3837L8.7658 14.4419C8.77418 14.45 8.89146 14.6128 9.09252 14.6128C9.29358 14.6128 9.41086 14.4419 9.42762 14.4256L11.1534 12.0163H10.19V12.0326ZM8.02859 12.0651C8.02859 12.0651 7.73539 11.65 7.55108 11.3651C7.35003 11.0558 7.57622 10.6 8.02859 10.6C8.48097 10.6 8.70716 11.0558 8.5061 11.3651C8.31342 11.6581 8.02859 12.0651 8.02859 12.0651Z" fill="url(#paint0_radial_7742_846)"/>
    <path d="M6.96467 13.4977L5.88399 12.0651C5.88399 12.0651 5.59078 11.65 5.40648 11.3651C5.20542 11.0558 5.43161 10.6 5.88399 10.6C5.94263 10.6 5.99289 10.6081 6.04316 10.6163L6.42852 9.95698C6.25259 9.89186 6.06829 9.85117 5.89236 9.85117C5.43161 9.85117 4.92897 10.0709 4.66089 10.5837C4.3593 11.1698 4.619 11.6337 4.73629 11.7884L6.62957 14.4337C6.64633 14.4581 6.76361 14.6291 6.96467 14.6291C7.16573 14.6291 7.28301 14.4663 7.29976 14.4419L7.86943 13.6279L7.37516 12.9442L6.96467 13.4977Z" fill="url(#paint1_radial_7742_846)"/>
    <defs>
        <radialGradient id="paint0_radial_7742_846" cx="0" cy="0" r="1" gradientUnits="userSpaceOnUse" gradientTransform="translate(7.66322 10.2762) scale(5.09365 4.94903)">
            <stop stop-color="#FFCC03"/>
            <stop offset="0.09157" stop-color="#FEC704"/>
            <stop offset="0.1739" stop-color="#FBBC0D"/>
            <stop offset="0.2528" stop-color="#F8A913"/>
            <stop offset="0.3295" stop-color="#F38F1A"/>
            <stop offset="0.4046" stop-color="#EE701C"/>
            <stop offset="0.4786" stop-color="#E84B1E"/>
            <stop offset="0.5503" stop-color="#E52D1F"/>
            <stop offset="0.5822" stop-color="#E52421"/>
            <stop offset="1" stop-color="#E52421"/>
        </radialGradient>
        <radialGradient id="paint1_radial_7742_846" cx="0" cy="0" r="1" gradientUnits="userSpaceOnUse" gradientTransform="translate(4.59269 10.5513) scale(4.67056 4.53799)">
            <stop stop-color="#00B4E6"/>
            <stop offset="0.201" stop-color="#01B0E3"/>
            <stop offset="0.3898" stop-color="#07A5DC"/>
            <stop offset="0.5737" stop-color="#0092CE"/>
            <stop offset="0.7546" stop-color="#0378BB"/>
            <stop offset="0.9316" stop-color="#0756A1"/>
            <stop offset="1" stop-color="#064794"/>
        </radialGradient>
    </defs>
</svg>
