<svg width="40" height="24" viewBox="0 0 40 24" fill="none" xmlns="http://www.w3.org/2000/svg">
    <rect x="0.5" y="0.5" width="39" height="23" rx="3.5" fill="white"/>
    <rect x="0.5" y="0.5" width="39" height="23" rx="3.5" stroke="#DBDCE0"/>
    <path d="M15.8797 19.8635C15.8145 19.9017 15.7488 19.9389 15.6835 19.9777C15.4933 20.0889 15.3027 20.2 15.1125 20.3112C15.0289 20.3608 14.9448 20.4104 14.8612 20.46C14.752 20.5226 14.644 20.5866 14.5349 20.6492C14.3371 20.7619 14.1443 20.8844 13.9424 20.9909C13.7997 21.0245 13.6365 20.964 13.5718 20.826C13.5111 20.7133 13.5474 20.583 13.58 20.4683C13.633 20.2739 13.684 20.0796 13.7355 19.8852C13.7865 19.6898 13.8385 19.4949 13.89 19.3C13.9185 19.194 13.9476 19.0886 13.9715 18.9821C13.998 18.8849 14.0281 18.7888 14.0439 18.689C14.0602 18.5562 14.0281 18.4223 13.969 18.3039C13.92 18.2228 13.8558 18.1519 13.7808 18.0951C13.6452 17.9938 13.5106 17.8909 13.3801 17.7833C13.2787 17.6991 13.1792 17.6133 13.0809 17.5243C12.9901 17.4422 12.8999 17.3594 12.8122 17.2737C12.6965 17.1589 12.5833 17.0416 12.4732 16.9206C12.3875 16.825 12.3019 16.7294 12.2203 16.6301C12.1428 16.5365 12.0673 16.4409 11.9939 16.3432C11.8747 16.186 11.763 16.0232 11.6539 15.8578C11.632 15.8242 11.6111 15.7901 11.5902 15.7565C11.4729 15.5683 11.3643 15.375 11.2639 15.1775C11.194 15.0374 11.1272 14.8953 11.0635 14.7521C11.0421 14.6973 11.0197 14.6425 10.9978 14.5882C10.9172 14.3902 10.8484 14.1876 10.7867 13.9829C10.7311 13.7942 10.6832 13.603 10.6419 13.4107C10.6026 13.2137 10.57 13.0152 10.5466 12.8157C10.4762 12.2274 10.4864 11.6304 10.5715 11.0447C10.6006 10.8534 10.6348 10.6621 10.6791 10.474C10.7245 10.277 10.778 10.0827 10.8418 9.89088C10.9055 9.69035 10.9835 9.49547 11.062 9.30059L11.0691 9.28301C11.1573 9.08813 11.2476 8.89428 11.3495 8.70608C11.5728 8.29152 11.8343 7.89864 12.1285 7.53218C12.1627 7.4898 12.1974 7.4479 12.231 7.40606C12.3615 7.24887 12.4987 7.09848 12.6404 6.95164C12.6919 6.89788 12.7449 6.84568 12.7979 6.79349C12.9442 6.64719 13.0977 6.50813 13.2542 6.37375C13.3001 6.33498 13.346 6.29621 13.3929 6.25894C13.7543 5.96329 14.1377 5.6955 14.5385 5.4577C14.6954 5.36469 14.855 5.27577 15.0167 5.18998C15.0534 5.17083 15.0906 5.15223 15.1278 5.13363C15.3175 5.03905 15.5091 4.94904 15.7034 4.86584C16.0801 4.70408 16.4661 4.56398 16.8591 4.44815C17.0666 4.38717 17.2762 4.33082 17.4872 4.28428C17.661 4.24244 17.837 4.20782 18.0128 4.17573C18.2254 4.13492 18.44 4.10596 18.6547 4.07959C19.0049 4.03618 19.3577 4.0124 19.71 4H20.2667C20.6787 4.01186 21.0896 4.04395 21.4979 4.09873C21.6912 4.12456 21.8839 4.15611 22.0756 4.19175C22.2688 4.22847 22.461 4.27037 22.6516 4.31685C22.8464 4.36495 23.0401 4.41667 23.2319 4.47663C23.6295 4.59704 24.019 4.74387 24.3998 4.91136C24.593 4.9966 24.7817 5.09124 24.9713 5.18528L24.9866 5.19256C25.1768 5.29593 25.3664 5.39984 25.551 5.51357C25.9598 5.76118 26.3479 6.04287 26.7139 6.35099C26.7216 6.35768 26.7368 6.37008 26.7445 6.37628C26.927 6.53552 27.108 6.69734 27.2777 6.87151C27.3063 6.90101 27.3354 6.93099 27.365 6.96043C27.5031 7.10155 27.6315 7.25145 27.7595 7.40136C27.6841 7.43447 27.6086 7.46807 27.5337 7.50268C27.4475 7.54145 27.3613 7.5792 27.2757 7.61851C27.0861 7.70328 26.8974 7.79009 26.7083 7.87486C26.5401 7.95089 26.3718 8.02633 26.2046 8.10387C26.1801 8.11368 26.1561 8.12404 26.1322 8.13488C25.9379 8.22175 25.7447 8.31067 25.551 8.397C25.1636 8.57273 24.7755 8.74642 24.3881 8.9227C24.0037 9.09482 23.6193 9.2685 23.2354 9.44273C23.0422 9.53063 22.8489 9.61696 22.6557 9.70431C22.5354 9.75807 22.4151 9.81334 22.2958 9.86867C22.2209 9.89967 22.1474 9.93381 22.073 9.96692C21.8773 10.0558 21.681 10.1442 21.4847 10.2326C21.3261 10.3044 21.1676 10.3763 21.009 10.4487C20.9764 10.4631 20.9438 10.4776 20.9117 10.4921C20.7174 10.5784 20.5247 10.6673 20.331 10.7542C19.943 10.9294 19.5555 11.1036 19.1681 11.2793C18.8719 11.4112 18.5762 11.5467 18.281 11.6805C18.1933 11.7214 18.1026 11.7565 18.0083 11.7761C17.8155 11.8092 17.6141 11.7844 17.4367 11.7012C17.3939 11.6795 17.3521 11.6552 17.3113 11.6293C17.1625 11.5203 17.0121 11.4128 16.8622 11.3047C16.7398 11.2163 16.6185 11.1274 16.4956 11.0405C16.4233 10.9878 16.3503 10.9346 16.2769 10.8824C16.0898 10.7459 15.9017 10.6099 15.7135 10.4745C15.71 10.4719 15.7034 10.4673 15.6998 10.4652C15.5642 10.3659 15.4285 10.2672 15.2919 10.1695C15.2389 10.1318 15.1777 10.1091 15.1166 10.092C14.9116 10.0806 14.7332 10.2796 14.7796 10.4859C14.9437 10.8751 15.1257 11.2567 15.295 11.6433C15.3857 11.8444 15.4755 12.0454 15.5667 12.2465C15.6019 12.3256 15.6371 12.4053 15.6723 12.4843C15.7238 12.598 15.7762 12.7118 15.8267 12.8265C15.9144 13.0199 16.0001 13.2142 16.0883 13.4076C16.1444 13.5316 16.2004 13.6562 16.257 13.7802C16.2891 13.8532 16.3212 13.9265 16.3544 13.9994C16.4579 14.2037 16.5211 14.4311 16.6598 14.6146C16.7154 14.6673 16.776 14.7144 16.8423 14.7531C17.0355 14.8498 17.2721 14.8379 17.4572 14.7257C17.524 14.6859 17.5907 14.6456 17.6575 14.6053C17.7799 14.5355 17.9007 14.4636 18.0225 14.3934C18.4089 14.1664 18.7959 13.94 19.1829 13.7131C19.3496 13.6164 19.5158 13.5187 19.682 13.42C19.709 13.4034 19.7376 13.3874 19.7651 13.3719C19.9583 13.2602 20.1505 13.147 20.3427 13.0343C20.4523 12.9708 20.5624 12.9072 20.671 12.842C20.7557 12.7924 20.8408 12.7428 20.9259 12.6932C21.1182 12.5805 21.3098 12.4667 21.503 12.3556C21.5617 12.322 21.6203 12.2868 21.6784 12.2522C21.814 12.1721 21.9507 12.0935 22.0858 12.0124C22.4722 11.7865 22.8602 11.5616 23.2456 11.3337C23.3924 11.2468 23.5402 11.162 23.6871 11.0752C23.731 11.0499 23.7748 11.0235 23.8187 10.9981C24.0113 10.885 24.2051 10.7728 24.3978 10.6585C24.4992 10.6006 24.5991 10.5407 24.6996 10.4812C24.7913 10.428 24.8831 10.3758 24.9744 10.322C25.3649 10.093 25.7549 9.86403 26.1459 9.63556C26.3284 9.5275 26.5125 9.42154 26.6945 9.31299C26.7088 9.30468 26.7236 9.29644 26.7384 9.28819C26.929 9.17754 27.1187 9.06484 27.3098 8.9537C27.4455 8.87513 27.5801 8.79398 27.7157 8.71487C27.7707 8.68339 27.8248 8.6513 27.8799 8.61975C28.0634 8.51638 28.2398 8.40061 28.4289 8.30706C28.4947 8.44504 28.5798 8.57273 28.6507 8.70867C28.7552 8.90463 28.8531 9.10463 28.9398 9.30938C28.9642 9.36778 28.9877 9.42617 29.0117 9.48511C29.0657 9.62105 29.1162 9.75856 29.1615 9.89817C29.2227 10.0853 29.2747 10.275 29.3206 10.4668C29.3659 10.6611 29.4016 10.858 29.4312 11.0555C29.4582 11.2499 29.4781 11.4453 29.4893 11.6417C29.5 11.8387 29.5026 12.0362 29.4975 12.2331C29.4903 12.429 29.4771 12.625 29.4547 12.8198C29.4317 13.0152 29.4001 13.209 29.3614 13.4019C29.3206 13.5968 29.2727 13.7896 29.2171 13.9808C29.0953 14.3908 28.9362 14.7888 28.7445 15.1703C28.537 15.5838 28.2897 15.9762 28.0114 16.3447C27.9619 16.4094 27.9114 16.474 27.861 16.5376C27.7555 16.6673 27.6473 16.795 27.5347 16.9191C27.4551 17.0054 27.3751 17.0906 27.293 17.1744C27.1722 17.2949 27.0494 17.4127 26.9224 17.5259C26.8566 17.5854 26.7894 17.6438 26.7216 17.7012C26.5558 17.8423 26.3845 17.9767 26.2087 18.1043C26.1827 18.123 26.1567 18.1421 26.1307 18.1607C25.9405 18.2967 25.7463 18.4264 25.5464 18.5474C25.4689 18.5944 25.3904 18.6399 25.3119 18.6849C25.2003 18.7485 25.0876 18.8116 24.9728 18.8699C24.7817 18.9687 24.588 19.0622 24.3911 19.1486C24.2994 19.1894 24.2066 19.2282 24.1143 19.2664C24.0098 19.3083 23.9048 19.3481 23.7992 19.3874C23.6132 19.4572 23.424 19.5203 23.2339 19.5791C23.035 19.6386 22.8347 19.6939 22.6328 19.743C22.4615 19.7859 22.2887 19.8206 22.1164 19.8578C22.1067 19.8593 22.0873 19.8625 22.0776 19.8635C21.8849 19.8986 21.6917 19.9302 21.4974 19.956C21.3047 19.9814 21.112 20.0026 20.9183 20.018C20.7246 20.032 20.5303 20.0444 20.3366 20.0496C20.1433 20.0552 19.9501 20.0563 19.7564 20.0522C19.5632 20.0475 19.3694 20.0382 19.1762 20.0242C18.983 20.0103 18.7898 19.9906 18.5971 19.9664C18.4232 19.9446 18.2504 19.9167 18.0781 19.8883C18.0159 19.8774 17.9537 19.8645 17.8915 19.8552C17.7416 19.8242 17.5922 19.7937 17.4434 19.758C17.2466 19.712 17.0519 19.6572 16.8571 19.6035C16.6664 19.5517 16.4614 19.5683 16.2784 19.6412" fill="#00C800"/>
</svg>
